<svg xmlns="http://www.w3.org/2000/svg" viewBox="0 0 762.29 629.43"><defs><style>.cls-1{fill:#6c9c83;}</style></defs><g id="Layer_2" data-name="Layer 2"><g id="Layer_1-2" data-name="Layer 1"><g id="wiYjwK"><path class="cls-1" d="M388.52,276.81c-.08-17.63-.13-28.69-.18-39.74-.28-64.65-.2-129.3-1-193.93C386.86,3,371.41-10.63,348,8.63Q183.74,144.07,19.85,280.55C-6.45,302.48-6.6,329.24,19.31,351c31.52,26.5,63.91,50.76,95.65,76.68,77.68,63.42,155.1,127.51,232.83,190.78,27.95,22.75,41.84,10.07,41.9-37.78.08-64.64-.5-129.29-.63-193.93,0-9.59.85-19.17,1.48-32.39,20.83,15.46,39.64,28.21,57.68,43C536,469.31,623.48,541.88,711.14,614c31.58,26,51.37,8.47,51.14-45Q761.2,312.14,760,55.26c-.24-51.63-20-68.95-50.39-43.63C629.85,78.05,550.29,145.06,470.48,211.42,444.6,232.93,418.22,253.16,388.52,276.81Z"/><path class="cls-1" d="M388.52,276.81c29.7-23.65,56.08-43.88,82-65.39C550.29,145.06,629.85,78.05,709.64,11.63c30.42-25.32,50.15-8,50.39,43.63Q761.2,312.14,762.28,569c.23,53.5-19.56,71-51.14,45C623.48,541.88,536,469.31,448.22,397.37c-18-14.79-36.85-27.54-57.68-43-.63,13.22-1.5,22.8-1.48,32.39.13,64.64.71,129.29.63,193.93-.06,47.85-13.95,60.53-41.9,37.78C270.06,555.2,192.64,491.11,115,427.69,83.22,401.77,50.83,377.51,19.31,351c-25.91-21.77-25.76-48.53.54-70.46Q183.7,143.95,348,8.63C371.41-10.63,386.86,3,387.35,43.14c.79,64.63.71,129.28,1,193.93C388.39,248.12,388.44,259.18,388.52,276.81Z"/></g></g></g></svg>