<svg xmlns="http://www.w3.org/2000/svg" viewBox="0 0 762.81 630.06"><defs><style>.cls-1{fill:#6c9c83;}</style></defs><g id="Layer_2" data-name="Layer 2"><g id="Layer_1-2" data-name="Layer 1"><g id="wiYjwK"><path class="cls-1" d="M374.37,352.66c.11,17.64.19,28.69.26,39.74.42,64.65.47,129.3,1.39,193.93.57,40.17,16.05,53.73,39.38,34.42Q579.42,485,743,348.16c26.25-22,26.35-48.74.4-70.46-31.58-26.43-64-50.62-95.82-76.48C569.81,138,492.25,74,414.39,10.92q-42-34-41.81,37.87c0,64.64.76,129.28,1,193.93,0,9.58-.8,19.17-1.41,32.38-20.87-15.41-39.7-28.12-57.77-42.87C226.53,160.47,138.87,88.08,51.05,16.09,19.42-9.84-.33,7.73,0,61.23Q1.62,318.11,3.32,575c.34,51.62,20.11,68.9,50.47,43.52,79.66-66.58,159.08-133.75,238.76-200.28C318.38,396.65,344.72,376.37,374.37,352.66Z"/><path class="cls-1" d="M374.37,352.66c-29.65,23.71-56,44-81.82,65.56-79.68,66.53-159.1,133.7-238.76,200.28C23.43,643.88,3.66,626.6,3.32,575Q1.63,318.11,0,61.23C-.33,7.73,19.42-9.84,51.05,16.09c87.82,72,175.48,144.38,263.37,216.14,18.07,14.75,36.9,27.46,57.77,42.87.61-13.21,1.45-22.8,1.41-32.38-.26-64.65-1-129.29-1-193.93Q372.52-23,414.39,10.92C492.25,74,569.81,138,647.61,201.22c31.8,25.86,64.24,50.05,95.82,76.48,26,21.72,25.85,48.48-.4,70.46Q579.47,485.11,415.4,620.75c-23.33,19.31-38.81,5.75-39.38-34.42-.92-64.63-1-129.28-1.39-193.93C374.56,381.35,374.48,370.3,374.37,352.66Z"/></g></g></g></svg>