<svg xmlns="http://www.w3.org/2000/svg" viewBox="0 0 496.68 637.7"><defs><style>.cls-1{fill:#fff;}</style></defs><g id="Layer_2" data-name="Layer 2"><g id="Layer_1-2" data-name="Layer 1"><g id="yKSm8p.tif"><path class="cls-1" d="M496.55,319.19c0,86.95-.27,173.9.13,260.84.17,37.76-13.26,60.89-52.7,57.3-26-2.36-52.25-.57-78.39-.7-32.23-.15-45.25-14.41-45.34-51q-.35-152.72-.2-305.44,0-112.58.15-225.17C320.28,11,330.44.28,371.69.24c26.82,0,53.65-.29,80.48-.09,32.37.24,44,12.59,44.21,49.28.39,83.23,0,166.46,0,249.69v20.07Z"/><path class="cls-1" d="M176.39,318.86c0,87.7-.47,175.39.25,263.08.26,31.81-12.83,58.91-50.52,55.23-26.61-2.59-53.74-2.11-80.41.13C13.78,640,.2,615,.11,588.21-.07,534.7,0,481.19,0,427.69Q0,242.64.05,57.6C.09,10.33,9.78,0,53.33,0c25.45,0,50.9.15,76.35.25,35.41.15,46.54,12,46.63,51.08C176.53,140.51,176.38,229.69,176.39,318.86Z"/></g></g></g></svg>