<svg xmlns="http://www.w3.org/2000/svg" viewBox="0 0 394.18 633.59"><defs><style>.cls-1{fill:#6c9c83;}</style></defs><g id="Layer_2" data-name="Layer 2"><g id="Layer_1-2" data-name="Layer 1"><g id="yKSm8p.tif"><path class="cls-1" d="M394.08,317.13c0,86.39-.22,172.78.1,259.16.13,37.52-10.53,60.5-41.83,56.93-20.6-2.34-41.46-.57-62.21-.69-25.58-.15-35.91-14.32-36-50.68q-.28-151.73-.16-303.46,0-111.87.12-223.72C254.18,10.88,262.25.27,295,.24c21.29,0,42.58-.29,63.87-.09,25.7.23,34.95,12.51,35.09,49,.31,82.69,0,165.39,0,248.09q0,10,0,19.93Z"/><path class="cls-1" d="M140,316.81c0,87.12-.37,174.26.2,261.37.2,31.61-10.19,58.54-40.1,54.89-21.11-2.58-42.65-2.1-63.81.13C10.94,635.86.16,611,.09,584.42-.06,531.25,0,478.09,0,424.93Q0,241.08,0,57.23C.07,10.26,7.76,0,42.32,0c20.2,0,40.4.14,60.6.25,28.1.15,36.93,11.88,37,50.75Q140.19,183.9,140,316.81Z"/></g></g></g></svg>