<svg xmlns="http://www.w3.org/2000/svg" viewBox="0 0 540.24 661.32"><defs><style>.cls-1{fill:#fff;}</style></defs><g id="Layer_2" data-name="Layer 2"><g id="Layer_1-2" data-name="Layer 1"><g id="iZmOO8.tif"><path class="cls-1" d="M.18,331.18q0-142.74,0-285.47c0-17.53,2.3-33.51,18.77-41.9C33.29-3.51,46.4.59,59.21,8.69Q128.38,52.37,197.57,96q102.58,64.74,205.2,129.45c37.27,23.41,74.81,46.32,112.12,69.66a71.26,71.26,0,0,1,13.94,11.19c15.75,16.63,15.47,38.08-2.6,51.45-22.4,16.57-46.17,30.89-69.56,45.75q-69,43.91-138.36,87.31Q219,553,119.5,614.87c-20,12.46-40.25,24.57-60.42,36.77-3.49,2.11-7,4.46-10.74,5.76C18.48,667.8.22,658,.13,622.57-.1,525.44.05,428.31.05,331.18Z"/></g></g></g></svg>