<svg xmlns="http://www.w3.org/2000/svg" viewBox="0 0 1011.78 1218.71"><g id="Layer_2" data-name="Layer 2"><g id="Layer_1-2" data-name="Layer 1"><path d="M449.41,1160.56A501.27,501.27,0,0,0,549.54,1152q12.35-2.28,24.58-5.08c7.41-1.71,14.62-3.12,20.79-7.85,11.55-8.86,16.36-22.95,16.63-37.1.32-16.29-4.78-32-9.74-47.34a137.84,137.84,0,0,0-19.45-38.94c-16.41-22.47-39.49-38.92-67.52-42.62-27.23-3.59-56.81,5-72.67,28.6-3.38,5,3.25,11.27,8.21,8.2,4.74-2.92,9.52-5.81,14.15-8.91,2.88-1.93,5.86-4.1,4.72-8.21-.64-2.29-3.21-4.71-5.79-4.4-3.79.45-7.27,3.1-10.45,5.06s-7.53,4.09-9.9,7c-4,4.94,1,13.33,7.27,9.42,72.44-45.45,164.78-53.18,245.22-25.77a278.21,278.21,0,0,1,63.48,31.15c5.55,3.66,10.36-3.26,8.2-8.21-3.35-7.71-6.81-16.72-12.76-22.91-3.93-4.09-11.24-4.54-13,2.06-1.18,4.53,1.29,9.86,3.39,13.72a44.61,44.61,0,0,0,14.14,15.34c5.51,3.78,10.33-3.32,8.2-8.21-19.38-44.46-58-79.1-103.29-95.8-50.19-18.49-107.52-11.06-152.65,17.15a177.93,177.93,0,0,0-60.78,63.13c-2.54,4.51,1.67,10.24,6.78,8.81A633,633,0,0,1,573.9,979.18c38.78-3.33,78.37-4.54,117,1.21,25.45,3.78,59.2,12.67,65.25,42,2.86,13.85-3.22,28-10.39,39.5-7.8,12.54-17.83,23.5-28.18,34-27.87,28.22-61.35,50.39-98.63,64.09-7.35,2.71-4.39,12.73,3.19,11.57,45.3-6.87,90-15.1,133.38-30,35.08-12,68.16-29.33,93.82-56.67,29-30.89,45.47-70.31,56.43-110.69,5.87-21.6,9.46-43.65,12.85-65.74q5.34-34.73,7.61-69.83a878.23,878.23,0,0,0-2.46-138.09c-2.18-23.27-5.17-46.47-8.79-69.56-.77-4.89-1.12-9.87-3.18-14.39s-2.06-10.5-3-15.48c-1.91-10.57-4.33-21-7.1-31.41-2.9-10.83-6.19-21.55-9.63-32.22-1.6-4.93-3.32-9.61-3.93-14.77-.74-6.25-2.83-11.77-4.92-17.68-7.77-21.93-15.82-43.76-23.88-65.58-13-35.26-38.55-69.5-78.91-72.11-20-1.29-39.69,4.48-58.76,9.76a302.62,302.62,0,0,0-57.54,22.61,316,316,0,0,0-53.9,35.05c-8.22,6.62-16.19,13.55-24,20.66-4,3.6-8.18,7.11-11.61,11.22q-5.64,6.75-11.19,13.59-10,12.3-19.56,24.92c-3.39,4.44,2.19,9.91,6.78,8.81s8.45-6.12,7.41-10.86c-.59-2.7-3.23-4.22-5.78-4.4-3.91-.28-6.42,3.77-8.41,6.45-2.66,3.58.91,9.34,5.18,9A80.13,80.13,0,0,0,563,511.61a6.06,6.06,0,0,0,3.58-8.82c-2.47-4-6.3-6.55-11.17-5.38-3.7.9-6.15,3.69-9.35,5.49-5,2.8-3,11.63,3,11.18,4.27-.32,14.84.56,17.22-4.42a6.21,6.21,0,0,0-.94-7.27c-4-4-16.86-2.48-20.52,1.44-3.33,3.58-1.19,10.56,4.24,10.25,55.45-3.26,103.48-42.58,125-92.69A156.1,156.1,0,0,0,686,376.28c.57-5.32-6.87-7.72-10.25-4.24s-5.24,10.24-2.52,14.52a6.22,6.22,0,0,0,10.17.53c2.27-2.86,2.27-7.38,2.6-10.81.49-5.22-6.88-7.87-10.25-4.24-5.32,5.73-11.49,8.71-13.8,16.82-1.38,4.82,3.06,8,7.38,7.38,9.91-1.46,16-10.48,16.67-20,.39-5.58-6.64-7.39-10.25-4.24-4.19,3.65-10.13,7.57-13,12.48-3.53,5.92,3.18,11.43,8.74,8.32,4.75-2.66,13.32-9.22,14.34-15,1.06-5.93-5.34-9.91-10-5.83-35.21,30.61-69.25,62.57-105.4,92.1l9.42,7.28c-1.13,2.48.64-.87.61-.47,0-.35,1.21-.55-.61.07L573,462.2c.48-1.07,1-.84-.11-.18a26.17,26.17,0,0,0-2.54,2.12l10,5.84c2-5.67.9-12.2,4.11-17.41H574.15c1.84,4.32-2.3,9.57-4.72,12.79l11,4.62c.77-4.49,1.54-9,2.42-13.46.2-1,.46-2,.64-3.08s1-1.82-.19,0l-5.18,3h0L572.33,452c-.72-2.09,0-1.56-.23-.59a17.28,17.28,0,0,0-.23,1.9c.19-1.43-.11.74-.19,1.25-.15,1-.31,2-.48,2.93-.32,1.82-.65,3.64-1.07,5.43-.17.75-.41,1.48-.57,2.22-.31,1.36.39-.5.81-1l10,5.84c4.06-21.93,9.8-44.31,18.92-64.71a303,303,0,0,1,27.56-48.95,287.13,287.13,0,0,1,77.82-76.23,271.25,271.25,0,0,1,56.13-28.27l-5.84-10c-5.66,4.81-11.35,9.75-17.57,13.85-.71.47-1.46.89-2.18,1.35-1.46.93-.59,0-.28.2q-.76.24,1.14-.12l5.46,7.2c0-.06-.17,1.2-.39.94s1.14-.57,0-.06c-.48.21-.27.29.19-.19a54,54,0,0,1,19.48-13.14l-5.84-10a548,548,0,0,0-96.74,99.49c-27.7,36.61-52.9,75.1-66,119.56-13.87,47.27-11.36,96.4-1.79,144.24,9.81,49,28.58,96.73,27.46,147.37a182.42,182.42,0,0,1-1.75,21.9c-.88,6.08-1.64,12.84-4.24,18.48-1.92,4.16-5.17,8.33-9.55,10.06s-9.3-.2-12.85-2.91c-9.11-7-12.46-18.06-16.39-28.29-4.18-10.88-9-21.55-18.15-29.2-3.12-2.62-9.15-2.19-10,2.64-.75,4.11-2.43,9.94-.27,13.93A6.38,6.38,0,0,0,555,760.32c4-4.22,4.8-14,0-17.83-3.33-2.7-8.85-2.11-10,2.64-4.94,20-6.46,44.81-25.89,56.76-7.38,4.54-16.61,7.24-25.27,5.53-10-2-15.75-9.35-17.77-19-1.41-6.82,1-13.61,2.46-20.24q2.35-10.56,4.79-21.08,4.85-20.92,9.94-41.8c6.59-27.06,13.44-54.07,20.35-81,8-31.12,16-62.21,23.82-93.37,1.88-7.49-9.69-10.68-11.57-3.19-15.1,60.2-31.05,120.18-45.65,180.49q-5.48,22.65-10.67,45.37c-3.3,14.48-8.79,29.3-3.3,43.87C474.76,819.94,499.68,824.3,520,815a52.52,52.52,0,0,0,25.71-26.54c5.73-12.79,7.56-26.67,10.89-40.17l-10,2.65c1,.8-.44-.42-.27-.67.34-.51.24-.26,0,.31a5.76,5.76,0,0,0-.4,2c-.15,1.11-.07-.5,0,0,.52,3.23,8.91,5.59,9.92,2,.54-1.89.45-4.39.8-6.34l-10,2.65c16.28,13.67,16.26,37.43,30,53,6.64,7.55,16.49,13.19,26.84,11.06,9.72-2,16.83-10.55,20.35-19.38,4.41-11.1,5.29-24.44,6-36.27A225.41,225.41,0,0,0,628.31,720c-1.44-12.17-3.52-24.5-6.1-36.48-2.73-12.62-6.63-25.05-9.85-37.55-12.85-49.85-23.57-102-15-153.54,7.68-46.16,29.42-88.13,56.91-125.53,15.78-21.47,31.86-42.49,50-62a527.77,527.77,0,0,1,59.18-54.55c4.64-3.68-.38-12.11-5.84-10A69,69,0,0,0,740.21,250c-3.4,2.59-7.55,5.59-9.57,9.48-1.85,3.57-.43,8.13,3.64,9.32,2.48.73,4.87-.28,7-1.46,8.06-4.44,15.23-11.18,22.19-17.08,4.49-3.82-.29-12.05-5.84-10-73.08,26.61-133,83.09-166.06,153.25-10.94,23.18-18.09,48.13-22.75,73.29-1,5.37,5.73,10.76,10,5.84,2.75-3.15,3.22-8,3.91-12,.59-3.4,2.31-8.44,1.13-11.87-.83-2.4-3.06-4.55-5.78-4.4-4.11.22-5.63,3.14-6.39,6.58-1.16,5.23-2,10.55-2.9,15.82-1.19,6.88,6.83,10.11,11,4.63,5.69-7.55,8.57-15.87,4.72-24.9-1.86-4.37-8.24-3.44-10.36,0-4,6.44-2.87,13.44-5.32,20.27-2.22,6.2,5.87,9.26,10,5.84,1.38-1.14,3.72-2.62,4.52-4.37,2-4.33-1.35-10.67-6.78-8.81-2.55.87-6,3.37-7.17,5.91-2.85,6.28,4,11.67,9.43,7.27C615,443.1,649,411.13,684.26,380.52l-10-5.84c0,.21.87-1,0,0-.72.8.51-.61,0,0-.22.27-.45.53-.68.78-1.17,1.2-2.35,2.37-3.6,3.48-.6.53-1.2,1-1.82,1.55-.3.25-1.85,1.44-.87.71a8.94,8.94,0,0,0-1.48,1.05c-.11.14-.39.16-.49.3.37-.55,3.81-.47,4.05-.4l4.19,4.19c.15.55-.07,5-1.14,5.15.14,0,.57-.65.7-.77.76-.71,1.47-1.47,2.22-2.18,2.91-2.75,5.93-5.38,9-8L674,376.28a8.74,8.74,0,0,1-7.86,8.39l7.38,7.38c1.52-5.33,7.16-7.7,10.72-11.53L674,376.28c-.11,1.16-.37,2.41-.45,3.58-.14,2.29-2.23,1.57,2-1.48l4.63-.61-.13,0,3.58,2.76c1.2,1.55-.08,2.26.53.25-.18.59.55-.67.12-.23L674,376.28c-5.39,49.59-38.84,95.68-84.42,116a116.82,116.82,0,0,1-40.51,9.84l4.25,10.24c-.66.7-1.8.67-1.22.78a7.52,7.52,0,0,0,1.44-.34,15.76,15.76,0,0,1,2.25-.24c1-.08,2.05-.09,3.08-.12,3.09-.09-.26.19-2-1.52L556,503.6c3.55-7.41,4.47-2.12,2.52-2.4-.66-.1-.16,0-1.18.16-2.72.35-5.47.51-8.2.72l3,11.18a36.48,36.48,0,0,0,3.49-2.45,9.29,9.29,0,0,0,1.75-1.23c1.3-1.76.64,2.17-1.14-.73l3.59-8.82a61.28,61.28,0,0,1-10.72,2.05l5.18,9c2.19-2.94,1.34-.27-1.95-.5l-5.79-4.41c-.41-1.85-.38-3.58,1-3.9l6.77,8.81q9.68-12.69,19.77-25.05c3.19-3.91,6.31-7.91,9.66-11.68A155.75,155.75,0,0,1,596,462.69c15.37-13.95,31.34-27.21,48.93-38.27A317.27,317.27,0,0,1,754.8,381.07c19-3.56,38.19-2.78,54.84,7.93,14.92,9.6,24.7,25.15,32.43,40.74,9.3,18.79,15.55,39.32,22.67,59q2.73,7.56,5.43,15.13c2,5.51,4.69,11.25,5.78,17,1,5.1,1.36,9.84,3,14.83,1.75,5.36,3.48,10.73,5.14,16.12,6.25,20.26,11.56,40.82,14.74,61.8a25.83,25.83,0,0,0,1.37,6.53c.83,1.94,1.46,2.79,1.75,4.89.79,5.71,1.83,11.4,2.69,17.1q2.49,16.64,4.47,33.33a920.81,920.81,0,0,1,6.42,134.75q-1,33.25-4.68,66.34-1.87,16.57-4.5,33c-1.67,10.44-2.94,21-5.23,31.35-4.66,21.08-9.45,42.27-16.93,62.58a241.38,241.38,0,0,1-28.64,54.65c-20.35,29.27-50.3,50.54-82.93,64.2-38.9,16.3-80.57,25.52-122,32.5-10.53,1.77-21.09,3.41-31.66,5l3.19,11.57a281,281,0,0,0,96.21-59.59c11.55-10.93,22.58-22.62,32-35.46,9.29-12.68,17-27.26,18.31-43.16,1.28-15.65-5.49-31-17-41.53-11.26-10.29-25.9-16.1-40.54-19.66-17.14-4.18-35-5.85-52.59-6.84a547.51,547.51,0,0,0-64.18.43,669.07,669.07,0,0,0-140.2,23.12l6.77,8.81c24.65-43.77,69.36-74.18,118.78-82.45,47.3-7.92,96,6.79,132.36,37.78a166.75,166.75,0,0,1,44.86,60.2l8.21-8.21a30.7,30.7,0,0,1-8.55-8.89c-2.08-3.26-2.19-4.58-3.41-7.92.29.79-.14.65.11.53s.21.31-.15.77c.6-.76-5.18,3.58-5,3.55.33-.05-3.37-.41-2.18-.52-.75.07-.64-.78.25.38a12.77,12.77,0,0,1,1,1.27c4,5.86,6.93,12.55,9.75,19l8.21-8.21C691.57,956.4,595.91,943.5,511.74,969a279,279,0,0,0-67.43,30.57l7.28,9.43a3.61,3.61,0,0,1,.93-.9c-1.53.84.45-.3.9-.61,1.67-1.17,3.39-2.26,5.11-3.33s3.22-2,4.85-2.92c.59-.34,1.25-.64,1.81-1,1.3-.89,2.6-.32-1.74.2L457.67,996v0l1.55-5.83c-.14.17,1.52-1,.06-.08-1,.6-1.88,1.25-2.83,1.86-4,2.59-8.08,5.09-12.14,7.6l8.21,8.21c12.1-18,34.68-24.53,55.43-23.32,24.23,1.41,45.44,14.41,60.57,32.88a119.91,119.91,0,0,1,19.15,33.19c5,13.1,9.71,27.31,11.36,41.27,1.52,12.8.33,26.84-9.49,36.21-4.74,4.53-10.68,5.55-16.86,7q-10.92,2.55-21.93,4.66a488.16,488.16,0,0,1-101.34,8.93c-7.73-.14-7.73,11.86,0,12Z" transform="translate(-8.99)"/><path d="M208.33,1.72a533.09,533.09,0,0,0-71,84.88,561.87,561.87,0,0,0-52.21,97.31A575.54,575.54,0,0,0,52.76,288.62c-7.65,36.81-12.23,74.63-12,112.26.15,21.9,1,43.82,3.28,65.6,1.19,11.15,2.75,22.27,4.75,33.3a32.23,32.23,0,0,0,1.45,6.5,12,12,0,0,0,1.34,2.65c.32.42,1,.78.22,0-.22-1.22-.2-.91.08.91l.19,1.07c.8,5,1.45,10,2.31,15a88.41,88.41,0,0,0,4,15.34c1.28,3.53,5.28,5.74,8.81,3.58,3.95-2.42,10-5.21,12.57-9.37,3.36-5.56-2.38-10.68-7.88-9.06-6.29,1.86-14.82,7.43-13.5,14.85.87,4.91,6.89,5.16,10,2.64,2.68-2.14,6.31-3,9.25-4.72s5.51-3.63,8.25-5.42q8.27-5.43,16.66-10.66,17.08-10.62,34.75-20.29a524.52,524.52,0,0,1,73.2-33.43C258.45,452,311,442.4,361.6,453.05a200,200,0,0,1,80.1,37.09V479.78c-2.43,1.69-4.86,3.38-7.37,4.93-.63.39-1.27.73-1.9,1.11-.18.12-.44.17-.61.31a4,4,0,0,1,2.4-.64l3,.82,0,0,2.75,3.58V493c-.61,3-.24.22-.87,1.69-.41,1-.45.43-.11.21a10.11,10.11,0,0,0,1-.88c.24-.21,1.45-1.17.7-.59s.81-.58,1.06-.76c1-.67,2-1.23,3-1.85,1.26-.78-1.06.2.19-.1a2.37,2.37,0,0,1,.46-.11,5.35,5.35,0,0,1-3.66-.49V479.78c-43.89,30.2-102.32,36.85-152.22,18.53a148.86,148.86,0,0,1-39.37-21.8l-1.43,11c2.53-.84,5.09-1.63,7.7-2.22l1.65-.33c.11,0,1.34-.21.66-.13-.4.06,1.16-.06,1.59-.08s.62.06.91,0c.7-.06-1.26-.22-.7-.07,1,.26-.54-.23-.68-.34a5.19,5.19,0,0,1-1.65-1.71,5.54,5.54,0,0,1-.1-4.74c-.24.4,1.15-1.32.14-.32.31-.3,1.07-.67,0-.06a5.77,5.77,0,0,0-.55.29c-.82.54,1-.31.36-.14s-1.05.33-1.57.47c-1.05.29-1.17.11-.53.12-.62,0-1.25,0-1.87,0-.78,0-.07,0,.31.07-.36-.07-.74-.13-1.09-.23s-2.11-.86-1-.27a18.14,18.14,0,0,1-2.15-1.31l-1.43,11a323.18,323.18,0,0,1,182-8.67A318.16,318.16,0,0,1,479.8,495c2.5,1.06,5.22,1.11,7.27-.94a6.08,6.08,0,0,0,.94-7.27c-3.65-5.87-7.52-12.76-12.91-17.26-2.12-1.78-4.66-3.08-7.51-2.31a6.77,6.77,0,0,0-4.87,6.66c0,3.82,2.3,7.61,4.49,10.57A31.88,31.88,0,0,0,479.8,495c2.49,1.07,5.23,1.1,7.27-.94a6.08,6.08,0,0,0,.94-7.27,362.25,362.25,0,0,0-78.07-89A377,377,0,0,0,305.53,337a353.53,353.53,0,0,0-70.1-18.81L233.83,330a297.53,297.53,0,0,1,136.49,41.68,311.61,311.61,0,0,1,94.26,87.18,300.51,300.51,0,0,1,34.48,63.37l4.19-7.38c-4.27,1.24-8.55,2.47-12.87,3.56-1.05.27-2.12.5-3.18.76-.11,0-.92.26-1,.18,1.3-.15,1.67-.2,1.12-.16q-1.63,0,2.75.79l2.15,2.15v0l.6,4.62v0l-1.54,2.65c-.73.91-1.41,1.08-.27.41-2,1.16-.2.11.49-.14,1.77-.64,3.57-1.21,5.38-1.74s3.63-1,5.47-1.4c.36-.07.74-.11,1.09-.21,1-.27-1.68,0-.26,0a5.78,5.78,0,0,1,.82,0q-2-.33-1.14-.15a5.5,5.5,0,0,1-3.19-2.49l3.58-8.81C464.08,526.29,428.12,546,392,564.43c-35.24,18-71.66,35-111,41.46a245.66,245.66,0,0,1-70.76.83c-3.22-.42-6,3-6,6,0,3.58,2.77,5.58,6,6,41.68,5.33,83.35,0,122.72-14.46,38.26-14,73.57-34.52,110.09-52.35,20.52-10,41.51-19.08,63.46-25.5A6.07,6.07,0,0,0,510,517.6c-2.5-4.58-8.33-3.33-12.41-2.36a80,80,0,0,0-10.49,3.24c-1.86.73-3.56,1.34-4.81,3a6.08,6.08,0,0,0,5.07,9.72,27.81,27.81,0,0,0,6.18-1.2c4.32-1.1,8.6-2.33,12.87-3.57,2.87-.83,5.4-4.32,4.2-7.38a320.19,320.19,0,0,0-74.22-111.46,316.5,316.5,0,0,0-114-71.69A310.51,310.51,0,0,0,233.83,318c-6.63-.33-8.33,10.71-1.59,11.79a353.43,353.43,0,0,1,115.21,39.87,361.86,361.86,0,0,1,90.94,71.44,343.64,343.64,0,0,1,39.26,51.71l8.21-8.21a22.31,22.31,0,0,1-2.59-1.29c-.38-.22-.74-.46-1.11-.69-.12-.07-1.5-1.08-.45-.27a32.71,32.71,0,0,1-3.76-3.59c-.26-.29-.5-.59-.75-.9.94,1.14,0,0-.15-.21-.39-.58-.78-1.15-1.14-1.74s-.63-1.2-1-1.79c-.53-.91.4,1.15-.14-.39-.38-1.09-.11-.85-.06.29,0-.69.25-.61-.18,1a5.7,5.7,0,0,1-5.93,3.86c-.31,0-2.37-.71-1-.12-1.28-.56-.38-.27.34.45,3.74,3.79,6.66,8.72,9.7,13.61l8.21-8.21a338.58,338.58,0,0,0-188.63-22,320.39,320.39,0,0,0-51.74,13.36c-5.11,1.78-5.68,7.92-1.44,11,6.67,4.79,19.32,5,24.2-2.69,2.83-4.48.31-9.87-4.7-11.12-5.8-1.44-12.65,1-18.06,2.84s-5.48,7.86-1.44,11c45,34.57,107.68,42,160.94,24.36a170,170,0,0,0,42.77-21.09c3.75-2.58,4-7.82,0-10.36-5.39-3.44-13.55,2.84-17.19,6.58a7.29,7.29,0,0,0-2.41,5.07,6.19,6.19,0,0,0,7.81,5.84c4.24-1.11,8.31-4.71,11.79-7.13,4-2.76,3.68-7.55,0-10.36a208.45,208.45,0,0,0-73.26-36c-25.38-6.66-51.95-8.41-78.06-6.25C241.6,442,189,462,140.61,487.39q-20.43,10.71-40.08,22.82-9.86,6-19.53,12.38c-3.12,2-6.18,4.33-9.41,6.19-4,2.29-8,3.67-11.68,6.6l10,2.65a5.5,5.5,0,0,1-.18,2.91c-.3,1-.11.38,0,.08-.63,1.2-.33.53.32-.15,1-1.06-.7.37.37-.31.55-.34,1.08-.72,1.63-1.06,1-.6,2.06-1,3.06-1.63s-1.1.49-.49.21a2.13,2.13,0,0,1,.58-.21c1.57,0-2.18-.11-2.22-.12l-2.64-1.55,0,0-1.54-2.65c-1-2.76.43-4,1.14-5.15a1.67,1.67,0,0,1-.51.48c-.89.33.71-.51.08,0-.37.27-.73.54-1.11.8-2.39,1.69-4.9,3.23-7.4,4.76L69.94,538c-3.57-9.8-4.62-20.12-6.27-30.35a13.4,13.4,0,0,0-1.89-5.14c0-.06-.55-1-.55-1l.14.69c.22,1.22.2.92-.08-.91-.23-1.39-.53-2.77-.79-4.15Q59,489,57.82,480.67A540.71,540.71,0,0,1,53,416.59a533.43,533.43,0,0,1,1.6-58.9q2.33-26.6,7.16-52.88A576.89,576.89,0,0,1,91.43,200.27a548.87,548.87,0,0,1,48.81-96.16,518.68,518.68,0,0,1,66.81-84.2q4.81-4.92,9.77-9.71c5.56-5.38-2.93-13.86-8.49-8.48Z" transform="translate(-8.99)"/><path d="M218.29,608.59,77.55,594.17l-40-4.1c-5.9-.6-8.21,8.63-3,11.18a973.73,973.73,0,0,0,183.39,68.46q26.81,7,54,12.49l-1.44-11L68.49,763.54,11.9,789.41c-2.68,1.22-3.55,5-2.45,7.49,1.27,2.9,4,4,7.08,3.47l120.22-20.91,60.72-10.55,30.05-5.23c8.26-1.44,16.64-3.54,24.49-3.75,6.15-.16,13.2.63,18.21,3a29.67,29.67,0,0,1,3.43,2c-.11-.09.88.78,1.18,1.06s.39.42.58.63c.63.7-.42-.66.1.11a10.63,10.63,0,0,1,1,1.67c-.42-.95.1.59.18.92.16.68,0-.06,0-.18a7.77,7.77,0,0,1,.05,1.18,4.44,4.44,0,0,1-.19,1.57l1.54-2.65c-7.32,8.42-18.92,9.83-29.42,11.52-11.9,1.92-24,4.21-33.4,12.42-19.36,17-13.28,47.71-1.8,67.29,13.21,22.52,36.73,39.65,41.23,66.68,1.8,10.77.18,22.23-2.2,32.88-2.64,11.8-6.41,23.32-9.72,34.94-3.49,12.28-6.71,25-6.64,37.89a54.7,54.7,0,0,0,12.15,34.74c3,3.75,8.76,1.23,10-2.65a278.68,278.68,0,0,1,60.4-102.59,284,284,0,0,1,24.6-23.47l-10-5.84-74.56,192.45-18.53,47.83c-4.81,12.43-12.06,29.35,0,40.21,9.85,8.88,24.27,4.76,34.76-.61,6.47-3.31,12.4-7.71,18.43-11.74q10.43-7,20.79-14,46.93-31.8,92.88-65c2.62-1.9,3.9-5.22,2.15-8.21a6.07,6.07,0,0,0-8.21-2.15c-12.95,8-8.85,23.66-.09,33.17,4.54,4.92,10.77,9,17.38,10.36,7.64,1.58,15.6,1.22,23.35,1.56,7.51.32,15.67,1.11,21.44,6.46s14.17-3.23,8.49-8.49c-7-6.44-15.67-8.82-24.92-9.65-8.29-.76-17,.22-25.17-1.45a23.56,23.56,0,0,1-14.66-10.68,14.47,14.47,0,0,1-1.7-3.47,7,7,0,0,1-.62-3.26c0-.39,0-.77.05-1.16-.08.64-.05.61.09-.1.06-.24.61-1.62.21-.69.54-1.25.85-1.4,2.21-2.24l-6.06-10.36q-39.17,28.29-79.06,55.58-19.69,13.48-39.57,26.7c-5.37,3.58-10.69,7.43-16.67,9.95-4.29,1.82-9.77,3.43-14,2.36-12-3-3.23-21.37-.36-28.79l17.87-46.12,35.51-91.67,40.15-103.63c.94-2.44-.63-5.53-2.76-6.77a6.23,6.23,0,0,0-7.27.94,289.67,289.67,0,0,0-75,98.29,295.2,295.2,0,0,0-13.06,33.06l10-2.65c-10.6-13.14-9.71-30.14-6.29-45.89,4-18.52,11-36.26,14.6-54.89,1.79-9.34,2.9-19,2-28.47a73.32,73.32,0,0,0-9.72-29.71c-10.63-18.43-27.78-32.66-36.81-52-6.71-14.43-10.07-35.79,3.87-47,6.93-5.56,16.52-7,25-8.38,9.19-1.51,18.52-2.79,26.94-7.06,4-2,8.85-5.2,11.17-9.16s1.3-10-.54-13.92c-3.48-7.36-11.77-11.26-19.3-13.05-9.49-2.26-18.77-1.69-28.28,0l-40.88,7.11L33.78,785.25,13.34,788.8l4.62,11,201.93-92.31,56.59-25.87c4.63-2.11,3.43-10-1.43-11A961.35,961.35,0,0,1,90.4,613.72Q65.14,603,40.53,590.89l-3,11.18,140.74,14.42,40,4.1c3.23.34,6-3,6-6,0-3.51-2.76-5.66-6-6Z" transform="translate(-8.99)"/><path d="M196.66,12.33l189.28,203L390.19,205a660.18,660.18,0,0,1-236.74-35.81l1.44,11A1294.3,1294.3,0,0,1,416.54,63.76q38.54-12.24,77.8-22L487,34.33,448.5,252.77c-1,5.81,5.38,10.07,10,5.83L661.62,73,719.9,19.75l-10.25-4.24a490.25,490.25,0,0,0,28.88,171.54q7.26,20.08,16.21,39.5c5.18,11.21,10.15,24,18.79,33.12,7.44,7.81,18.58,10.62,28.27,5.16,10.18-5.75,15.4-17.4,20.42-27.35Q847,188.4,871.76,139.31l-11-1.43,21.93,160.6c1.83,13.39,3.61,26.78,5.49,40.16,1.29,9.18,3,18.8,8.45,26.55,10,14.2,26.92,13.82,41.91,9.17,8.24-2.56,16.17-6.07,24.52-8.28,6.88-1.82,14.44-2.78,20.11,2.4l-1.54-5.84A388.81,388.81,0,0,1,905.34,541a383.28,383.28,0,0,1-37.16,41.34c-3,2.93-1.79,7.2,1.22,9.43,11.09,8.21,6.15,23.79,2.46,34.62-4.92,14.41-12.1,28.27-14.09,43.52-4.43,33.93,15,65.53,32.93,92.64,19.5,29.55,37.88,59.48,53.44,91.32a695,695,0,0,1,64.59,215.48l9-5.18L848.58,949.39c-5-3.37-11.4,3.28-8.21,8.21,39.12,60.6,33.93,143-6.25,201.82a163.48,163.48,0,0,1-42.1,42.39c-6.32,4.35-.33,14.75,6.06,10.36,63.39-43.61,92.43-126.58,77-201.06a176.19,176.19,0,0,0-24.31-59.57l-8.21,8.21,169.18,114.76c3.49,2.36,9.61-.71,9-5.18A711,711,0,0,0,961.26,862a700.16,700.16,0,0,0-53.33-95.24c-18.6-27.91-44.06-61.75-38-97.45,4.51-26.7,35.27-66,5.55-88l1.22,9.42a399.11,399.11,0,0,0,112-200.12q1.56-7.12,2.85-14.31c.71-3.93,2.79-9.8,1.75-13.74-1.47-5.56-10.33-8.77-15.32-9.61-13-2.18-26,4.11-38,8.25-11.72,4.05-27.12,8.49-34.63-4.84-4.31-7.67-5-17.18-6.17-25.72l-4.84-35.43-21.93-160.6c-.7-5.13-8.79-5.76-11-1.43q-19.65,38.94-39.31,77.89c-5.9,11.69-11,24.46-18.42,35.3-6.09,8.92-14.86,12.81-22.75,3.51-7.47-8.8-12-21.05-16.72-31.44Q755.77,200,749,180.8a485,485,0,0,1-20.14-76.36,476.68,476.68,0,0,1-7.22-88.93c.06-5.39-6.5-7.66-10.24-4.24L508.32,196.86,450,250.12l10,5.84L498.53,37.52c.79-4.46-2.65-8.57-7.38-7.38A1309.41,1309.41,0,0,0,220.82,130.67q-36.6,18.44-72,39.17c-4.67,2.73-3.32,9.32,1.43,11A669.92,669.92,0,0,0,390.19,217a6.07,6.07,0,0,0,4.24-10.24L205.14,3.84c-5.27-5.66-13.75,2.84-8.48,8.49Z" transform="translate(-8.99)"/></g></g></svg>