<svg xmlns="http://www.w3.org/2000/svg" viewBox="0 0 722.94 1211.58"><g id="Layer_2" data-name="Layer 2"><g id="Layer_1-2" data-name="Layer 1"><path d="M205.65,1.3C194,12.66,180,21.12,168.64,32.78c-10.49,10.76-19.86,22.54-28.83,34.58C121,92.55,106,120.74,93.38,149.44c-25.55,58-40.76,119.68-55.74,181.05-16.11,66-30,132.87-35.37,200.73a671.48,671.48,0,0,0-.53,103.25C4.1,665.54,7,696.62,9.9,727.64c6,63,14.85,125.81,32.08,186.84,4.43,15.69,9.05,31.37,15.5,46.36,6.7,15.58,13.86,31.12,21.07,46.46a313.77,313.77,0,0,0,21.78,39.37c8.35,12.65,17.6,26.37,28.36,37,2.78,2.75,4.85,6,7.47,8.85,2.28,2.5,5.06,4.1,7.2,6.78a28.15,28.15,0,0,0,4.84,4.62c1.61,1.31,2.32,2.72,3.63,4.26a52.6,52.6,0,0,0,6.12,5.51c11.61,9.86,23.47,19.22,36,27.88a424.52,424.52,0,0,0,78,42.67c53.58,22.31,112.47,32.4,170.26,24.8,31-4.08,59.67-13.74,88-26.84,14.54-6.73,28.91-13.62,42.18-22.67a252.34,252.34,0,0,0,34.83-29.19c43.56-43,72.67-98.31,89.79-156.64,17.87-60.92,23.33-125,25.31-188.23,2.11-67.73-1.11-135.4-5.18-203-2-33.52-4.45-67-8.73-100.36-1-7.8-2.54-15.61-3.1-23.44-.58-8.09-.78-15.63-2.27-23.6-2.9-15.58-3.41-31.42-5.8-47.12-5.09-33.6-9.93-67.63-17.84-100.71-1.87-7.84-3.66-15.61-5-23.56a62.45,62.45,0,0,0-2.63-9.21c-1.34-4.12-1.65-8.5-2.38-12.76-2.88-16.79-8.45-32.93-11.5-49.63-2.53-13.84-7.84-27.51-13.22-40.47a204.17,204.17,0,0,0-18.91-36C609.77,92,588.23,72.53,563.94,57.87,515.64,28.74,457.15,18.6,401.59,27.16,298.49,43,204.27,105,151.25,195.19c-3.35,5.68-6.15,11.7-9.53,17.35s-7.44,10.2-10.14,16.22c-2.62,5.83-4.65,11.92-7.6,17.59-1.41,2.71-3.34,5-4.9,7.55-2.29,3.78-3.37,8.41-4.81,12.6-10.75,31.32-21,62.77-27.69,95.24-3.33,16.11-5.6,32.55-5.35,49,.19,12.77-.32,25.14,1.42,37.88,3.2,23.36,10.52,47,24.1,66.47,12.3,17.66,29.6,30.93,50.8,35.74a4.62,4.62,0,0,0,5.53-3.15c11.47-33,25.41-65.13,44.95-94.16,8.78-13.05,18.19-26.41,29.15-37.65,5.76-5.9,12.25-11.59,18.38-17.12,5.68-5.12,11.79-9.81,19.66-10.44,15.58-1.25,25.17,10.6,27.8,24.77,2.93,15.87-2.48,33.36-7.35,48.42-10.09,31.19-32.39,67.3-68.89,68.72-18,.7-30.21-11.06-34.2-27.85-4.12-17.31.17-34.31,9.71-49.14,1.74-2.7,4.18-5.2,5.51-8.11a34.24,34.24,0,0,1,4.68-8.16,92.88,92.88,0,0,1,16.87-16.75c12.41-9.2,27.9-13.91,43-8.88S298.8,429,308.1,441.48c9.61,12.9,18.73,26.28,29.81,38C358.33,501,386.28,513.41,416.24,510c33.81-3.89,61.84-28.05,76.94-57.59,1.64-3.22,1.8-6.11,2.59-9.52,1.06-4.58,3.07-9,4.11-13.59a105.24,105.24,0,0,0,2.49-26.89,109.56,109.56,0,0,0-14.43-50.23v4.54c7.65-12.06,29-13.76,41.72-11.61a54.83,54.83,0,0,1,36.65,24c19.81,30.49,8.09,69.82-13.61,95.73-16.15,19.29-41,34.42-67.06,27.87-35.31-8.89-33.91-51.88-24-79.55,5.74-16.07,13.1-30.59,27.2-41.09,15.07-11.21,34.68-18.32,52-8,16.34,9.75,21.11,29.61,26.13,46.7,5.63,19.12,9.87,38.63,16.11,57.57,1.44,4.38,3,8.75,4.66,13,1.87,4.68,4.35,9.31,4.5,14.45.34,10.88-6.1,16.79-15.7,19.64-18.48,5.48-37.88,4.53-57,4.45-19.88-.09-39.75-.61-59.63-.75-10.22-.08-20.43,0-30.64.17-9,.2-19.66-.87-28.25,1.73-7.3,2.2-14.13,3.67-19.44,9.57-4.79,5.32-7.66,12-10.13,18.62a568.37,568.37,0,0,0-17.32,56.36,513.07,513.07,0,0,0-11.84,58.47c-2.71,19.9-4.66,39.9-6.46,59.9-.9,10-1.78,20.07-2.71,30.1-.46,5.08,7.66,6.07,8.84,1.2,1.92-7.95,2.22-16.11,2.21-24.25,0-4.89-8.1-6.35-8.84-1.19-1.15,8-1.58,16.14-2.21,24.24-.37,4.92,6,5.48,8.39,2.27,3.64-4.94,14.38-22,3.75-25.47-11.29-3.66-11.74,16.85-12.14,23.2-.29,4.75,6.09,5.71,8.39,2.27,2-2.93,8.12-9.38,7.74-13.56-.33-3.61-3.52-5.32-6.77-3.88-3.58,1.58-8.57,10.28-9.2,14-.83,5,5.28,7.89,8.23,3.47,20.94-31.37,36.63-65.79,48.11-101.67l-8.84-1.19a272.66,272.66,0,0,0,5.36,87.18c.69,3.05,5.44,4.68,7.52,2,31.53-40.77,41.68-96.09,27.65-145.61-1.6-5.65-9.7-3.23-8.68,2.4,1.23,6.71,2.24,13.45,4,20,1.28,4.73,9.45,4,8.84-1.2a158.64,158.64,0,0,0-4.17-21.25c-1.46-5.67-9.74-3.23-8.68,2.4,8.72,46.13,6.91,93.61-2.54,139.48-1.16,5.65,7.51,8.07,8.68,2.39,9.79-47.53,11.57-96.47,2.54-144.27l-8.68,2.4a140.91,140.91,0,0,1,3.85,18.85l8.84-1.19c-1.77-6.6-2.78-13.34-4-20.06l-8.68,2.4c13.08,46.14,4.17,98.69-25.33,136.84l7.52,2a265,265,0,0,1-5-84.79c.53-5.24-7.36-5.82-8.84-1.2-11.25,35.17-26.68,68.77-47.2,99.52l8.22,3.47c.22-1.31,1.79-3.49,2.82-5,.67-1,1.44-2,2.08-3,.52-.83,1.26-1,.16-.54l-6.77-3.89c-.24-2.63.89-1.81-.13-.79a10.7,10.7,0,0,0-1.23,2c-1.66,2.65-3.41,5.24-5.15,7.84l8.38,2.27c.32-5.06-.14-11.55,3.25-15.74l-3.18,1.32c-2.36.3-.42-1.91-2.28.39-1,1.17-1.29,3.28-1.93,4.64a40.92,40.92,0,0,1-4.24,7.12l8.38,2.27c.56-7.29.85-14.61,1.89-21.85l-8.84-1.2c0,7.35-.15,14.68-1.89,21.85l8.84,1.2c4.23-45.83,7.41-91.64,18.3-136.49a626.35,626.35,0,0,1,18.93-63.78c2.84-7.92,6.52-18.26,15.15-21.51,10.37-3.91,21.54-3.65,32.47-3.92,22.58-.55,45.17-.09,67.75.25,11.31.18,22.62.32,33.93.29,10.91,0,22.18.39,33-1,8.42-1.05,17.42-3.09,25.11-6.78,8.32-4,12.31-10.84,14-19.79,1.87-10.12-3-18.63-6.37-27.83-3.88-10.67-7-21.6-9.92-32.57-5.7-21.36-10.21-44.22-20-64.19-7.35-15-22.6-25.68-39.24-26.78-18.6-1.24-37.38,9.61-50.2,22.48-13.24,13.29-20.24,29.86-25,47.76-4.91,18.3-6.09,40.3,2.95,57.55A47.06,47.06,0,0,0,482,501c27.93,7.84,56.34-6.43,74.62-27,24.33-27.4,37.78-66.71,21.74-101.75-13.82-30.16-48.93-43.65-79.9-33.32-7.43,2.48-14,6.47-18.29,13.18a4.5,4.5,0,0,0,0,4.54,100,100,0,0,1,13.25,51.61,94.5,94.5,0,0,1-4.63,27.35c-1.08,3.33-1.48,6.57-2.39,9.87-1.13,4.06-4.4,7.43-6.3,11.13-7.53,14.68-22.13,27.58-36.52,35.51a78.64,78.64,0,0,1-47.95,8.72c-37.44-4.93-58.32-35-79.17-63.14-9.33-12.57-19.84-24.85-34.14-31.9a51.8,51.8,0,0,0-44-1c-14.39,6.12-25.8,17.3-35.12,29.62-2.15,2.85-2.89,5.7-4.64,8.61-2.42,4-5.34,7.6-7.56,11.76a77.59,77.59,0,0,0-8.41,24.75c-2.18,14.48.27,32,9.52,43.8,10.73,13.7,26.69,17.74,43.36,15,35.29-5.88,57.27-40.14,68-71.61,8.75-25.68,20.08-71.08-13-84.75-13-5.35-26-1.9-36.63,6.57-7.3,5.81-13.47,12.87-20.52,19-3.15,2.72-5.37,6.1-8.35,9a48.5,48.5,0,0,0-7.3,8.48c-4.82,7.41-10.58,14.18-15.6,21.47-5.15,7.47-9.95,15.19-14.42,23.08a407.62,407.62,0,0,0-23.49,49.64c-3.46,8.66-6.66,17.41-9.73,26.21l5.54-3.14c-47.44-10.76-66.89-64-69.71-107.51-.38-5.81.57-11.39.24-17.17a175.42,175.42,0,0,1,.39-24.37c1.36-16.33,4.9-32.4,8.81-48.28,3.81-15.51,8.31-30.78,13.22-46q3.84-11.83,7.87-23.6c2.42-7.08,4.36-13.74,8.44-20,6.66-10.19,8.67-22.87,16.07-32.62,7.85-10.33,13.25-22.62,20.29-33.62A333,333,0,0,1,213.84,130,346.86,346.86,0,0,1,341.37,51.42C392.21,33.73,447,27.1,499.7,40.64c54.33,14,104,48.33,129.57,99a269.26,269.26,0,0,1,15.22,37.71,144,144,0,0,1,5.28,21.54c1.27,7.74,4.14,15.4,6.06,23,1.85,7.35,3.52,14.75,4.8,22.22.63,3.65.84,7.42,1.8,11,1.1,4.14,2.72,7.75,3.38,12.05,2.45,16,7,31.66,10,47.53,3.15,16.52,6,33.09,8.67,49.69,2.49,15.44,6.17,31.39,6.43,47,.13,7.23,1.89,14.47,2.78,21.65.5,4,1.72,7.87,2.07,11.87.37,4.22.21,8.47.45,12.7.89,15.63,4.13,31.3,5.78,46.89,6.92,65.17,10.12,131.13,11.53,196.63,1.38,64.29.21,129.23-8.84,193-8.28,58.35-24.61,116.24-55,167.13a322.23,322.23,0,0,1-56.41,69.93c-23.16,21.69-50.21,35.8-79.07,48.4-110.66,48.3-235.32,14.37-328.79-55.16-6-4.47-11.78-9.17-17.49-14-5.36-4.56-9.82-10-15.19-14.25-2.25-1.79-3.63-4.33-5.75-6.26a73.89,73.89,0,0,1-8.16-8.43c-4.82-6-10.13-11.39-14.88-17.49a309.45,309.45,0,0,1-25.62-38c-7.58-13.44-13.54-27.49-20-41.47-6.8-14.7-14.18-29.14-19.22-44.58q-7.7-23.6-13.75-47.68a896.08,896.08,0,0,1-18-91.69c-4.31-29.63-7.33-59.43-10-89.25-2.7-30.18-6-60.45-7.55-90.71-3.53-67,4.22-134,16.93-199.71,6.3-32.56,13.79-64.87,21.74-97.06,7.54-30.5,15.09-61,24.12-91.13,17.17-57.23,40.1-114.45,76.21-162.55,8.94-11.91,18.38-23.61,29.07-34S201.39,18.06,212,7.66c4.15-4.05-2.22-10.42-6.36-6.36Z"/><path d="M380.52,869.3q7.94-7.89,16.37-15.28,4.25-3.72,8.63-7.32c1.43-1.17,2.87-2.34,4.32-3.49l2.1-1.66,1.14-.88.49-.38.23-.18A370.19,370.19,0,0,1,451.08,815a382.78,382.78,0,0,1,40.31-20.68q2.55-1.12,5.13-2.22c.48-.2,0,0-.12.06l.76-.32,1.15-.48,2.68-1.1q5.28-2.15,10.62-4.13,10.57-3.93,21.37-7.24a384,384,0,0,1,43.95-10.71l5.49-1L580,758.52a30.46,30.46,0,0,1-4.89,1.33c-.32,0-.29,0,.1,0l-.44,0q-.66.08-1.32.12c-.88.07-1.76.09-2.64.11L572,769a45.35,45.35,0,0,1,5.16-1.05l1.18-.17h0l.47-.06,3.57-.49L579,759c-3.47,1.63-6.31,4.25-9.4,6.47-.76.54-1.53,1.06-2.34,1.54l-1.13.62-.58.28c-.92.45.6-.16,0,0a8.21,8.21,0,0,1-2.63.7c.26,0,.83-.07.22-.06l-.67,0a11.31,11.31,0,0,1-1.74-.12l3.89,6.78a13.19,13.19,0,0,1,.75-1.32c.12-.18.26-.36.37-.54.3-.49-.52.52-.1.15s.64-.72,1-1.05l.47-.42c.74-.7-.53.33,0,0a26,26,0,0,1,2.31-1.42l.58-.29s1-.47.35-.18.1,0,.22-.08l.77-.28a74.35,74.35,0,0,1,11.14-2.57L579,759c-2.52,1.6-5,3.32-7.46,4.95-1.22.79-2.46,1.55-3.74,2.25-.63.36-1.28.69-1.93,1l-1,.46c-.85.39.43-.16-.54.22l4.38,7.52c1-1,2.07-1.92,3.16-2.82-.62.51.45-.33.47-.35l.72-.5c.66-.46,1.33-.9,2-1.31,1.25-.76,2.54-1.39,3.85-2,.7-.34-.94.35.32-.13l1-.37c.73-.26,1.46-.48,2.21-.68L579,759q-25.1,15.43-49.69,31.69t-48.46,33q-24,16.79-47.59,34.12t-47.07,35.18q-23.56,17.91-46.89,36.13l-5.79,4.52c-1.76,1.38-1.57,4.32-.35,5.91a4.48,4.48,0,0,0,5.81,1.16c7-4.52,14.64-8.19,20.45-14.29a4.6,4.6,0,0,0,.71-5.46c-1-1.53-3.22-2.84-5.08-2.07-8.21,3.43-14.67,9.26-21.54,14.75l6.37,6.37c.45-.57-.17,0-.3.11.79-.49-.72.11-.13,0,.4-.06.84-.23,1.23-.33a10.69,10.69,0,0,0,3.45-1.43c2.24-1.52,4.47-3.07,6.68-4.63,4.2-3,8.38-6,12.71-8.8,2-1.31,4.13-2.57,6.26-3.73,1.06-.58,2.14-1.14,3.23-1.67l1.75-.82.79-.35c.86-.38-.46.17.51-.21a50.18,50.18,0,0,0,7.52-3.37,64,64,0,0,0,5.68-3.88c2.16-1.63,4.89-2.57,7.34-3.71l7.56-3.46q7.65-3.5,15.31-6.94,15-6.72,30-13.29t29.89-13l15.19-6.58c4.86-2.1,9.57-4.13,13.89-7.25.86-.62,1.68-1.33,2.56-1.91a32.73,32.73,0,0,1,3.81-1.86q3.72-1.82,7.4-3.7c4.85-2.49,9.65-5.09,14.4-7.75,9.3-5.21,18.44-10.69,27.57-16.19,4.5-2.71,9-5.42,13.51-8.11,2.35-1.4,4.7-2.79,7.07-4.18,1-.61,2.15-1.16,3.15-1.83a10.63,10.63,0,0,0,3.13-4,15.27,15.27,0,0,0,.3-13.79c-1.67-3.7-4.62-6.78-7.3-9.78-.61-.69-1.22-1.37-1.81-2.07-.3-.35-.59-.7-.88-1.06,0,0-.72-.9-.28-.34s-.23-.32-.26-.35c-1.39-1.89-4-3-6.15-1.61-1.87,1.2-3.11,4.13-1.62,6.15,1.62,2.2,3.4,4.25,5.21,6.29.8.89,1.59,1.78,2.35,2.69l.63.78c.54.65-.31-.46,0,0s.69,1,1,1.44.55.88.79,1.33c.15.27.27.54.41.81.38.73-.19-.64,0-.11s.35,1,.47,1.53c0,.17.2,1,.07.26s0,.1,0,.28,0,.59,0,.89c0,.82.18-.68,0-.14s-.28,1.15-.44,1.72c-.23.8.25-.43,0,0-.15.28-.27.56-.42.83a18.42,18.42,0,0,1-1.33,2.05l1.61-1.61c-16,9.25-31.61,19.12-47.67,28.26-8.2,4.67-16.52,9.15-25,13.29l-3.22,1.55a14.75,14.75,0,0,0-2.5,1.64,57.93,57.93,0,0,1-5.08,3.43c-4.09,2.42-8.64,4.07-13,6C469.44,865,452,872.53,434.65,880.19q-13.06,5.76-26.08,11.63-6.72,3-13.44,6.13L388.42,901a19.15,19.15,0,0,0-3,1.49c-.82.57-1.6,1.21-2.42,1.79a50.18,50.18,0,0,1-5.13,3.29c-.53.29-1.06.6-1.61.85.57-.26-.63.2-.8.26-1.25.46-2.48,1-3.7,1.49a82.75,82.75,0,0,0-11.55,6.11c-3.77,2.36-7.41,4.93-11,7.5l-5.57,3.95-2.69,1.85c-.52.35-1,.72-1.56,1.06a1.76,1.76,0,0,0-.38.24c-.18.27.76-.19.06,0-2,.39-4.26,1.09-5.56,2.71-1.46,1.84-1.93,4.6,0,6.37s4.4,1.57,6.37,0c1.55-1.25,3.08-2.52,4.62-3.78.66-.55,1.32-1.09,2-1.62l1.34-1.07c-.59.47.33-.25.45-.34,1.47-1.11,3-2.17,4.55-3.14.85-.53,1.71-1,2.59-1.49.37-.2.75-.39,1.14-.58.14-.06,1.67-.75.88-.42L353,920c-.68.71-1.38,1.4-2.11,2-.41.38-.84.74-1.27,1.09-.13.11-1.08.85-.4.33-1.55,1.19-3.18,2.27-4.83,3.31-3.31,2.08-6.74,4-10,6.11l5.46,7.07c15.53-12.15,30.13-23.45,45.76-35.37S416.7,881,432.41,869.45s31.41-22.91,47.3-34.1,32.08-22.3,48.35-33.11,32.74-21.43,49.36-31.75l6.07-3.75c4.32-2.65,1.54-9.55-3.46-8.22A40.4,40.4,0,0,0,562.31,769a4.55,4.55,0,0,0-.71,5.45c1,1.56,3.2,2.8,5.09,2.07,6.14-2.4,11.28-6.3,16.8-9.8a4.5,4.5,0,0,0-3.46-8.22c-8.69,1.63-18.75,3.41-23.19,12.11a4.64,4.64,0,0,0,0,4.55,4.72,4.72,0,0,0,3.88,2.22c4.61.59,9.1-1.23,12.83-3.81,3.31-2.29,6.27-5.12,9.94-6.85,2-1,2.65-3.72,1.85-5.62-.94-2.23-3.05-2.93-5.31-2.6l-.7.1-1.19.15-3.33.46a45.35,45.35,0,0,0-5.16,1c-4.87,1.31-3.93,8.92,1.19,8.84a32.8,32.8,0,0,0,11.58-1.93c2.18-.86,4-3.05,3.14-5.53a4.62,4.62,0,0,0-5.53-3.14,380.9,380.9,0,0,0-44.28,10.12,395.65,395.65,0,0,0-43.58,15.58,386.33,386.33,0,0,0-40.8,20.17,374,374,0,0,0-38,24.84,363.55,363.55,0,0,0-35.26,29.83c-1.33,1.28-2.64,2.57-3.95,3.88a4.5,4.5,0,0,0,6.36,6.36Z"/><path d="M384.11,853.25c-17.83,14.84-31.76,33.81-43.05,54-11.63,20.76-20.88,42.88-29.45,65A535,535,0,0,0,289,1044c-5.66,24.33-9.22,49.3-9.25,74.3,0,24.57,3.43,49.28,11.38,72.57,1,2.86,2,5.7,3.13,8.52.88,2.26,3,3.84,5.53,3.15,2.16-.6,4-3.26,3.15-5.54a210,210,0,0,1-14-70c-.8-24.14,1.92-48.27,6.86-71.88a501.36,501.36,0,0,1,21.14-71.58c8.1-21.85,16.93-43.4,27.74-64.07,10.44-20,23-38.87,39.48-54.29,2.06-1.92,4.18-3.78,6.34-5.58,1.87-1.55,1.61-4.75,0-6.36a4.59,4.59,0,0,0-6.36,0Z"/></g></g></svg>