<svg xmlns="http://www.w3.org/2000/svg" viewBox="0 0 476.06 53.4"><defs><style>.cls-1{opacity:0.5;}.cls-2{fill:#6c62b5;}.cls-3{opacity:0.38;}.cls-4{fill:#006837;}.cls-5{fill:#fff;}.cls-6{fill:#6c9c83;}.cls-7{opacity:0.53;}</style></defs><g id="Layer_2" data-name="Layer 2"><g id="Layer_1-2" data-name="Layer 1"><g class="cls-1"><path class="cls-2" d="M112.08,25.09q-24.31-4.15-48.92-6.31-11.88-1-23.8-1.57c-4-.19-7.95-.32-11.93-.42-3.74-.1-7.54-.33-11.27-.1C12,16.94,7.73,18,4.82,21.18S.51,29,2.22,33.08C5.75,41.46,15.6,40,23,39.78Q47.07,39,71.14,38.2c32.45-1.18,64.9-2.68,97.28-5.06,16.1-1.19,32.17-2.76,48.29-3.63a430.88,430.88,0,0,1,48.35.35c16.09.95,32.16,2.13,48.28,2.35s32.12-.26,48.13-1.44q6-.45,11.9-1l-5.78-4.41.19.46c.17.69.19.63.06-.16v.48c.13-.7.14-.83,0-.38s-.58,1.22,0,.2c-.12.21-1.07,1.42-.22.47-.23.26-.48.49-.72.74.84-.86-.17.08-.45.24-1.11.62-.51.21-.27.13a13.23,13.23,0,0,1-2.41.58c.91-.13-.13,0-.26,0-.63,0-1.26.07-1.89.08-1.09,0-2.17,0-3.25,0l-8.06-.09q-15.74-.15-31.47-.17-31.49,0-63,.29c-41.85.37-83.7.91-125.55.75-10.72-.05-21.56.28-32.26-.49-1.1-.08-2.2-.18-3.3-.31-.3,0-1.51-.21-.31,0q-.95-.14-1.89-.3a43.53,43.53,0,0,1-6.24-1.58l-1.24-.44c-.64-.26-.65-.26,0,0l-.71-.32A27.69,27.69,0,0,1,81.69,24c-.37-.23-.72-.48-1.08-.71-.55-.41-.56-.4,0,0l-.59-.5a24.14,24.14,0,0,1-2.42-2.43L73.33,30.59Q121.15,32,169,29.47q13.48-.72,27-1.76l-1.6-11.78c-5.73.89-11.77,1.56-18,2s-12.4.74-18.61.84c-12.58.22-25.16-.21-37.72-.87-7.18-.38-14.36-.83-21.53-1.29v12c28.26.89,56.54,1.26,84.81,1.32s56.32-.2,84.48-.57q23.94-.3,47.9-.7a6,6,0,0,0,5.89-5.2c.36-2.65-1.34-6.14-4.3-6.58a173.82,173.82,0,0,0-19.34-1.84v12q38.61.08,77.21,1.32l-6-6-.73,12.53,6-6a204,204,0,0,1-26.4.33,186.85,186.85,0,0,1-25.33-3.05c-3.08-.58-6.62.85-7.38,4.19-.68,3,.89,6.76,4.19,7.38a209.88,209.88,0,0,0,54.92,3.15,6.16,6.16,0,0,0,6-6l.73-12.53c.2-3.31-2.9-5.9-6-6q-38.6-1.24-77.21-1.32a6,6,0,0,0,0,12q4.27.15,8.54.52c2.64.24,5.5.58,7.61.89l1.6-11.79c-28.28.44-56.56.87-84.84,1.11s-56.31.26-84.47-.11q-23.94-.32-47.88-1.05a6,6,0,0,0-6,6,6.13,6.13,0,0,0,6,6c25.43,1.62,51,3.24,76.43,1.42q11.35-.81,22.6-2.57c2.94-.46,4.66-3.93,4.3-6.58s-2.91-5.44-5.89-5.21q-47.7,3.67-95.58,3.38-13.5-.09-27-.5a6,6,0,0,0-5.48,3.69,6.12,6.12,0,0,0,1.24,6.56c5.76,6.62,14.29,9.74,22.77,10.93,9.71,1.36,19.59,1.06,29.37,1.13,22,.14,43.93.07,65.89-.08,43.68-.31,87.35-1,131-.91q18.32,0,36.61.22c6,.07,12.35.59,17.79-2.37,5.22-2.84,9-9.76,6.61-15.6-.92-2.28-3-4.67-5.79-4.4a587.66,587.66,0,0,1-92.68,1.08c-15.5-1-31-2.09-46.54-1.92s-31,1.43-46.47,2.7c-31,2.55-62.1,4.36-93.21,5.67q-23.32,1-46.68,1.71l-23.34.74c-3.59.11-7.18.24-10.76.26-1.11,0-.19,0,.08.07-.32-.06-.65-.16-1-.2-.47-.07-.7-.49.1.1-.31-.23-.69-.62.08.14.22.22.47,1,.09.07a3.91,3.91,0,0,1,.34.88c0,.19.06,1.51,0,.76a4.22,4.22,0,0,1,.21-.69l-.2.54c0-.54.39-.51-.08,0A5.79,5.79,0,0,1,14,29c-.46.37-.68.27.09.08-.24.06-1,.27.18,0l1.13-.27c-.11,0-.87.09-.15,0a23.85,23.85,0,0,1,2.67-.12c3.76,0,7.54.09,11.3.19q11.57.33,23.11,1.11c15.21,1,30.47,2.68,45.12,4.88q5.72.87,11.42,1.84c3.08.52,6.61-.82,7.38-4.19.66-2.91-.88-6.82-4.19-7.38Z"/></g><path d="M378.72,18.89A39.16,39.16,0,0,1,402.09,7.35c1.9-.22,1.92-3.22,0-3A42.38,42.38,0,0,0,376.6,16.77c-1.35,1.38.76,3.5,2.12,2.12Z"/><path d="M382.66,12.36A56.93,56.93,0,0,1,418,6.76c.47.08.68-.64.2-.72a57.72,57.72,0,0,0-35.94,5.67c-.43.23-.05.87.37.65Z"/><path d="M395.62,10.36A31.86,31.86,0,0,1,422,8.94c1.79.71,2.57-2.19.79-2.89A34.7,34.7,0,0,0,394.1,7.77c-1.71.9-.19,3.49,1.52,2.59Z"/><path d="M415.15,4.72a22.47,22.47,0,0,0-19.1.06,1.51,1.51,0,0,0-.54,2.05,1.55,1.55,0,0,0,2.06.54,19.21,19.21,0,0,1,16.06-.06,1.53,1.53,0,0,0,2.05-.54,1.51,1.51,0,0,0-.53-2Z"/><path d="M377.06,17.9l33.06,1.25c1.93.07,1.92-2.93,0-3L377.06,14.9c-1.94-.07-1.93,2.93,0,3Z"/><path d="M380.48,18.25A82.7,82.7,0,0,0,408.09,21c1.92-.14,1.93-3.14,0-3a80.29,80.29,0,0,1-26.81-2.61,1.5,1.5,0,0,0-.8,2.89Z"/><path d="M378.55,21.92a221.24,221.24,0,0,0,43,2.75c1,0,1-1.53,0-1.5A218.74,218.74,0,0,1,379,20.47c-.95-.15-1.35,1.29-.4,1.45Z"/><path d="M378.4,33.63a70.37,70.37,0,0,0,44.18,4.2,69.82,69.82,0,0,0,12.21-4.1c1.77-.78.24-3.36-1.51-2.59a66.94,66.94,0,0,1-53.36-.1c-1.75-.77-3.28,1.81-1.52,2.59Z"/><path d="M380.13,34.83A104.22,104.22,0,0,0,429,44.52a103.31,103.31,0,0,0,14.13-1.65c1.9-.35,1.1-3.24-.79-2.89a101,101,0,0,1-47.72-2.76,98.69,98.69,0,0,1-13-5c-1.74-.81-3.27,1.78-1.52,2.59Z"/><path d="M384.31,23.8a100.42,100.42,0,0,0,43.49,1.94c1.9-.33,1.09-3.23-.8-2.9a96.83,96.83,0,0,1-41.89-1.93,1.5,1.5,0,0,0-.8,2.89Z"/><path d="M396.65,14.62l40.84,1.55c1.93.07,1.92-2.93,0-3l-40.84-1.55c-1.93-.07-1.93,2.93,0,3Z"/><path d="M396.5,18.63,433.45,20c1.94.07,1.93-2.93,0-3l-36.95-1.4c-1.93-.07-1.92,2.93,0,3Z"/><path d="M385,26.33A45.6,45.6,0,0,0,423.82,38.6a42.45,42.45,0,0,0,11.38-3.52c1.75-.82.23-3.4-1.51-2.59-11.85,5.53-26.18,4.69-37.58-1.57a40.49,40.49,0,0,1-9-6.71c-1.37-1.36-3.5.76-2.12,2.12Z"/><path d="M380.88,40.28A87.76,87.76,0,0,0,438.2,52.65,90.35,90.35,0,0,0,455,48.7c.91-.31.52-1.75-.39-1.44A86,86,0,0,1,397,46.53,89.78,89.78,0,0,1,381.64,39a.75.75,0,0,0-.76,1.3Z"/><path d="M410.12,19.12A81.94,81.94,0,0,1,433,22.06a1.5,1.5,0,0,0,.8-2.89,84.64,84.64,0,0,0-23.64-3.05,1.5,1.5,0,0,0,0,3Z"/><path d="M437.21,20.69l-31.12-.87c-1.93-.05-1.93,2.95,0,3l31.12.87c1.94.06,1.93-2.94,0-3Z"/><path d="M443,23.59A186.89,186.89,0,0,0,402,23.3c-1.91.2-1.93,3.2,0,3a186.89,186.89,0,0,1,40.95.29c1.91.22,1.89-2.78,0-3Z"/><path d="M450.89,19.7,406.16,18c-1.93-.08-1.93,2.92,0,3l44.73,1.69c1.93.07,1.92-2.93,0-3Z"/><path d="M442.67,31.5a127.61,127.61,0,0,0-33.53.66c-1.91.29-1.1,3.18.79,2.89a125.05,125.05,0,0,1,32.74-.55c1.92.22,1.9-2.78,0-3Z"/><path d="M451.6,11.6a108.25,108.25,0,0,0-31.47-3c-1.92.1-1.93,3.1,0,3a105.2,105.2,0,0,1,30.67,2.93c1.88.47,2.68-2.43.8-2.89Z"/><path d="M450.25,22.28l-23.94,13c-1.7.92-.19,3.51,1.51,2.59l23.94-13c1.7-.92.19-3.51-1.51-2.59Z"/><path d="M454.06,30.66a32.73,32.73,0,0,1-24.68,5.6c-1.89-.35-2.7,2.54-.8,2.89a35.67,35.67,0,0,0,27-5.9c1.56-1.11.07-3.71-1.51-2.59Z"/><path d="M458.83,21.3a35,35,0,0,1-18.08-9.82c-1.35-1.38-3.47.74-2.12,2.12A37.8,37.8,0,0,0,458,24.19c1.88.38,2.69-2.51.79-2.89Z"/><path d="M454.82,26.57l-32.74-7.78c-1.88-.45-2.68,2.44-.8,2.89L454,29.46c1.87.44,2.68-2.45.8-2.89Z"/><path d="M460,30.66a130.76,130.76,0,0,1-44.66,3.68c-1.93-.17-1.92,2.83,0,3a133.41,133.41,0,0,0,45.46-3.78,1.51,1.51,0,0,0-.8-2.9Z"/><path d="M437.59,9.09l30.92,10.72c.92.31,1.31-1.13.4-1.45L438,7.65c-.91-.32-1.31,1.13-.4,1.44Z"/><path d="M440.82,25.6,468,29.89c.95.15,1.35-1.29.4-1.44l-27.2-4.3c-.94-.15-1.35,1.29-.39,1.45Z"/><path d="M442.91,40.66l17.64-3.39c1.89-.36,1.09-3.26-.8-2.89l-17.64,3.38c-1.89.37-1.09,3.26.8,2.9Z"/><path d="M458.54,34.72l15.66-3.63c.94-.22.54-1.67-.4-1.45l-15.66,3.63c-.94.22-.54,1.67.4,1.45Z"/><path d="M450.22,16.69A45.6,45.6,0,0,0,468,23.12a1.55,1.55,0,0,0,1.85-1,1.52,1.52,0,0,0-1.05-1.85,43.75,43.75,0,0,1-17.08-6.13c-1.65-1-3.16,1.58-1.51,2.59Z"/><path d="M442.89,40.76l31.3-5c.95-.15.55-1.59-.4-1.44l-31.3,5c-.95.16-.55,1.6.4,1.45Z"/><path d="M454.49,20.66l17.51.66c.48,0,.48-.73,0-.75l-17.51-.66c-.48,0-.48.73,0,.75Z"/><g class="cls-3"><path class="cls-4" d="M407.7,27.54A8.11,8.11,0,0,0,395,24.44a1.5,1.5,0,0,0,.3,2.35,41.39,41.39,0,0,0,26.52,2.27,1.52,1.52,0,0,0,.36-2.74,67.47,67.47,0,0,0-15.39-5.92c-4.21-1-9.06-2.32-13.12-.13A4.63,4.63,0,0,0,391,24.12c0,2.33,1.84,3.84,3.73,4.83a35.68,35.68,0,0,0,14.47,3.94,35.94,35.94,0,0,0,16.92-3.17,1.51,1.51,0,0,0,.3-2.35,33.72,33.72,0,0,0-35.87-8.12,1.52,1.52,0,0,0-.36,2.74,53.28,53.28,0,0,0,41.33,7.24,50.94,50.94,0,0,0,11.34-4.17,1.52,1.52,0,0,0,0-2.59,58.43,58.43,0,0,0-46.47-9.65,1.5,1.5,0,0,0-.66,2.5,52.11,52.11,0,0,0,39.09,11,1.52,1.52,0,0,0,1.06-2.56,38.69,38.69,0,0,0-35.92-13,1.51,1.51,0,0,0-.66,2.51,40.81,40.81,0,0,0,38.63,8.45,1.51,1.51,0,0,0,.9-2.2C434.69,14,428,11.31,421.25,11a42.73,42.73,0,0,0-12.47,1.52,73.47,73.47,0,0,0-11.24,3.58c-2.68,1.17-5.57,3-6.74,5.78-1.31,3.14.31,6.22,2.91,8.07,2.8,2,6.47,3.06,9.77,3.84a44.46,44.46,0,0,0,11,1.17,44.16,44.16,0,0,0,23.28-7,1.52,1.52,0,0,0,.31-2.36,43.39,43.39,0,0,0-39.36-10.19c-3.26.79-7,1.88-9.49,4.21A7.25,7.25,0,0,0,387.53,28c1.34,3,4.21,5.23,7,6.7a33.8,33.8,0,0,0,11.17,3,57.41,57.41,0,0,0,13.1.26A47.4,47.4,0,0,0,431,35.47c3.06-1.15,5.72-3.6,5.07-7.16-.57-3.14-3.56-5.53-6.24-6.92-3.61-1.87-7.93-2.56-11.92-3.09A58.3,58.3,0,0,0,404.87,18c-5.56.51-15,2.23-14.9,9.6s9.57,9.34,15.16,10.15a67.86,67.86,0,0,0,25.71-1.18c3.43-.83,7.91-1.69,10.17-4.68,2-2.71,1.41-6.43-.51-9-2.31-3.13-6.2-4.33-9.87-5a70.45,70.45,0,0,0-11.85-1.39A21.46,21.46,0,0,0,407.72,19a13.75,13.75,0,0,0-5.64,6.8,11.06,11.06,0,0,0-.2,8.14c1.3,3.2,4.26,4.9,7.48,5.74a88.66,88.66,0,0,0,13.06,2.13,117.73,117.73,0,0,0,13.41.67,98.28,98.28,0,0,0,13.39-.86c2.77-.4,6-1.52,7.65-4,2-3.08-.18-6.15-2.75-8a37.64,37.64,0,0,0-10.37-4.95,39.93,39.93,0,0,0-22.49-.35c-2.93.84-6.6,2.75-7.27,6-.79,3.84,2.81,6.11,5.65,7.77a50.22,50.22,0,0,0,22.43,6.67,50,50,0,0,0,11.46-.72,1.52,1.52,0,0,0,.89-2.2c-5.17-11.06-17.73-18-29.83-16.75a1.51,1.51,0,0,0-1.45,1.89c2.85,8.07,11.42,12.8,19.75,12.59a18.21,18.21,0,0,0,11.26-4c2.27-1.88,3.25-4.33,2-7.15a16,16,0,0,0-4.7-5.95,19.28,19.28,0,0,0-15.8-4,1.5,1.5,0,0,0-1.05,1.84c3.24,9.75,16.72,13.4,24.58,6.94a1.5,1.5,0,0,0,0-2.12,53.28,53.28,0,0,0-42-11.73c-1.66.25-1.17,2.41,0,2.89a94.07,94.07,0,0,0,39.45,7.2c1.64-.06,2.1-2.54.4-3L413.93,10.16l-.79,2.89a152.12,152.12,0,0,0,33.34,2.48,1.5,1.5,0,0,0,0-3L394,7v3l31.51,2.92c1.72.16,2-2.49.39-2.95a66.69,66.69,0,0,0-44.06,2.43,1.52,1.52,0,0,0-.67,2.5,30.48,30.48,0,0,0,29.95,6.76,1.52,1.52,0,0,0,.66-2.51,15.51,15.51,0,0,0-10.38-4.39c-3.68-.12-8.16,1.14-10.19,4.47-1.83,3-.7,6.6,1.53,9a10.66,10.66,0,0,0,9.68,3.27c4.78-.73,8.75-3.8,12.44-6.72a1.51,1.51,0,0,0,0-2.12,59.37,59.37,0,0,0-10.59-7,37,37,0,0,0-12.12-4.21A14.7,14.7,0,0,0,381.22,14c-2.67,2-4.74,5.3-4.46,8.78.6,7.37,8.84,10.13,14.92,11.56a79.1,79.1,0,0,0,25.11,1.78,79.84,79.84,0,0,0,27.1-7.33c1.3-.62.71-2.31-.36-2.74-9-3.65-20.33,3.67-20.55,13.42a1.54,1.54,0,0,0,1.5,1.5,99.1,99.1,0,0,0,35.82-2.12c1.87-.45,1.08-3.35-.8-2.89a96.91,96.91,0,0,1-35,2l1.5,1.5c.18-8,9.61-13.42,16.76-10.53l-.36-2.74a76.73,76.73,0,0,1-43.48,6.47,64.58,64.58,0,0,1-10.45-2.31c-2.65-.85-5.52-2.11-7.31-4.34a6.23,6.23,0,0,1,0-7.8,10.39,10.39,0,0,1,8.55-3.92c4.29,0,8.47,1.69,12.26,3.57a56.32,56.32,0,0,1,10.77,7V22.69c-3.24,2.56-6.88,5.42-11.12,5.95a7.65,7.65,0,0,1-8-4.35c-1.6-3.74,2.39-6,5.57-6.43a12.43,12.43,0,0,1,10.44,3.4l.66-2.5a27.41,27.41,0,0,1-27-6l-.67,2.51a64.06,64.06,0,0,1,42.48-2.42l.4-2.95L394,7c-1.93-.18-1.9,2.8,0,3l52.46,5.54v-3a148.63,148.63,0,0,1-32.55-2.37c-1.87-.35-2.69,2.43-.79,2.89l43.14,10.49.4-2.94A91.8,91.8,0,0,1,418,13.51V16.4a50,50,0,0,1,39.07,11V25.24c-6.09,5-17.08,1.87-19.56-5.62l-1.05,1.85a16.15,16.15,0,0,1,11.75,2.39,15,15,0,0,1,4.23,4.1,5.54,5.54,0,0,1,1.3,3.15c-.07,1.07-1.07,1.87-1.85,2.5-5.25,4.18-13.08,3.85-18.74.73a15.14,15.14,0,0,1-7.15-8l-1.44,1.9a27.4,27.4,0,0,1,27.24,15.26l.9-2.2a47,47,0,0,1-20-.87,46.46,46.46,0,0,1-9.4-3.58,39.82,39.82,0,0,1-4.28-2.5c-1-.68-2.36-1.69-2.19-3.08.34-2.69,4.45-3.8,6.56-4.31a36.29,36.29,0,0,1,9.69-.95,37,37,0,0,1,18.31,5.55c1.87,1.18,4.65,3.3,2.14,5.33-2.18,1.76-5.27,1.94-7.93,2.18a118.63,118.63,0,0,1-23-.17,104.93,104.93,0,0,1-11.3-1.77c-2.63-.57-5.57-1.48-6.68-4.18-1.79-4.33,1.29-9.64,5.15-11.62,6-3.08,13.5-1.67,19.81-.55,3,.54,6.58,1.3,8.49,3.94,1.74,2.41,1.55,5.29-1.18,6.78a21.72,21.72,0,0,1-4.46,1.59q-2.76.78-5.58,1.32a63,63,0,0,1-11,1.11,63.1,63.1,0,0,1-11.07-.79,23.89,23.89,0,0,1-8.51-2.58c-1.89-1.12-3.71-2.95-3.24-5.33s3.07-3.79,5.18-4.52a33.74,33.74,0,0,1,9.69-1.45,56.13,56.13,0,0,1,11.29.67c3.28.54,6.88,1.16,9.79,2.84,1.8,1,4.82,3.24,4.13,5.71a4.09,4.09,0,0,1-2.57,2.42,29.92,29.92,0,0,1-5.27,1.5,54.74,54.74,0,0,1-11,1.29,55,55,0,0,1-10.64-.87,24.56,24.56,0,0,1-8.94-3.07c-2.05-1.29-4.45-3.31-4.83-5.87-.43-2.9,2.35-4.63,4.65-5.57,11.06-4.54,24.31-3.19,34.57,2.74a37.54,37.54,0,0,1,6.86,5.09l.3-2.36a41.6,41.6,0,0,1-36.54,4.16c-2.32-.84-6.1-2.16-6.34-5.09-.21-2.48,2.6-4.18,4.47-5.14A50.76,50.76,0,0,1,407.28,16a49.44,49.44,0,0,1,10.77-2c6.58-.37,14,1.44,18.14,7l.89-2.2a37.76,37.76,0,0,1-35.71-7.68l-.66,2.51a35.67,35.67,0,0,1,33,12.22l1.06-2.56a49.25,49.25,0,0,1-37-10.1l-.66,2.51a55.53,55.53,0,0,1,44.15,9.35V22.47a50.19,50.19,0,0,1-39.37,2.15,47.5,47.5,0,0,1-10.27-5.22l-.36,2.74a30.81,30.81,0,0,1,33,7.35l.3-2.36a33.17,33.17,0,0,1-24.73.83,29.49,29.49,0,0,1-2.89-1.23,7.81,7.81,0,0,1-2.57-1.61c-.92-1.09,0-1.91,1-2.39,3.26-1.51,7.29-.25,10.56.56a63.62,63.62,0,0,1,14.67,5.62l.36-2.74a38.06,38.06,0,0,1-24.21-2l.31,2.36c2.23-2,6.64-1.1,7.72,1.78.68,1.79,3.58,1,2.9-.8Z"/></g><g class="cls-3"><path class="cls-4" d="M394.47,17.33a51.87,51.87,0,0,0,21.69-1,.38.38,0,0,0-.2-.73,50.64,50.64,0,0,1-21.29,1c-.47-.08-.67.65-.2.73Z"/></g><g class="cls-3"><path class="cls-4" d="M390.42,23a146.82,146.82,0,0,0,33,3.61.38.38,0,0,0,0-.75,146.13,146.13,0,0,1-32.83-3.58c-.47-.11-.67.61-.2.72Z"/></g><g class="cls-3"><path class="cls-4" d="M406.08,21.89a.38.38,0,0,0,0-.75.38.38,0,0,0,0,.75Z"/></g><g class="cls-3"><path class="cls-4" d="M398.22,20.51a396.72,396.72,0,0,1,52.74-1c.48,0,.48-.73,0-.75a396.72,396.72,0,0,0-52.74,1c-.48,0-.48.8,0,.75Z"/></g><g class="cls-3"><path class="cls-4" d="M423.73,17.79,402.34,17c-.49,0-.48.73,0,.75l21.39.81c.48,0,.48-.73,0-.75Z"/></g><g class="cls-3"><path class="cls-4" d="M397.58,19.58a39.81,39.81,0,0,1,19.23-1.35V17.5l-20.14,3.33c-.45.07-.29.7.1.74a39,39,0,0,0,16-1.68l-.29-.68a20.12,20.12,0,0,1-11.69,1.72l-.1.73L410,22c.49,0,.49-.73,0-.75l-9.33-.37c-.41,0-.52.67-.1.74a21,21,0,0,0,12.27-1.79.38.38,0,0,0-.29-.69,38.38,38.38,0,0,1-15.75,1.65l.1.73L417,18.23a.38.38,0,0,0,0-.73,40.59,40.59,0,0,0-19.63,1.36c-.46.15-.26.87.2.72Z"/></g><g class="cls-3"><path class="cls-5" d="M409.92,21.58l11.74-1.52c.48-.06.48-.81,0-.75l-11.74,1.52c-.47.06-.48.82,0,.75Z"/></g><g class="cls-3"><path class="cls-5" d="M398.39,19.49l34.88,3.84c.48.05.47-.7,0-.75l-34.88-3.84c-.48,0-.48.7,0,.75Z"/></g><g class="cls-3"><path class="cls-5" d="M402,16.74a135.55,135.55,0,0,0,46.88,4.44c.47,0,.48-.79,0-.75A134.89,134.89,0,0,1,402.24,16a.38.38,0,0,0-.2.73Z"/></g><g class="cls-3"><path class="cls-5" d="M396.45,20l36.38-1.38-.1-.74-33.24,4.77.2.72,19.78-3-.2-.73L409.69,23c-.46.16-.26.88.2.73l9.58-3.3a.38.38,0,0,0-.2-.73l-19.78,3c-.48.07-.28.79.2.72l33.24-4.76c.42-.06.32-.76-.1-.74l-36.38,1.38c-.48,0-.48.77,0,.75Z"/></g><g class="cls-3"><path class="cls-5" d="M394.3,18.48a400.12,400.12,0,0,0,52.62,5,.38.38,0,0,0,0-.75,400.8,400.8,0,0,1-52.43-5c-.47-.08-.67.65-.19.72Z"/></g><g class="cls-3"><path class="cls-5" d="M394.07,29.14A170.07,170.07,0,0,0,447,28.22c.47-.08.27-.8-.2-.72a169,169,0,0,1-52.55.92c-.47-.07-.67.65-.2.72Z"/></g><g class="cls-3"><path class="cls-5" d="M394.63,15.92l56.47-.29a.38.38,0,0,0,0-.75l-56.47.29a.38.38,0,0,0,0,.75Z"/></g><path class="cls-5" d="M411.92,22.11a.38.38,0,0,0,0-.75.38.38,0,0,0,0,.75Z"/><path class="cls-5" d="M400.33,17.49a144,144,0,0,0,35,3.44c.48,0,.48-.77,0-.75a142.93,142.93,0,0,1-34.81-3.41c-.47-.11-.67.61-.19.72Z"/><path class="cls-5" d="M403.86,30.21l39-.94a.38.38,0,0,0,0-.75l-39,.94a.38.38,0,0,0,0,.75Z"/><path class="cls-6" d="M421.82,10.93l42.17,11a1.5,1.5,0,0,0,.79-2.9L422.61,8a1.5,1.5,0,0,0-.79,2.89Z"/><path class="cls-6" d="M423.07,31a219.16,219.16,0,0,0,43.13,4.17,1.13,1.13,0,0,0,0-2.25,216,216,0,0,1-42.53-4.09c-1.42-.28-2,1.89-.6,2.17Z"/><path class="cls-6" d="M397.88,33.62l56.4,2.14a.38.38,0,0,0,0-.75l-56.4-2.14a.38.38,0,0,0,0,.75Z"/><path class="cls-5" d="M417.58,25.18l41-1c.48,0,.48-.77,0-.75l-41,1a.38.38,0,0,0,0,.75Z"/><path class="cls-5" d="M437.87,5.14a50.1,50.1,0,0,0-21.47,5.39c-.38.19-.11.84.29.69l12.82-5a.37.37,0,0,0-.2-.72A88.94,88.94,0,0,0,402.7,13.9c-.43.22-.05.87.38.65a88.29,88.29,0,0,1,26.43-8.31l-.2-.72-12.82,5,.28.69a49.36,49.36,0,0,1,21.1-5.29.38.38,0,0,0,0-.75Z"/><path d="M397.85,33.73a54.72,54.72,0,0,0,28.93,3.55c.47-.07.27-.79-.2-.72A54.06,54.06,0,0,1,398.05,33c-.44-.19-.64.54-.2.72Z"/><path d="M402,37.33A261.51,261.51,0,0,0,441.6,38c.48,0,.48-.78,0-.75A261.51,261.51,0,0,1,402,36.58c-.48,0-.47.71,0,.75Z"/><path d="M390.24,21.36a274.11,274.11,0,0,0,51.36,3.05.38.38,0,0,0,0-.75,273.67,273.67,0,0,1-51.16-3c-.48-.07-.68.65-.2.73Z"/><path d="M394.25,14q22.69,1,45.41-.13c.48,0,.48-.77,0-.75q-22.7,1.11-45.41.13c-.49,0-.48.73,0,.75Z"/><path d="M402,9.15a153.38,153.38,0,0,1,33.73.16c.48.06.47-.69,0-.75A153.38,153.38,0,0,0,402,8.4c-.47,0-.48.8,0,.75Z"/><path d="M404.63,13.22q17.52-.32,35,.68c.48,0,.48-.72,0-.75q-17.49-1-35-.68a.38.38,0,0,0,0,.75Z"/><path d="M398.78,36.58l42.82.81a.38.38,0,0,0,0-.75l-42.82-.81a.38.38,0,0,0,0,.75Z"/><path d="M397.37,40a106.79,106.79,0,0,0,39,3.95c.48,0,.49-.79,0-.75a106.14,106.14,0,0,1-38.83-3.93.38.38,0,0,0-.2.73Z"/><path d="M420.84,43.32l33.73,0a.38.38,0,0,0,0-.75l-33.73,0a.38.38,0,0,0,0,.75Z"/><path d="M421.49,45.75a185.2,185.2,0,0,0,42.81.62c.95-.1,1-1.6,0-1.5a185.2,185.2,0,0,1-42.81-.62c-.95-.13-.94,1.37,0,1.5Z"/><path d="M437.7,41.33,470.14,40c1.44-.06,1.45-2.31,0-2.25L437.7,39.08c-1.44.05-1.45,2.3,0,2.25Z"/><path d="M400.73,40a202.2,202.2,0,0,0,42.17.67c.47,0,.48-.79,0-.75a202.2,202.2,0,0,1-42.17-.67c-.48-.06-.48.69,0,.75Z"/><path d="M392.3,31.3a442,442,0,0,0,57.08,1.29c.48,0,.49-.77,0-.75a442,442,0,0,1-57.08-1.29c-.48-.05-.48.7,0,.75Z"/><path d="M393.6,15.12a454.07,454.07,0,0,1,56.43.3c.48,0,.48-.72,0-.75a454.07,454.07,0,0,0-56.43-.3c-.48,0-.49.77,0,.75Z"/><path d="M396.84,12.51a273.59,273.59,0,0,1,45.42-1.93c.48,0,.48-.73,0-.75a273.59,273.59,0,0,0-45.42,1.93c-.47.06-.48.81,0,.75Z"/><path d="M393,13.29a469.53,469.53,0,0,1,51.94-3q7.44,0,14.87.21a.38.38,0,0,0,0-.75,467.53,467.53,0,0,0-52,1.35q-7.42.62-14.81,1.45c-.47.06-.48.81,0,.75Z"/><path d="M397.49,8.45a234.17,234.17,0,0,1,51.16,2.08c.47.07.67-.66.2-.73a235.38,235.38,0,0,0-51.36-2.1c-.48,0-.48.78,0,.75Z"/><path d="M388.51,11.17a168.69,168.69,0,0,1,58.17-1.82c.47.07.67-.65.2-.72a169.51,169.51,0,0,0-58.57,1.82c-.47.1-.27.82.2.72Z"/><path d="M399.68,9.8a243.28,243.28,0,0,1,49.26-3.17c4.7.17,9.4.49,14.08.93,1,.09,1-1.41,0-1.5a244.5,244.5,0,0,0-49.8.36q-7,.76-13.94,1.93c-.95.16-.55,1.6.4,1.45Z"/><path d="M384.82,13.81A252.28,252.28,0,0,1,438.17,1.48c.47-.05.48-.81,0-.75a252.9,252.9,0,0,0-53.55,12.36c-.45.16-.26.88.2.72Z"/><path d="M426.68,35.32a296.15,296.15,0,0,0,36.42-6.74c.47-.11.27-.84-.2-.72a294.81,294.81,0,0,1-36.22,6.71c-.47,0-.48.8,0,.75Z"/><path d="M431.21,26.68a283,283,0,0,0,40.23,1.25c.48,0,.48-.77,0-.75a283,283,0,0,1-40.23-1.25c-.47,0-.47.71,0,.75Z"/><path d="M446.78,44.67l12.33-1.33c.48-.05.48-.8,0-.75l-12.33,1.33c-.47,0-.48.8,0,.75Z"/><path d="M430.67,26.59A294.22,294.22,0,0,1,468.2,22c.48,0,.49-.78,0-.75a295.57,295.57,0,0,0-37.73,4.61c-.47.09-.27.81.2.72Z"/><path d="M420.66,18.08,468,15.38c1-.05,1-1.55,0-1.5l-47.35,2.7c-1,.05-1,1.55,0,1.5Z"/><path d="M426,25.25q24.68-.43,49.31-1.86c1-.05,1-1.55,0-1.5Q450.71,23.32,426,23.75a.75.75,0,0,0,0,1.5Z"/><path d="M439.93,30.19l31.79-3.31c.95-.1,1-1.6,0-1.5l-31.79,3.31c-1,.1-1,1.6,0,1.5Z"/><path d="M441.05,32a67.49,67.49,0,0,1,18.07-2c.48,0,.48-.73,0-.75a68.13,68.13,0,0,0-18.27,2,.37.37,0,0,0,.2.72Z"/><path d="M381.2,15.36A162.84,162.84,0,0,1,426.79.73c.48-.08.28-.8-.2-.72a163.19,163.19,0,0,0-45.77,14.71c-.43.21-.05.86.38.64Z"/><path d="M378.12,16.49A351.67,351.67,0,0,1,437.58,4.12q8.49-1,17-1.6c.48,0,.49-.78,0-.75a353,353,0,0,0-59.93,9.42q-8.41,2.09-16.73,4.57c-.46.14-.27.87.2.73Z"/><path d="M402.05,14a284.63,284.63,0,0,1,57.1-1.82c.48,0,.48-.71,0-.75a284.63,284.63,0,0,0-57.1,1.82c-.47.06-.47.81,0,.75Z"/><path d="M418.25,11.14q22.42.07,44.75,2.28c.48.05.47-.7,0-.75q-22.31-2.2-44.75-2.28a.38.38,0,0,0,0,.75Z"/><path d="M392.2,22.6a112.84,112.84,0,0,0,29.94,2.65c.48,0,.48-.77,0-.75a112.28,112.28,0,0,1-29.75-2.63c-.47-.1-.67.62-.19.73Z"/><path d="M388.42,23.75l35,1.46c.48,0,.48-.73,0-.75l-35-1.46c-.49,0-.49.73,0,.75Z"/><path d="M400.73,16.63a296.69,296.69,0,0,0,41.52,1.23c.48,0,.48-.77,0-.75a296.69,296.69,0,0,1-41.52-1.23c-.48-.05-.48.7,0,.75Z"/><path d="M387.11,25.92l37,0a.38.38,0,0,0,0-.75l-37,0a.38.38,0,0,0,0,.75Z"/><path d="M394.89,34.62q16.58-.39,33.09-2c.47-.05.48-.8,0-.75q-16.5,1.59-33.09,2a.38.38,0,0,0,0,.75Z"/><path class="cls-5" d="M378.13,27.56a88.38,88.38,0,0,0,23.46,1.65c.48,0,.49-.78,0-.75a87.74,87.74,0,0,1-23.26-1.63c-.47-.09-.68.63-.2.73Z"/><path class="cls-5" d="M382.08,30.59a56.15,56.15,0,0,0,8.9,1.8c.48.06.47-.7,0-.75a54.77,54.77,0,0,1-8.7-1.77.37.37,0,0,0-.2.72Z"/><path class="cls-5" d="M378.14,32.14a122.19,122.19,0,0,0,17.73.9.38.38,0,0,0,0-.75,122.19,122.19,0,0,1-17.73-.9c-.48-.06-.47.7,0,.75Z"/><path class="cls-5" d="M380.84,25.26l16.43.9c.49,0,.48-.72,0-.75l-16.43-.9c-.48,0-.48.73,0,.75Z"/><path class="cls-5" d="M382.47,22.56a105.3,105.3,0,0,0,14.8,1.8c.49,0,.49-.72,0-.75a105.43,105.43,0,0,1-14.6-1.77c-.47-.09-.67.63-.2.72Z"/><path class="cls-5" d="M391.55,24.8a87.18,87.18,0,0,0,21.29.41c.47,0,.48-.79,0-.75a86.54,86.54,0,0,1-21.09-.38c-.47-.07-.68.66-.2.72Z"/><path class="cls-5" d="M388.62,24.42q15.11,1.38,30.28,1.29a.38.38,0,0,0,0-.75q-15.16.08-30.28-1.29c-.48,0-.48.71,0,.75Z"/><path class="cls-5" d="M391.65,37.26l7.36.84c.48,0,.47-.7,0-.75l-7.36-.84c-.48-.06-.47.69,0,.75Z"/><path class="cls-5" d="M400.29,40l12.54.9c.48,0,.48-.71,0-.75l-12.54-.9c-.48,0-.48.71,0,.75Z"/><path d="M393.81,37.32l26.8,2.79c.48,0,.47-.7,0-.75l-26.8-2.79c-.48,0-.48.7,0,.75Z"/><path class="cls-5" d="M389.4,35.88a88.19,88.19,0,0,0,20,3.68c.48,0,.48-.72,0-.75a87.54,87.54,0,0,1-19.78-3.65c-.46-.15-.66.58-.2.72Z"/><path class="cls-5" d="M377.37,33.38q4.58.88,9.2,1.44c.48.06.48-.69,0-.75-3-.37-6-.83-9-1.41-.47-.09-.67.63-.2.72Z"/><path class="cls-5" d="M383.43,19.81l23.78-2.68c.48-.06.48-.81,0-.75l-23.78,2.68c-.48.05-.48.8,0,.75Z"/><path class="cls-5" d="M378.35,18.56Q391,16.51,403.77,15c.47-.06.48-.81,0-.75q-12.86,1.5-25.62,3.57c-.48.07-.27.8.2.72Z"/><path class="cls-5" d="M380.93,17.63A154.51,154.51,0,0,1,407.24,12c.47-.06.48-.81,0-.75a155.55,155.55,0,0,0-26.5,5.68c-.46.14-.27.86.19.72Z"/><path class="cls-5" d="M385,14.09l5.73-.89a.37.37,0,0,0,.26-.46.38.38,0,0,0-.46-.26l-5.73.89a.38.38,0,0,0-.27.46.4.4,0,0,0,.47.26Z"/><path class="cls-5" d="M405.06,18.12l14.27-1.33c.48,0,.48-.79,0-.75l-14.27,1.33c-.48.05-.48.8,0,.75Z"/><path class="cls-5" d="M408.52,18.59a243.85,243.85,0,0,1,34.17-1.81.38.38,0,0,0,0-.75,243.85,243.85,0,0,0-34.17,1.81c-.47.06-.48.81,0,.75Z"/><path d="M379.94,26.59l12.2,1c.48,0,.48-.71,0-.75l-12.2-1c-.48,0-.48.71,0,.75Z"/><path d="M379.27,21,390,19.1c.47-.08.27-.8-.2-.72l-10.7,1.86c-.47.08-.27.81.2.72Z"/><path d="M383.11,16.32l13.4-2.67c.48-.1.28-.82-.2-.72l-13.4,2.67c-.48.09-.28.81.2.72Z"/><path d="M380.08,15.4a146.31,146.31,0,0,1,22-3.05c.48,0,.48-.78,0-.75a147.69,147.69,0,0,0-22.16,3.08c-.47.1-.28.82.2.72Z"/><path d="M378.34,19.38l24.65-4c.48-.08.27-.8-.2-.73l-24.65,4c-.48.07-.27.8.2.72Z"/><path d="M379.2,25.75a71.1,71.1,0,0,1,18.93-.92c.48,0,.48-.71,0-.75A71.76,71.76,0,0,0,379,25c-.47.09-.27.81.2.72Z"/><path d="M381.7,27.93l25.09-1.69c.48,0,.49-.79,0-.75L381.7,27.18c-.47,0-.48.79,0,.75Z"/><path d="M380.41,31.49a203.29,203.29,0,0,1,22.48-.88.38.38,0,0,0,0-.75,203.29,203.29,0,0,0-22.48.88c-.48.05-.49.8,0,.75Z"/><path d="M382.56,33.37a202.76,202.76,0,0,0,20.33.33c.48,0,.49-.77,0-.75a202.76,202.76,0,0,1-20.33-.33c-.48,0-.48.71,0,.75Z"/><path d="M401.59,38.64a.38.38,0,0,0,0-.75.38.38,0,0,0,0,.75Z"/><path d="M390.89,15.43a189.56,189.56,0,0,1,24.55-3.1c.48,0,.49-.78,0-.75a189,189,0,0,0-24.75,3.13c-.47.09-.27.81.2.72Z"/><path d="M396,8.69c-.21-.59,2.51-1,2.86-1.1l2.64-.6,5.06-1.15L416.86,3.5c.47-.11.28-.83-.2-.73L404.09,5.63,398,7c-.84.19-3.31.43-2.77,1.88.17.45.89.26.72-.2Z"/><path class="cls-5" d="M392.62,11,403.87,8.3c.47-.11.27-.83-.2-.72l-11.25,2.67c-.47.11-.27.83.2.72Z"/><path class="cls-5" d="M399.52,11.31,432,5.08c.47-.09.27-.81-.2-.72l-32.44,6.23c-.47.09-.27.81.2.72Z"/><path class="cls-5" d="M384.37,14.88q7.28-2.47,14.74-4.36a.37.37,0,0,0-.2-.72q-7.46,1.88-14.74,4.36c-.45.16-.26.88.2.72Z"/><path class="cls-5" d="M419.18,4.67a.38.38,0,0,0,0-.75.38.38,0,0,0,0,.75Z"/><path class="cls-5" d="M388.34,39.24a47,47,0,0,0,15.85,4.24c.48,0,.48-.71,0-.75a46.06,46.06,0,0,1-15.48-4.14c-.43-.2-.81.45-.37.65Z"/><path class="cls-5" d="M398.13,43.1l22.49,2.28c.47,0,.47-.7,0-.75l-22.49-2.28c-.48-.05-.47.7,0,.75Z"/><path class="cls-6" d="M381,33.3a168.57,168.57,0,0,0,49.08,11.07c4.9.37,9.8.52,14.71.48a.75.75,0,0,0,0-1.5,172.15,172.15,0,0,1-50.14-6.93q-6.72-2-13.25-4.56c-.9-.36-1.29,1.09-.4,1.44Z"/><path class="cls-6" d="M380.3,28.65q33.46,2,67,2.2,9.43.07,18.88,0a.75.75,0,0,0,0-1.5q-33.53.24-67-1.23-9.42-.42-18.83-1c-1,0-1,1.45,0,1.5Z"/><path class="cls-6" d="M382.16,19.66A242,242,0,0,1,437,11.42q7.92-.27,15.86,0c1,0,1-1.47,0-1.5a247.82,247.82,0,0,0-55.69,4.69q-7.76,1.56-15.4,3.64a.75.75,0,0,0,.4,1.45Z"/><path class="cls-6" d="M379.76,30.88q29.37,6.51,59.12,11,8.36,1.26,16.73,2.38c.95.12.94-1.38,0-1.5q-29.66-3.94-59-9.87-8.25-1.67-16.46-3.49c-.94-.2-1.34,1.24-.4,1.45Z"/><path class="cls-6" d="M395.14,14.74A327.89,327.89,0,0,1,433.6,5.17c.94-.18.54-1.62-.4-1.45a327.93,327.93,0,0,0-38.46,9.58c-.92.28-.52,1.73.4,1.44Z"/><path class="cls-6" d="M399.38,18.87l49.56-.79c1.93,0,1.94-3,0-3l-49.56.79c-1.92,0-1.93,3,0,3Z"/><path class="cls-6" d="M406.36,20.74H428a1.5,1.5,0,0,0,0-3H406.36a1.5,1.5,0,0,0,0,3Z"/><path class="cls-6" d="M388.49,14.09a166,166,0,0,1,28.12-7.87c1.42-.27.82-2.44-.6-2.17a166.25,166.25,0,0,0-28.12,7.87c-1.34.51-.76,2.69.6,2.17Z"/><path class="cls-6" d="M383,38.16A113.69,113.69,0,0,0,433.44,50a.75.75,0,0,0,0-1.5A112,112,0,0,1,383.8,36.86c-.86-.42-1.63.87-.76,1.3Z"/><path d="M390,17.94l56.07,0a.38.38,0,0,0,0-.75l-56.07,0a.38.38,0,0,0,0,.75Z"/><path d="M387.08,23.7q23.12,1.62,46.31,1.61a.38.38,0,0,0,0-.75q-23.17,0-46.31-1.61c-.49,0-.48.72,0,.75Z"/><path d="M392,13q30.48.63,61-.29a.38.38,0,0,0,0-.75q-30.46.91-61,.29a.38.38,0,0,0,0,.75Z"/><path class="cls-6" d="M380.33,23.78c21.84,2.79,43.9,5.59,65.94,4a149.84,149.84,0,0,0,18.39-2.46c1.42-.28.82-2.45-.6-2.17-21.5,4.28-43.58,3-65.23.64-6.17-.68-12.33-1.46-18.5-2.25-1.43-.18-1.41,2.07,0,2.25Z"/><path d="M17,16.52c-3.72,0-8.18-.49-11.68,1.05C2.67,18.75,1.5,21.33.68,24a12.76,12.76,0,0,0,3.16,13.4,9.45,9.45,0,0,0,6.08,2.68c3.53.18,7.11.07,10.64.1l87.79.82,87.41.82,87.41.82,87.41.82,11,.11a1.5,1.5,0,0,0,0-3l-84-.79-84-.79-84-.79-84-.78-20.91-.2-10.26-.1c-3,0-6,.43-8.33-1.66-3.76-3.3-3.82-8.25-1.91-12.53,1.14-2.55,3.18-3.09,5.83-3.27,2.3-.15,4.63-.11,6.94-.11a1.5,1.5,0,0,0,0-3Z"/><path d="M13.76,19.38,156.41,18l142.65-1.42,80.15-.8-1.44-1.1,2.5,18.55c.26,1.91,3.15,1.1,2.89-.79l-2.5-18.55a1.52,1.52,0,0,0-1.45-1.11L236.56,14.16,93.91,15.58l-80.15.8a1.5,1.5,0,0,0,0,3Z"/><path d="M379.78,39.86a75.39,75.39,0,0,0-1.1-24c-.39-1.89-3.28-1.09-2.89.8a73,73,0,0,1,1,23.22c-.23,1.92,2.77,1.9,3,0Z"/><path d="M396.78,39.88c1.87,2.89,5.2,4,8.42,4.66,4.42,1,8.9,1.68,13.39,2.22a156.88,156.88,0,0,0,28.58.86c.48,0,.48-.78,0-.75a157.12,157.12,0,0,1-26.65-.63q-6.72-.74-13.34-2.06c-3.53-.7-7.65-1.43-9.76-4.68-.26-.4-.91,0-.64.38Z"/><path d="M383.76,41.49a104.15,104.15,0,0,0,48.85,9.69,106.69,106.69,0,0,0,14.14-1.65c1.89-.35,1.09-3.25-.8-2.9a101,101,0,0,1-47.72-2.76,98.63,98.63,0,0,1-13-5c-1.74-.81-3.26,1.77-1.51,2.59Z"/><path class="cls-6" d="M383,39.76A147.43,147.43,0,0,0,427.79,51.1q6.57.57,13.16.54a.75.75,0,0,0,0-1.5A144.48,144.48,0,0,1,383.8,38.47c-.88-.38-1.64.91-.76,1.29Z"/><path class="cls-6" d="M383.63,36.79a168.57,168.57,0,0,0,49.08,11.07c4.9.37,9.81.52,14.71.48a.75.75,0,0,0,0-1.5,172.2,172.2,0,0,1-50.14-6.93q-6.72-2-13.25-4.56c-.9-.36-1.29,1.09-.4,1.44Z"/><path d="M381.49,39.88a51.1,51.1,0,0,0,.74-11.52,1.5,1.5,0,0,0-3,0,47.61,47.61,0,0,1-.64,10.73,1.55,1.55,0,0,0,1.05,1.84,1.51,1.51,0,0,0,1.85-1Z"/><path d="M382,40.25a35.3,35.3,0,0,0,1.33-6.91,1.51,1.51,0,0,0-1.5-1.5,1.54,1.54,0,0,0-1.5,1.5l-.09.88c0,.12,0,.25-.05.37.06-.37,0,0,0,.1-.08.53-.18,1.07-.28,1.6-.21,1.07-.48,2.12-.79,3.16a1.52,1.52,0,0,0,1,1.85,1.54,1.54,0,0,0,1.85-1Z"/><path d="M383.14,40.29a25.36,25.36,0,0,0,.51-5.56,1.5,1.5,0,0,0-3,0,22.84,22.84,0,0,1-.21,3.69l.06-.4c-.07.49-.16,1-.25,1.47a1.5,1.5,0,1,0,2.89.8Z"/><path d="M378.31,15.89a6.6,6.6,0,0,1,1.61,3.59,35.36,35.36,0,0,1,.65,4.9,99.06,99.06,0,0,1,0,10.34c-.07,1.94,2.93,1.93,3,0a89.75,89.75,0,0,0-.09-11.48c-.3-3.19-.61-7.12-3.05-9.48-1.39-1.34-3.51.78-2.12,2.13Z"/><path d="M384.4,39.24a.38.38,0,0,0,0-.75.38.38,0,0,0,0,.75Z"/><path d="M383.8,39a18.13,18.13,0,0,1,5.81,1.55A29.57,29.57,0,0,0,394.82,42a29.34,29.34,0,0,0,10.57-.11c.47-.09.27-.82-.2-.73a28.34,28.34,0,0,1-11.31-.1c-3.39-.74-6.57-2.7-10.08-2.79a.38.38,0,0,0,0,.75Z"/><path d="M384.57,40l15.22,3.83c4.87,1.22,9.8,2.36,14.85,2.09.48,0,.48-.77,0-.75-5.15.28-10.16-.93-15.12-2.18l-14.75-3.71a.37.37,0,0,0-.2.72Z"/><path d="M383.38,34a88.2,88.2,0,0,0,18,2.51c2.64.09,5.81.46,8.32-.54,2.22-.89,3.84-2.77,5.93-3.89.42-.23,0-.88-.38-.65-2,1.07-3.54,2.85-5.62,3.76a11.06,11.06,0,0,1-4.39.61q-2.17,0-4.35-.06a87.24,87.24,0,0,1-17.31-2.46c-.47-.11-.67.61-.2.72Z"/><path d="M384,28.45q11.53.24,23.08,0a.38.38,0,0,0,0-.75q-11.54.2-23.08,0a.38.38,0,0,0,0,.75Z"/><g class="cls-3"><path d="M383.39,15.81A108.75,108.75,0,0,1,384,35.24h6q-.43-6.66-.61-13.33c0-1.41-.3-3.52.26-4.49a3.79,3.79,0,0,1,2.84-.93l-1.33-.77.2.19-.77-1.32c-.26-.7.28-1.25-.38-.3-.23.32-.45.64-.65,1A20.49,20.49,0,0,0,388.2,18a23.62,23.62,0,0,0-1.5,5.41,61,61,0,0,0-.41,11.78,3,3,0,1,0,6,0,30.7,30.7,0,0,0-4.85-19.69,3,3,0,0,0-5.18,3,28.11,28.11,0,0,1,1.05,19.56l5.89.8-.53-4.74a3.09,3.09,0,0,0-3-3,3,3,0,0,0-3,3,9.49,9.49,0,0,0,3.54,6.9,20.88,20.88,0,0,0,7.48,3.46,3,3,0,0,0,3.8-2.89l-.12-30.53-5.89.79a88.77,88.77,0,0,1,1.15,18.28c-.07,3-.21,6.08-.35,9.12s-.08,5.83,2.61,7.68A3,3,0,0,0,399,45.91c1.39-3.19,1.53-6.48,1.64-9.91s.19-6.74.23-10.12.07-6.75.05-10.12c0-3.12,0-6.31-2.33-8.71a3,3,0,0,0-5,2.92,67.36,67.36,0,0,1,2.21,27.69c-.44,3.38-1,6.29,1.29,9.17a3,3,0,0,0,3.28.62,3.1,3.1,0,0,0,1.84-2.74q1.71-14.41,2.21-28.94c.13-3.65.44-9.29-4.19-10.39-2.34-.55-4.47,1.66-6.07,3.13a30.65,30.65,0,0,0-4,4.65,28.81,28.81,0,0,0-4.64,10.5,33,33,0,0,0-.52,3.26c0,.27-.36,2.7-.3,2.74s.27-.38.32-.4a1.42,1.42,0,0,1,1.54.27c-.68-.53.69.65.53.58s-.05-.46,0-.1c0-.22,0-.43,0-.64,0,0,.05-.52,0-.23,0-.19.21-1.14.3-1.62q.69-3.68,1.36-7.34c.27-1.43.54-3.37,1.38-4.12s3-.69,4.33-.49c-.08,0-.28,0,.05,0l.68.15a7.46,7.46,0,0,1,1.13.37,5.57,5.57,0,0,1,1.06.8c1,1.28.65,4.2.63,5.9,0,2.63-.21,5.26-.35,7.88-.28,5.41-.36,10.82.85,16.13.66,2.9,5.08,2.82,5.78,0a77.59,77.59,0,0,0,.35-36.11l-1.38,3.38a2.73,2.73,0,0,1,1.64-.12c1.19.15,2.37.39,3.54.6q3.66.64,7.29,1.41V10.19a134.53,134.53,0,0,0-19,5.48c-2,.74-3.09,3.35-1.33,5,1.93,1.81,4.51,1.43,6.93,1.35s4.72-.19,7.07-.34c4.79-.31,9.57-.79,14.33-1.4l-.8-5.9C417,15.73,411,17.07,405.14,18.61q-4.35,1.14-8.65,2.46c-2.9.9-5.92,1.89-6.16,5.42a3,3,0,0,0,2.2,2.89c7.06,1,14.15,1.76,21.27,2.15l-2.89-2.2,0,.28V28l-.09.26.77-1.33c.24-.26.06-.05-.28,0s-1,.24-1.44.36l-2.89.72-5.77,1.45-11.55,2.9a3.05,3.05,0,0,0-2.21,2.9,3.16,3.16,0,0,0,2.21,2.89c5.34,2.24,11.28,1.92,16.93,1.5a3,3,0,0,0,2.95-2.6,3,3,0,0,0-2.15-3.29L404.07,33l1.79,1.38c.49.88-.4,1.63.57.71.48-.46,1-.9,1.51-1.33,1-.85,2-1.67,3.11-2.44a61.85,61.85,0,0,1,7.24-4.48c2.15-1.13,1.86-5.05-.71-5.48a37,37,0,0,0-9-.47,3,3,0,0,0-.79,5.89,70.16,70.16,0,0,1,6.79,3.07l.72-5.48-7.77,2.59c-2.61.87-5,1.53-6.75,3.81a2.94,2.94,0,0,0,0,3c1.47,2.25,3.74,2.72,6.21,3.17l7.86,1.44.8-5.89A62.28,62.28,0,0,0,405.5,34.1c-2,.49-3.14,3.6-1.33,5a22.84,22.84,0,0,0,7.56,4V37.33l-10.12,1.41a3,3,0,0,0-2.21,2.9,3.08,3.08,0,0,0,2.21,2.89l7.57,2.39V41.14l-6.24,1.27a3,3,0,0,0-2.15,3.29,3,3,0,0,0,2.94,2.6,60,60,0,0,0,18.49-1.68c2.9-.72,2.8-5,0-5.78l-7.57-2.08v5.78l10.63-4.45a3.14,3.14,0,0,0,2.2-2.89,3.07,3.07,0,0,0-2.2-2.89l-10.3-3v5.79l7.4-1.57a3,3,0,0,0,2.15-2.5,3.11,3.11,0,0,0-1.44-3l-5.61-3.94-.72,5.48,4.88-1.76c1.59-.57,3.2-1.05,4.06-2.63,2.07-3.81-2.91-6.35-5.38-8.13l-.72,5.49c1.86-.48,3.68-1,5.49-1.67a3.05,3.05,0,0,0,.72-5.49,15.68,15.68,0,0,1-3.91-3.71l-1.08,4.11,4-2a3,3,0,0,0,1.37-3.39c-.93-3.9-5.79-4.79-9.1-5.6A60.07,60.07,0,0,0,405,5.13v6c4.14-.22,8.29-.37,12.44-.42,2,0,3.93,0,5.89,0a12,12,0,0,1,4.65.62V6.14l-8.81,4.75c-1.87,1-2,4.22,0,5.18q5.64,2.67,11.11,5.67L429.65,17a16.75,16.75,0,0,1-4.38,2.7c-1.95.81-3.14,3.31-1.32,5a68.41,68.41,0,0,1,4.94,5.13l1.32-5-4,1.49c-1.29.48-2.87.84-3.87,1.84a3.93,3.93,0,0,0-.92,4,5.26,5.26,0,0,0,.94,1.64c.05.06.56.56.32.41s-.1-.13,0,0,.1.13,0-.2l1.16-2.43-.27.11a3.18,3.18,0,0,0-1,.42,4.28,4.28,0,0,0-1.6,1.56,4.48,4.48,0,0,0,.26,4.6s1,1.51,1.28,1.5c-.57,0,0-.9,0-1,0,.06-.2.19-.52.21s-1.08.07-1.59.07c-1.74,0-3.67,2-2.89,3.8l1,2.44,2.89-3.8-7.38.87c-1.73.21-3.67,1.79-2.89,3.8a19.4,19.4,0,0,0,2.5,4.69L417,46.44a19.57,19.57,0,0,1-4.18-1.19l-1.51,5.59,11.53.69c3,.17,4-4.18,1.52-5.6l-3.11-1.74-.72,5.48a34,34,0,0,1,6.46-.22,3,3,0,0,0,3-3,3.06,3.06,0,0,0-3-3,40.91,40.91,0,0,0-8.05.44c-2.64.38-2.8,4.31-.72,5.48l3.11,1.75,1.51-5.59-11.53-.69c-2.84-.17-4.27,4.4-1.52,5.59a26.4,26.4,0,0,0,5.61,1.8,3.07,3.07,0,0,0,3.16-1.08,3,3,0,0,0,.23-3.33,13.77,13.77,0,0,1-1.9-3.25L414,48.36l7.38-.87c1.68-.2,3.74-1.8,2.9-3.8l-1-2.44-2.89,3.8c2.33,0,4.68-.33,6.39-2.07a5.2,5.2,0,0,0,.45-6.88,4.12,4.12,0,0,0-.94-1.05c.43.68.2,1.44-.67,2.26-.26.12-.23.11.1,0a4,4,0,0,0,2.74-2.72,4.15,4.15,0,0,0-.48-3.26,5.12,5.12,0,0,0-.93-1.22c.2.26.2.26,0,0a2.19,2.19,0,0,1,0,1.76L426,32.9c.3-.18.31-.22,0-.11l.89-.33,1.56-.57,3.34-1.24a3.05,3.05,0,0,0,1.32-5,70.3,70.3,0,0,0-4.94-5.13l-1.32,5a26.31,26.31,0,0,0,7-4.24,3,3,0,0,0-.6-4.72q-5.48-3-11.11-5.67v5.18L431,11.32c1.84-1,2.07-4.25,0-5.18-4-1.76-8.33-1.48-12.58-1.44q-6.72.06-13.43.43c-3.84.21-3.88,5.88,0,6a50.6,50.6,0,0,1,9.18,1.1c1.53.32,3,.72,4.53,1.18l1.12.35.3.11c-.17-.09-.16-.08,0,0s.61.15.33.12l.22.21q-.46-1-.24-.27l1.38-3.38-4,2a3,3,0,0,0-1.08,4.1,23.78,23.78,0,0,0,6.06,5.86l.71-5.48q-2.7,1-5.49,1.67c-2.69.69-2.7,4.06-.71,5.48l2.06,1.48c.31.23.63.44.93.67.82.64-.25-.05-.17-.72l.41-1.51a1.2,1.2,0,0,1,.69-.55l-.93.34-1.63.59-3.48,1.25a3.05,3.05,0,0,0-.72,5.49l5.61,3.94.72-5.48-7.4,1.57c-3,.64-2.71,5,0,5.79l10.3,3V34.31l-10.62,4.45a3.13,3.13,0,0,0-2.21,2.89,3.05,3.05,0,0,0,2.21,2.89l7.56,2.08V40.84a54.54,54.54,0,0,1-16.89,1.46l.8,5.9,6.25-1.28c3.05-.62,2.65-5,0-5.78l-7.58-2.4v5.79l10.13-1.41a3,3,0,0,0,2.2-2.9,3.07,3.07,0,0,0-2.2-2.89,15.16,15.16,0,0,1-4.92-2.46l-1.32,5a54.25,54.25,0,0,1,8.58-1.41,3,3,0,0,0,2.94-2.6,3,3,0,0,0-2.15-3.29l-6.38-1.17c-1-.18-2-.35-2.94-.54-.35-.07-.69-.18-1-.23-.54-.09-.28-.17-.12.08v3a16,16,0,0,1,1.52-.5l3.06-1,6.35-2.12c2.3-.77,3.14-4.24.72-5.49a86.68,86.68,0,0,0-8.23-3.68l-.8,5.9a30.37,30.37,0,0,1,7.38.26l-.71-5.49a64.67,64.67,0,0,0-11.4,7.71c-1.75,1.48-3.75,3.15-3.84,5.64a3.93,3.93,0,0,0,1.72,3.48,16.16,16.16,0,0,0,4.08,1.15l.8-5.89c-5.18.39-10.44.77-15.34-1.29V38.2l14-3.5L412,33c2.8-.7,5.23-1.89,4.7-5.27a3,3,0,0,0-2.89-2.2c-6.58-.36-13.15-1-19.67-1.94l2.2,2.9c0,.21-.58,1.06-.56,1.17s.48-.24.16-.12c.55-.21,1.13-.36,1.69-.54,1.24-.39,2.48-.76,3.73-1.12,2.57-.74,5.15-1.43,7.74-2.09,5.11-1.29,10.25-2.45,15.39-3.61a3,3,0,0,0,2.14-3.29c-.19-1.32-1.44-2.8-2.94-2.6q-6.42.83-12.87,1.3-3.17.23-6.33.36c-1.06.05-2.11.08-3.17.11l-1.46,0H399a1.45,1.45,0,0,1,.59.33l-1.33,5a133.93,133.93,0,0,1,19-5.47c2.86-.6,2.86-5.19,0-5.79s-5.79-1.16-8.7-1.65-5.83-1.26-8.39.37a3.12,3.12,0,0,0-1.38,3.39,70.84,70.84,0,0,1-.34,32.92h5.78c-1.7-7.51-.33-15.28-.28-22.88,0-3.56,0-7.5-2.81-10.08-2.36-2.14-5.74-2.87-8.85-2.79-4,.1-7.07,1.93-8.52,5.72a26.08,26.08,0,0,0-1.09,4.62l-1.09,5.87c-.6,3.25-1.4,8.11,2.86,9.27a5,5,0,0,0,5.36-2.28c1.07-1.67.91-3.67,1.13-5.56a23.54,23.54,0,0,1,9.84-16.27l-2.31.3c.58.12.1,0-.05-.09-.38-.21-.11-.33-.11,0,0-.6.2,1.08.13.54a26.53,26.53,0,0,1,0,4.18c-.11,3.19-.26,6.39-.46,9.58q-.6,9.7-1.75,19.36l5.12-2.12c.11.14,0-.39,0-.56a10.63,10.63,0,0,1,.07-1.47c.2-1.56.45-3.1.61-4.67a69.69,69.69,0,0,0,.31-9.14,73.32,73.32,0,0,0-2.94-18.37l-5,2.92a2.75,2.75,0,0,1,.54,1.87c.07,1.35,0,2.72,0,4.07,0,3.05,0,6.09-.06,9.14s-.11,5.92-.2,8.88c-.08,2.44.15,5.32-.85,7.62l4.1-1.07c.1.07.24.25.32.29s0-.28,0-.15c0-.05,0-.86,0-1.21.05-1.43.14-2.87.2-4.31.13-2.88.23-5.76.25-8.64a90.47,90.47,0,0,0-1.4-17.47c-.63-3.37-5.9-2.52-5.89.8l.12,30.53,3.79-2.89a16.44,16.44,0,0,1-4.82-1.95,3.84,3.84,0,0,1-1.79-2.63h-6l.53,4.74a3,3,0,0,0,2.6,2.94,3,3,0,0,0,3.29-2.15,34.46,34.46,0,0,0-1.65-24.17l-5.18,3a25.5,25.5,0,0,1,4,16.67h6a57.39,57.39,0,0,1,.17-10,20.85,20.85,0,0,1,1.24-4.9,42.61,42.61,0,0,1,2.28-3.9c1.16-2.22.51-5-2.08-5.79-1.72-.52-4.19.06-5.82.73a7.19,7.19,0,0,0-4.14,4.21,14,14,0,0,0-.56,5.35c.1,4.77.32,9.54.63,14.3a3,3,0,0,0,6,0,108.75,108.75,0,0,0-.62-19.43,3.09,3.09,0,0,0-3-3c-1.47,0-3.2,1.38-3,3Z"/></g><g class="cls-7"><path class="cls-6" d="M441.09,26.43H425.48a1.13,1.13,0,0,0,0,2.25h15.61a1.13,1.13,0,0,0,0-2.25Z"/></g><g class="cls-7"><path class="cls-6" d="M437.27,15.59h-25.8a1.13,1.13,0,0,0,0,2.25h25.8a1.13,1.13,0,0,0,0-2.25Z"/></g><g class="cls-7"><path class="cls-6" d="M438.22,30.51a70.58,70.58,0,0,1-22-1.78,1.13,1.13,0,0,0-.6,2.17,72.88,72.88,0,0,0,22.61,1.86c1.43-.11,1.45-2.36,0-2.25Z"/></g><g class="cls-7"><path class="cls-6" d="M444.6,27q-16.26.48-32.51-.4c-1.45-.08-1.44,2.17,0,2.25q16.23.87,32.51.4c1.44,0,1.45-2.29,0-2.25Z"/></g><g class="cls-7"><path class="cls-6" d="M440.77,19c-10.17-1.26-20.95,1.74-30.7-2.29-1.34-.56-1.92,1.62-.6,2.17,10,4.12,20.92,1.09,31.3,2.37,1.43.18,1.42-2.07,0-2.25Z"/></g><g class="cls-7"><path class="cls-6" d="M432.49,40.45a39.66,39.66,0,0,1-12.13-1.27,1.13,1.13,0,0,0-.59,2.17,41.65,41.65,0,0,0,12.72,1.35c1.44-.07,1.45-2.32,0-2.25Z"/></g><g class="cls-3"><path d="M434,47.12H417.88a.38.38,0,0,0,0,.75H434a.38.38,0,0,0,0-.75Z"/></g><g class="cls-3"><path d="M434.86,51.36H411.51a.38.38,0,0,0,0,.75h23.35a.38.38,0,0,0,0-.75Z"/></g><g class="cls-3"><path d="M438.26,45.84H409a.38.38,0,0,0,0,.75h29.29a.38.38,0,0,0,0-.75Z"/></g><g class="cls-3"><path d="M437.41,39.44A267.62,267.62,0,0,1,406,38.68c-.49,0-.48.71,0,.75a267.62,267.62,0,0,0,31.41.76c.48,0,.48-.77,0-.75Z"/></g><g class="cls-3"><path d="M435.71,31H412a.38.38,0,0,0,0,.75h23.76a.38.38,0,0,0,0-.75Z"/></g><g class="cls-3"><path d="M437.84,25.05l-34.38,0a.38.38,0,0,0,0,.75l34.38,0a.38.38,0,0,0,0-.75Z"/></g><g class="cls-3"><path d="M427.23,29.61H447.6a.38.38,0,0,0,0-.75H427.23a.38.38,0,0,0,0,.75Z"/></g><g class="cls-3"><path d="M415.34,26.61a269.39,269.39,0,0,0,34-1.12c.48,0,.48-.8,0-.75a269.39,269.39,0,0,1-34,1.12c-.48,0-.48.73,0,.75Z"/></g><g class="cls-3"><path d="M419.59,21.12h17a.38.38,0,0,0,0-.75h-17a.38.38,0,0,0,0,.75Z"/></g><g class="cls-3"><path d="M418.31,46.16h22.92a.38.38,0,0,0,0-.75H418.31a.38.38,0,0,0,0,.75Z"/></g><g class="cls-3"><path d="M384.8,15.46a3.2,3.2,0,0,0,1.86-.15.37.37,0,0,0,.27-.41.39.39,0,0,0-.37-.33l-1.66,0,.32.57a3,3,0,0,1,1.61-1.33l-.37-.63a2.86,2.86,0,0,1-1.8.86l.32.57a.93.93,0,0,1,.26-.36.89.89,0,0,1,.4-.16l-.26-.64a.85.85,0,0,1-.93.22v.65l2.62-1.92a.37.37,0,0,0-.37-.65l-2.63,1.92a.39.39,0,0,0-.19.32.39.39,0,0,0,.19.33,1.61,1.61,0,0,0,1.84-.34.38.38,0,0,0-.27-.64,1.55,1.55,0,0,0-1.3.89.37.37,0,0,0,.32.56A3.63,3.63,0,0,0,387,13.74c.25-.25,0-.76-.36-.63a3.92,3.92,0,0,0-2.06,1.68.38.38,0,0,0,.33.56l1.66,0-.1-.73a2.51,2.51,0,0,1-1.46.15.38.38,0,0,0-.46.26.37.37,0,0,0,.26.46Z"/></g><g class="cls-3"><path d="M383.24,17.15h2.32a.38.38,0,0,0,.38-.38.38.38,0,0,0-.38-.37h-2.32a.38.38,0,0,0-.38.37.39.39,0,0,0,.38.38Z"/></g><g class="cls-3"><path d="M383.23,17.16a9.46,9.46,0,0,0,4.17-.76.37.37,0,0,0,.14-.51.4.4,0,0,0-.52-.13,8.75,8.75,0,0,1-3.79.65c-.48,0-.48.73,0,.75Z"/></g><g class="cls-3"><path d="M389.88,19.69l7.31-.34c.48,0,.48-.78,0-.75l-7.31.34c-.48,0-.49.78,0,.75Z"/></g><g class="cls-3"><path d="M390.55,18.45a16.57,16.57,0,0,0,6.75-.63c.46-.15.26-.87-.2-.73a16,16,0,0,1-6.55.61c-.48-.06-.47.69,0,.75Z"/></g></g></g></svg>