<svg xmlns="http://www.w3.org/2000/svg" viewBox="0 0 1027.38 579.88"><defs><style>.cls-1{fill:#cdd6c5;}.cls-2{fill:#fff;}.cls-3{stroke:#000;stroke-miterlimit:10;}</style></defs><g id="Layer_2" data-name="Layer 2"><g id="Layer_1-2" data-name="Layer 1"><rect class="cls-1" width="1027.38" height="507.55"/><rect class="cls-2" y="231.39" width="1027.38" height="348.49"/><path class="cls-3" d="M134.8,239.84a112.23,112.23,0,0,1-39.62-7.18A122.11,122.11,0,0,1,72,220.48c-8.38-5.43-15.25-12.36-21.78-19.76-12.94-14.64-19.8-31.92-23.39-50.82a81.85,81.85,0,0,1-.9-27.55C28.75,103.13,35,85.06,47.42,69.7c6.26-7.74,13.16-15,21.4-20.83,15.65-11,32.87-18.22,52.06-20.52a111,111,0,0,1,59.67,8.91c1.68.76,3.38,1.46,5,2.26s2.59,2.08,1.65,3.9-2.4,1.86-4.13,1.06c-7.14-3.27-14.33-6.4-22-8.26a108.06,108.06,0,0,0-45-1.53A105.69,105.69,0,0,0,72.1,53.56,103.25,103.25,0,0,0,49.92,76.14c-15.72,21.26-20.87,45.11-17.73,71A90.76,90.76,0,0,0,47.46,188c6.07,8.85,13,17.08,21.69,23.66,24.22,18.46,51.49,25.7,81.76,21.42a103.44,103.44,0,0,0,29.27-9c8.18-3.81,15.38-8.94,22.4-14.49,9.46-7.48,16.45-16.87,22.6-27,11.66-19.29,14.87-40.18,12.34-62.21-.21-1.84.2-3.24,2.2-3.66,1.79-.38,3,.65,3.3,2.89a104.79,104.79,0,0,1-6.76,53.65,81.11,81.11,0,0,1-8.78,16.89c-6.45,9.06-13.31,17.87-22.21,24.74-7.05,5.45-14.36,10.58-22.54,14.3C167.52,236.12,151.61,240,134.8,239.84Z"/><path class="cls-3" d="M159.82,113.12c1.47,4.66,5.1,7.08,9.58,6.39,4.1-.64,6.88-4.09,6.89-8.77q0-27.84,0-55.68c0-3.78.31-4.24,4-4.77,15.66-2.27,31.33-4.48,47-6.73,2.67-.38,5.34-.83,8-1.23,2.86-.44,4.11.54,4.11,3.43,0,19,.07,38,0,57.06a13.75,13.75,0,0,1-11.95,13.92c-7.47.91-13.91-3.2-15.85-10.1a13.91,13.91,0,0,1,12.71-17.4c2.88-.13,4.55,1.51,3.77,3.71-.58,1.63-1.95,1.7-3.39,1.82a8.06,8.06,0,0,0-7.33,5.14,7.86,7.86,0,0,0,1.26,8.41,8.63,8.63,0,0,0,9.23,2.66,8,8,0,0,0,5.9-7,17.39,17.39,0,0,0,.11-2.29c0-17.1,0-34.21,0-51.31,0-1.7-.14-2.3-2.21-2-15.35,2.33-30.71,4.49-46.08,6.68-3.28.46-3.28.41-3.28,3.64,0,17.1,0,34.2,0,51.31,0,6-2.71,10.72-8.1,13.55s-11,1.83-15.62-1.8c-8.42-6.6-5.22-18.62,1.39-21.86a20.56,20.56,0,0,1,6.91-2.41c2.19-.23,3.6.71,3.78,2.44s-.85,2.77-3.17,3.05c-4.14.49-6.65,2.69-7.73,6.78A3.16,3.16,0,0,0,159.82,113.12Z"/><path class="cls-3" d="M93.69,132.28c.48-13.43,6.73-25.22,19.58-32.8,11.39-6.73,23.7-7.81,36.31-3.22,2.35.86,3.13,2.2,2.46,3.92s-2.16,2.1-4.47,1.25a35.38,35.38,0,0,0-25.79.14c-12.53,4.89-20.18,14-22.09,27.18-1.88,13,2.48,24.11,13,32.06a35.89,35.89,0,0,0,43.69.17c9-6.67,13.32-15.54,13.93-26.45.15-2.56,1-3.64,2.92-3.56s2.75,1.35,2.63,3.83c-.57,12.23-5.3,22.65-15.17,30-13.45,10-28.15,11.71-43.86,5C105.54,164.91,93.69,151.5,93.69,132.28Z"/><path class="cls-3" d="M134.68,150.78a17.07,17.07,0,1,1-.09-34.14c9.9,0,17.55,7.31,17.69,16.87S144.57,150.72,134.68,150.78Z"/><path class="cls-3" d="M41.52,110.48c.65-2.07,1.32-4.67,2.27-7.16,5.61-14.71,13.94-27.7,25.76-38.23A94.14,94.14,0,0,1,87.34,52.42c2.11-1.14,3.78-1,4.66.52s.29,3.07-1.81,4.25A104.3,104.3,0,0,0,71.87,70.76C61.26,80.26,54.28,92,49.44,105.19a54.38,54.38,0,0,0-2.53,6.73,2.5,2.5,0,0,1-3.21,1.92C42.27,113.52,41.49,112.52,41.52,110.48Z"/><path class="cls-3" d="M177,213c-.08-1.57.93-2.34,2.16-3,9.29-4.68,16.79-11.51,23.85-19,9.06-9.59,14.77-20.92,18.58-33.33.23-.74.35-1.5.61-2.22a3,3,0,0,1,4.09-1.88c1.71.59,2.09,1.93,1.72,3.52-1,4.29-3,8.23-4.69,12.27a83.62,83.62,0,0,1-17.81,27.44c-6.75,6.81-14.09,13-22.62,17.66-1.31.71-2.67,1.64-4.32.84A2.6,2.6,0,0,1,177,213Z"/><path class="cls-3" d="M216,153.43c-.34,1.26-.66,2.59-1.07,3.9-2.27,7.19-5.16,14.14-9.57,20.27-6.3,8.73-13.42,16.75-22.5,22.8-2.29,1.52-4.74,2.8-7.13,4.19-1.61.93-3.12.94-4.25-.71-1-1.45-.42-3.06,1.57-4.13a75.44,75.44,0,0,0,27.46-25.38,69.48,69.48,0,0,0,9.88-21.45c.4-1.63,1.4-2.63,3.11-2.43S215.92,151.76,216,153.43Z"/><path class="cls-3" d="M56.44,116.84a2.68,2.68,0,0,1-2.73-3.4C56.81,101.74,62,91,70.07,81.91A86.56,86.56,0,0,1,89.3,65.22a53.91,53.91,0,0,1,4.85-2.63c1.66-.8,3-.6,4,1s.27,3-1.27,3.85a68.89,68.89,0,0,0-12.1,8A107,107,0,0,0,72.59,88C66,95.65,62.1,104.55,59.29,114.06,58.67,116.14,58,116.82,56.44,116.84Z"/><path class="cls-3" d="M67.46,119.58c-2.17,0-3.56-1.57-3.07-3.28C66,110.61,67.83,105,71.19,100c3.14-4.74,6.18-9.51,10-13.75a67.14,67.14,0,0,1,18-13.87c2-1.09,3.57-.85,4.43.66s.3,3-1.67,4.13a63.06,63.06,0,0,0-27.65,29.28c-1.65,3.56-3,7.25-4.43,10.92C69.34,118.7,68.55,119.54,67.46,119.58Z"/><path class="cls-3" d="M168.94,195.62c-1.69-.05-2.57-.64-3-1.74a2.59,2.59,0,0,1,.66-3,8.88,8.88,0,0,1,1.55-1c15.53-9.12,26.19-22,31-39.41.72-2.59,1.92-3.22,4.17-2.44,1.9.65,2.27,2,1.67,3.62-2.85,7.87-6,15.59-11,22.46A60.25,60.25,0,0,1,183.45,186a86.6,86.6,0,0,1-13,9.06A4.72,4.72,0,0,1,168.94,195.62Z"/><path class="cls-3" d="M193.89,148.23c-.32,1.12-.68,2.61-1.17,4.06a52.53,52.53,0,0,1-9.05,17,66,66,0,0,1-18.59,15.93c-2,1.09-3.57.84-4.39-.76-.93-1.81-.11-3.06,1.5-4,7.59-4.28,13.54-10.22,18.68-17.22a49.74,49.74,0,0,0,7.46-15.77c.47-1.57,1.4-2.66,3.14-2.45C193,145.19,193.9,146.22,193.89,148.23Z"/><path class="cls-3" d="M109.3,84.21c0,1.56-1.06,2.27-2.24,2.93a59.07,59.07,0,0,0-16.67,14.31,48.18,48.18,0,0,0-9,18c-.66,2.36-1.92,3.31-3.69,2.85s-2.38-1.94-1.69-4.34A56.38,56.38,0,0,1,91.77,91.57a59.69,59.69,0,0,1,13-9.48C107.08,80.88,109.27,81.91,109.3,84.21Z"/><path class="cls-3" d="M188.51,67.21c-1.71.07-3-.53-3.18-2.45-.18-2.07,1.17-2.85,3-3.1q10.32-1.45,20.64-2.86c6-.82,11.93-1.62,17.89-2.45,1.88-.26,3.29.28,3.57,2.28s-.83,2.88-2.6,3.13Q208.19,64.51,188.51,67.21Z"/><path class="cls-3" d="M159.82,113.12c-1.36-1.09-1.54-2.18,0-3.3C159.79,110.92,159.8,112,159.82,113.12Z"/><path class="cls-3" d="M134.72,122.17c6.87.06,12.11,5.15,12,11.64a11.89,11.89,0,0,1-23.78-.27A11.55,11.55,0,0,1,134.72,122.17Z"/></g></g></svg>