<svg xmlns="http://www.w3.org/2000/svg" viewBox="0 0 966.22 907.93"><defs><style>.cls-1{fill:#ccc;}.cls-2{fill:#fff;}.cls-3{fill:#fefefe;}</style></defs><g id="Layer_2" data-name="Layer 2"><g id="Layer_1-2" data-name="Layer 1"><rect class="cls-1" x="4.53" y="114.08" width="118.57" height="113.49"/><rect class="cls-1" x="845.75" y="227.57" width="118.57" height="113.49"/><rect class="cls-1" x="246.21" y="114.08" width="118.57" height="113.49"/><rect class="cls-2" x="125.75" y="114.08" width="118.57" height="113.49"/><rect class="cls-2" x="366.8" y="114.08" width="118.57" height="113.49"/><rect class="cls-1" x="485.37" y="114.08" width="118.57" height="113.49"/><rect class="cls-1" x="727.05" y="114.08" width="118.57" height="113.49"/><rect class="cls-2" x="606.59" y="114.08" width="118.57" height="113.49"/><rect class="cls-2" x="847.64" y="114.08" width="118.57" height="113.49"/><rect class="cls-1" x="124.43" y="227.57" width="118.57" height="113.49"/><rect class="cls-2" x="3.96" y="227.57" width="118.57" height="113.49"/><rect class="cls-2" x="245.02" y="227.57" width="118.57" height="113.49"/><rect class="cls-1" x="363.59" y="227.57" width="118.57" height="113.49"/><rect class="cls-1" x="605.27" y="227.57" width="118.57" height="113.49"/><rect class="cls-2" x="484.8" y="227.57" width="118.57" height="113.49"/><rect class="cls-2" x="725.86" y="227.57" width="118.57" height="113.49"/><rect class="cls-1" x="1.32" y="341.06" width="118.57" height="113.49"/><rect class="cls-1" x="243" y="341.06" width="118.57" height="113.49"/><rect class="cls-2" x="122.53" y="341.06" width="118.57" height="113.49"/><rect class="cls-2" x="363.59" y="341.06" width="118.57" height="113.49"/><rect class="cls-1" x="482.16" y="341.06" width="118.57" height="113.49"/><rect class="cls-1" x="723.84" y="341.06" width="118.57" height="113.49"/><rect class="cls-2" x="603.37" y="341.06" width="118.57" height="113.49"/><rect class="cls-2" x="844.43" y="341.06" width="118.57" height="113.49"/><rect class="cls-1" x="1.03" y="568.05" width="118.57" height="113.49"/><rect class="cls-1" x="242.71" y="568.05" width="118.57" height="113.49"/><rect class="cls-2" x="122.25" y="568.05" width="118.57" height="113.49"/><rect class="cls-2" x="363.3" y="568.05" width="118.57" height="113.49"/><rect class="cls-1" x="481.88" y="568.05" width="118.57" height="113.49"/><rect class="cls-1" x="723.55" y="568.05" width="118.57" height="113.49"/><rect class="cls-2" x="603.09" y="568.05" width="118.57" height="113.49"/><rect class="cls-2" x="844.14" y="568.05" width="118.57" height="113.49"/><rect class="cls-1" x="844.72" y="455.14" width="118.57" height="113.49"/><rect class="cls-1" x="121.5" y="455.14" width="118.57" height="113.49"/><rect class="cls-2" x="1.03" y="455.14" width="118.57" height="113.49"/><rect class="cls-2" x="242.09" y="455.14" width="118.57" height="113.49"/><rect class="cls-1" x="360.66" y="455.14" width="118.57" height="113.49"/><rect class="cls-1" x="602.34" y="455.14" width="118.57" height="113.49"/><rect class="cls-2" x="481.88" y="455.14" width="118.57" height="113.49"/><rect class="cls-2" x="722.93" y="455.14" width="118.57" height="113.49"/><rect class="cls-1" x="843.68" y="680.95" width="118.57" height="113.49"/><rect class="cls-1" x="120.46" y="680.95" width="118.57" height="113.49"/><rect class="cls-2" y="680.95" width="118.57" height="113.49"/><rect class="cls-2" x="241.06" y="680.95" width="118.57" height="113.49"/><rect class="cls-1" x="359.63" y="680.95" width="118.57" height="113.49"/><rect class="cls-1" x="601.31" y="680.95" width="118.57" height="113.49"/><rect class="cls-2" x="480.84" y="680.95" width="118.57" height="113.49"/><rect class="cls-2" x="721.9" y="680.95" width="118.57" height="113.49"/><rect class="cls-1" x="847.36" width="118.57" height="113.49"/><rect class="cls-1" x="124.14" width="118.57" height="113.49"/><rect class="cls-2" x="3.68" width="118.57" height="113.49"/><rect class="cls-2" x="244.73" width="118.57" height="113.49"/><rect class="cls-1" x="363.3" width="118.57" height="113.49"/><rect class="cls-1" x="604.98" width="118.57" height="113.49"/><rect class="cls-2" x="484.52" width="118.57" height="113.49"/><rect class="cls-2" x="725.57" width="118.57" height="113.49"/><rect class="cls-1" x="0.97" y="794.44" width="118.57" height="113.49"/><rect class="cls-1" x="242.64" y="794.44" width="118.57" height="113.49"/><rect class="cls-2" x="122.18" y="794.44" width="118.57" height="113.49"/><rect class="cls-2" x="363.24" y="794.44" width="118.57" height="113.49"/><rect class="cls-1" x="481.81" y="794.44" width="118.57" height="113.49"/><rect class="cls-1" x="723.48" y="794.44" width="118.57" height="113.49"/><rect class="cls-2" x="603.02" y="794.44" width="118.57" height="113.49"/><rect class="cls-2" x="844.08" y="794.44" width="118.57" height="113.49"/><g id="_4ih7P7" data-name="4ih7P7"><path d="M408.28,713.22c-16.07.63-32.12,1.91-48.17,2.92-12.2.77-22.2-2.84-31.19-11.13q-61.82-57-124-113.55c-16-14.63-16.81-34.27-2-50.15q97.55-104.64,195.16-209.22,67.72-72.6,135.42-145.19c16.12-17.29,35.29-18.12,52.78-2.14q88.44,80.84,176.85,161.7c17.41,15.94,18.13,35.13,2.09,52.32Q679.27,490.88,593.36,583q-53.82,57.66-107.69,115.26c-7.82,8.42-17,12.81-28.56,13.1-16.28.41-32.55,1.22-48.83,1.86C408.3,713.53,408.27,712.9,408.28,713.22Z"/><path class="cls-3" d="M407.71,692.66c-17.38.68-34.77,1.26-52.14,2.12a11.05,11.05,0,0,1-8.89-3.17q-65.42-60.35-131.07-120.45a8.4,8.4,0,0,1-2.75-6.48v-.13a8.43,8.43,0,0,1,2.26-5.42q82.47-88.58,164.64-177.46c3.24-3.51,4.73-2.71,7.67,0q95.79,88.24,191.82,176.23c3.63,3.32,3.84,5,.38,8.69q-55.26,59.07-110.06,118.56a13.52,13.52,0,0,1-10.46,4.76c-17.15.48-34.26,2.08-51.4,2.75Z"/></g><path d="M359.59,710.61l152.76.86,152,.85,85.73.48c3.93,0,7.68-3.47,7.5-7.5a7.62,7.62,0,0,0-7.5-7.5l-152.76-.86-152-.85-85.73-.48c-3.92,0-7.68,3.46-7.5,7.5a7.63,7.63,0,0,0,7.5,7.5Z"/></g></g></svg>