<svg xmlns="http://www.w3.org/2000/svg" viewBox="0 0 966.22 907.93"><defs><style>.cls-1{fill:#ccc;}.cls-2{fill:#fff;}</style></defs><g id="Layer_2" data-name="Layer 2"><g id="Layer_1-2" data-name="Layer 1"><rect class="cls-1" x="4.53" y="114.08" width="118.57" height="113.49"/><rect class="cls-1" x="845.75" y="227.57" width="118.57" height="113.49"/><rect class="cls-1" x="246.21" y="114.08" width="118.57" height="113.49"/><rect class="cls-2" x="125.75" y="114.08" width="118.57" height="113.49"/><rect class="cls-2" x="366.8" y="114.08" width="118.57" height="113.49"/><rect class="cls-1" x="485.37" y="114.08" width="118.57" height="113.49"/><rect class="cls-1" x="727.05" y="114.08" width="118.57" height="113.49"/><rect class="cls-2" x="606.59" y="114.08" width="118.57" height="113.49"/><rect class="cls-2" x="847.64" y="114.08" width="118.57" height="113.49"/><rect class="cls-1" x="124.43" y="227.57" width="118.57" height="113.49"/><rect class="cls-2" x="3.96" y="227.57" width="118.57" height="113.49"/><rect class="cls-2" x="245.02" y="227.57" width="118.57" height="113.49"/><rect class="cls-1" x="363.59" y="227.57" width="118.57" height="113.49"/><rect class="cls-1" x="605.27" y="227.57" width="118.57" height="113.49"/><rect class="cls-2" x="484.8" y="227.57" width="118.57" height="113.49"/><rect class="cls-2" x="725.86" y="227.57" width="118.57" height="113.49"/><rect class="cls-1" x="1.32" y="341.06" width="118.57" height="113.49"/><rect class="cls-1" x="243" y="341.06" width="118.57" height="113.49"/><rect class="cls-2" x="122.53" y="341.06" width="118.57" height="113.49"/><rect class="cls-2" x="363.59" y="341.06" width="118.57" height="113.49"/><rect class="cls-1" x="482.16" y="341.06" width="118.57" height="113.49"/><rect class="cls-1" x="723.84" y="341.06" width="118.57" height="113.49"/><rect class="cls-2" x="603.37" y="341.06" width="118.57" height="113.49"/><rect class="cls-2" x="844.43" y="341.06" width="118.57" height="113.49"/><rect class="cls-1" x="1.03" y="568.05" width="118.57" height="113.49"/><rect class="cls-1" x="242.71" y="568.05" width="118.57" height="113.49"/><rect class="cls-2" x="122.25" y="568.05" width="118.57" height="113.49"/><rect class="cls-2" x="363.3" y="568.05" width="118.57" height="113.49"/><rect class="cls-1" x="481.88" y="568.05" width="118.57" height="113.49"/><rect class="cls-1" x="723.55" y="568.05" width="118.57" height="113.49"/><rect class="cls-2" x="603.09" y="568.05" width="118.57" height="113.49"/><rect class="cls-2" x="844.14" y="568.05" width="118.57" height="113.49"/><rect class="cls-1" x="844.72" y="455.14" width="118.57" height="113.49"/><rect class="cls-1" x="121.5" y="455.14" width="118.57" height="113.49"/><rect class="cls-2" x="1.03" y="455.14" width="118.57" height="113.49"/><rect class="cls-2" x="242.09" y="455.14" width="118.57" height="113.49"/><rect class="cls-1" x="360.66" y="455.14" width="118.57" height="113.49"/><rect class="cls-1" x="602.34" y="455.14" width="118.57" height="113.49"/><rect class="cls-2" x="481.88" y="455.14" width="118.57" height="113.49"/><rect class="cls-2" x="722.93" y="455.14" width="118.57" height="113.49"/><rect class="cls-1" x="843.68" y="680.95" width="118.57" height="113.49"/><rect class="cls-1" x="120.46" y="680.95" width="118.57" height="113.49"/><rect class="cls-2" y="680.95" width="118.57" height="113.49"/><rect class="cls-2" x="241.06" y="680.95" width="118.57" height="113.49"/><rect class="cls-1" x="359.63" y="680.95" width="118.57" height="113.49"/><rect class="cls-1" x="601.31" y="680.95" width="118.57" height="113.49"/><rect class="cls-2" x="480.84" y="680.95" width="118.57" height="113.49"/><rect class="cls-2" x="721.9" y="680.95" width="118.57" height="113.49"/><g id="yIUfeg.tif"><path d="M580.38,203.72c2,.48,4,1,6.08,1.44a64.76,64.76,0,0,1,34,19c15,15.54,30.92,30.3,46.48,45.36q26.21,25.36,52.46,50.7c28.38,27.54,29.5,65.49,2.88,94.42Q606.89,539.92,491.56,665.26c-1,1.11-2,2.27-3.76,4.31H780.46v35.77h-7.59q-203.77,0-407.54.13c-22.92,0-41.38-6.58-57.61-23.19-31.41-32.17-63.62-63.72-97.14-93.81-26.47-23.77-26.59-67.08-3-92.55,33.78-36.42,67-73.3,100.51-110q71.49-78.33,143-156.66c12.21-13.4,27.12-21.9,45.5-24.54a12,12,0,0,0,2.62-1ZM429,383.38h35.56c-1.57,1.88-2.38,2.92-3.26,3.89-41.15,45.58-82.42,91.05-123.3,136.84a42.72,42.72,0,0,0-9.24,17.58c-2.86,11.64,3.25,20.88,11.54,28.89q47.76,46.11,95.52,92.25c1.18,1.14,2.5,2.14,4.54,3.87,5.11-4.23,10.61-7.81,14.85-12.46q61.11-67,121.85-134.35c1.24-1.37,2.37-2.83,3.66-4.37-1.4-1.7-2.56-3.17-3.79-4.59Q523.53,449.34,470,387.83c-3.28-3.75-3.36-5.9.06-9.64q60.71-66.6,121.08-133.5c1.31-1.45,2.52-3,4.51-5.33-11.39,0-21.42.19-31.43-.08a11.54,11.54,0,0,0-9.92,4.22Q493.2,311.27,431.88,378.85c-1.19,1.32-1.85,3.08-2.81,4.59-2.29-.23-4.57-.66-6.86-.67-18.16,0-36.32.1-54.48-.12a12.55,12.55,0,0,0-10.41,4.44q-62.16,67.2-124.56,134.2c-13.45,14.5-12.95,29.63,1.36,43.46q48.75,47.12,97.54,94.2a38.55,38.55,0,0,0,26.5,10.84c14.29.36,28.59.11,42.88.07a34.25,34.25,0,0,0,4.15-.48l1-1.61a45,45,0,0,1-5.64-4q-39.42-37.93-78.69-76C294.75,561.4,294.12,526,320,498.6q33.36-35.39,66.67-70.81C400.68,412.92,414.87,398.18,429,383.38Z"/><path class="cls-2" d="M429.11,383.48a27.8,27.8,0,0,1,2.77-4.63Q493.1,311.17,554.31,243.5a11.54,11.54,0,0,1,9.92-4.22c10,.27,20,.08,31.43.08-2,2.36-3.2,3.88-4.51,5.33q-60.48,66.8-121.08,133.5c-3.42,3.74-3.34,5.89-.06,9.64q53.64,61.4,106.92,123.1c1.23,1.42,2.39,2.89,3.79,4.59-1.29,1.54-2.42,3-3.66,4.37q-60.87,67.23-121.85,134.35c-4.24,4.65-9.74,8.23-14.85,12.46-2-1.73-3.36-2.73-4.54-3.87Q388,616.72,340.3,570.58c-8.29-8-14.4-17.25-11.54-28.89A42.72,42.72,0,0,1,338,524.11c40.88-45.79,82.15-91.26,123.3-136.84.88-1,1.69-2,3.26-3.89H429Z"/><path class="cls-2" d="M429,383.38c-14.13,14.8-28.32,29.54-42.37,44.41Q353.23,463.13,320,498.6c-25.84,27.41-25.21,62.8,1.87,89.18q39.17,38.16,78.69,76a45,45,0,0,0,5.64,4l-1,1.61a34.25,34.25,0,0,1-4.15.48c-14.29,0-28.59.29-42.88-.07A38.55,38.55,0,0,1,331.66,659q-48.8-47.07-97.54-94.2c-14.31-13.83-14.81-29-1.36-43.46Q295,454.2,357.32,387.09a12.55,12.55,0,0,1,10.41-4.44c18.16.22,36.32.07,54.48.12a67.34,67.34,0,0,1,6.88.69Z"/></g><rect class="cls-1" x="847.36" width="118.57" height="113.49"/><rect class="cls-1" x="124.14" width="118.57" height="113.49"/><rect class="cls-2" x="3.68" width="118.57" height="113.49"/><rect class="cls-2" x="244.73" width="118.57" height="113.49"/><rect class="cls-1" x="363.3" width="118.57" height="113.49"/><rect class="cls-1" x="604.98" width="118.57" height="113.49"/><rect class="cls-2" x="484.52" width="118.57" height="113.49"/><rect class="cls-2" x="725.57" width="118.57" height="113.49"/><rect class="cls-1" x="0.97" y="794.44" width="118.57" height="113.49"/><rect class="cls-1" x="242.64" y="794.44" width="118.57" height="113.49"/><rect class="cls-2" x="122.18" y="794.44" width="118.57" height="113.49"/><rect class="cls-2" x="363.24" y="794.44" width="118.57" height="113.49"/><rect class="cls-1" x="481.81" y="794.44" width="118.57" height="113.49"/><rect class="cls-1" x="723.48" y="794.44" width="118.57" height="113.49"/><rect class="cls-2" x="603.02" y="794.44" width="118.57" height="113.49"/><rect class="cls-2" x="844.08" y="794.44" width="118.57" height="113.49"/></g></g></svg>