<svg xmlns="http://www.w3.org/2000/svg" viewBox="0 0 719.26 635.04"><defs><style>.cls-1{fill:#cdd6c5;}.cls-2{fill:none;stroke-width:0.3px;}.cls-15,.cls-2{stroke:#000;}.cls-3{opacity:0.4;}.cls-4{fill:#6c62b5;}.cls-5{fill:#8da3b7;}.cls-6{opacity:0.38;}.cls-7{fill:#006837;}.cls-8{fill:#fff;}.cls-9{fill:#6c9c83;}.cls-10{font-size:75px;}.cls-10,.cls-16,.cls-17{font-family:BrandonGrotesque-Bold, Brandon Grotesque;font-weight:700;}.cls-11{letter-spacing:-0.03em;}.cls-12{letter-spacing:0em;}.cls-13{letter-spacing:-0.01em;}.cls-14{opacity:0.54;}.cls-15{stroke-miterlimit:10;stroke-width:0.25px;}.cls-16,.cls-17{font-size:40px;}.cls-17{letter-spacing:0em;}.cls-18{letter-spacing:0em;}.cls-19{opacity:0.97;}</style></defs><g id="Layer_2" data-name="Layer 2"><g id="Layer_1-2" data-name="Layer 1"><path class="cls-1" d="M359.63,54C190.84,54,54,206,54,393.58c0,66.2,17.07,128,46.57,180.18,27.19,0,54.39.53,81.58,1.12,24.93.55,49.86,1.17,74.79,1.54,22.84.34,45.9-.63,68.65,1.78l.27,0a4.47,4.47,0,0,1,2.63-.48c18.71,1.81,37-4.22,55.63-4.92,36.27-1.37,72.65,2.28,108.76,5.1,18,1.4,36.06,2.59,54.13,3,18.35.44,36.68-1,55-.21a5.53,5.53,0,0,1,1.39.24c3.81-.22,7.62-.43,11.43-.58,31.85-53.6,50.4-117.8,50.4-186.83C665.26,206,528.43,54,359.63,54Z"/><line class="cls-2" x1="54" x2="54" y2="36"/><line class="cls-2" y1="54" x2="36" y2="54"/><line class="cls-2" y1="581.04" x2="36" y2="581.04"/><line class="cls-2" x1="54" y1="635.04" x2="54" y2="599.04"/><line class="cls-2" x1="665.26" x2="665.26" y2="36"/><line class="cls-2" x1="719.26" y1="54" x2="683.26" y2="54"/><line class="cls-2" x1="719.26" y1="581.04" x2="683.26" y2="581.04"/><line class="cls-2" x1="665.26" y1="635.04" x2="665.26" y2="599.04"/><g class="cls-3"><path class="cls-4" d="M127.61,552l145.46.06,144.72.05,81.64,0v-15c-44.88,2.06-89.81.94-134.67-.89q-18.86-.78-37.71-1.66v15L417.34,552l25.64.67v-15a293.54,293.54,0,0,1-36.65-2.38v15a172.08,172.08,0,0,1,32,1.11v-15c-24.14-2.09-48.41-1.23-72.57.18C341.44,538,317.11,540,292.71,540a340.21,340.21,0,0,1-40.62-2.12c-3.91-.46-7.66,3.78-7.5,7.5.2,4.45,3.31,7,7.5,7.5,24,2.81,48.2,2.4,72.28,1.15,24.39-1.27,48.73-3.37,73.15-3.85a386.07,386.07,0,0,1,40.82,1.16c3.92.34,7.67-3.69,7.5-7.5-.2-4.49-3.31-7-7.5-7.5a172.08,172.08,0,0,0-32-1.11c-3.91.23-7.69,3.29-7.5,7.5.2,4.49,3.31,7,7.5,7.5A293.54,293.54,0,0,0,443,552.64c3.92,0,7.68-3.45,7.5-7.5a7.66,7.66,0,0,0-7.5-7.5l-90.29-2.38-25.64-.68a7.57,7.57,0,0,0-7.5,7.5,7.66,7.66,0,0,0,7.5,7.5c44.86,2,89.75,4.07,134.67,3.6q18.86-.21,37.71-1c3.91-.18,7.68-3.32,7.5-7.5a7.63,7.63,0,0,0-7.5-7.5L354,537.07,209.25,537l-81.64,0c-3.92,0-7.68,3.45-7.5,7.5a7.63,7.63,0,0,0,7.5,7.5Z"/></g><path class="cls-5" d="M374.71,230.52c1.54-.24,3.08-.47,4.63-.68l-2.4.32a54.76,54.76,0,0,1,13.89-.38l-2.39-.33a27.14,27.14,0,0,1,6.86,1.81l-2.15-.91a23.8,23.8,0,0,1,5,2.93l-1.82-1.41a22.68,22.68,0,0,1,3.58,3.55l-1.41-1.82a19.55,19.55,0,0,1,2.36,4l-.91-2.15a17,17,0,0,1,1.06,3.76l-.32-2.39q.12.9.15,1.8l9-9c-.83-.06-1.66-.14-2.48-.24l2.39.32a43.17,43.17,0,0,1-10.81-2.93l2.15.91a43.88,43.88,0,0,1-9.39-5.47l1.82,1.41-1-.78-6.36,15.36a18.24,18.24,0,0,1,3.13.11l-2.4-.32a19,19,0,0,1,4.25,1.16L389,238.2a24.45,24.45,0,0,1,5.36,3.2L392.5,240a45.42,45.42,0,0,1,7.47,7.77l-1.41-1.82c3.51,4.56,6.45,9.53,9.61,14.33A186.36,186.36,0,0,0,420,276.42c8.36,10.13,18.73,18.46,31.23,22.82a46.27,46.27,0,0,0,18.8,2.61,41.85,41.85,0,0,0,10.1-1.93c3.82-1.31,7.66-3.06,10.44-6.11,5.49-6,6.74-15.31,7.57-23.11.67-6.4.33-13.7-3.45-19.17a18,18,0,0,0-5.57-5.48,15.89,15.89,0,0,0-7.11-2,16.52,16.52,0,0,0-11.68,4.21,13.52,13.52,0,0,0-4.06,13.27,16.62,16.62,0,0,0,2.44,5.37,25.81,25.81,0,0,1,2.06,3.28l-.91-2.15a6.18,6.18,0,0,1,.41,1.41l-.32-2.39a6.31,6.31,0,0,1,0,.87l.32-2.39a4.85,4.85,0,0,1-.31,1.13l.9-2.15a4.56,4.56,0,0,1-.4.67l1.41-1.83a4.26,4.26,0,0,1-.52.52l1.82-1.4a4.75,4.75,0,0,1-.85.48l2.15-.9a6.17,6.17,0,0,1-1.27.3l2.4-.32a9,9,0,0,1-2,0l2.4.32a14.66,14.66,0,0,1-3.51-1l2.15.91c-4.17-1.83-8.19-4.09-12.26-6.14-3.65-1.83-7.31-3.65-10.93-5.54a125.28,125.28,0,0,1-18.25-11.27l1.82,1.41a59.92,59.92,0,0,1-10.56-10.31l1.4,1.82a42.84,42.84,0,0,1-5.47-9.25l.9,2.15c-.42-1-.81-2.05-1.16-3.1a9.08,9.08,0,0,0-9.88-6.45A8.58,8.58,0,0,0,405,218c-1.5,1.64-2.9,4-2.63,6.36a58.51,58.51,0,0,0,2.74,13,66.82,66.82,0,0,0,5.56,12,91.6,91.6,0,0,0,15.49,19,196.44,196.44,0,0,0,19.38,15.86c4.37,3.21,9.16,6.33,14.84,6.16,6.23-.2,11.24-3.66,14.73-8.64a25.13,25.13,0,0,0,4-15.92c-.42-5.86-2.19-11.44-3-17.23l.33,2.4a27.31,27.31,0,0,1-.09-6.82l-.33,2.39a18.39,18.39,0,0,1,1.25-4.72l-.91,2.15a13.86,13.86,0,0,1,1.53-2.6l-1.41,1.82a11.84,11.84,0,0,1,1.91-1.9l-1.82,1.41c3-2.22,6.21-3.92,8-7.39,2.15-4.09,2-8.66,1-13A52.5,52.5,0,0,0,479,206.68,51.7,51.7,0,0,0,468,194.08a35.72,35.72,0,0,0-9.94-6.07,16.52,16.52,0,0,0-11.49-.15,21.82,21.82,0,0,0-6.83,4.19,38.52,38.52,0,0,0-2.78,2.79,56.65,56.65,0,0,1-6.36,5.83l1.82-1.41a55.38,55.38,0,0,1-12.07,7.08l2.15-.91a55.22,55.22,0,0,1-13.76,3.79l2.39-.32a52.28,52.28,0,0,1-13.46,0l2.4.32c-7.68-1.05-15.24-3.54-23-1.57-7.08,1.8-14.1,7.57-15.34,15.08-.48,2.94-.26,5.42,1.61,7.84a9,9,0,0,0,7.07,3.55l53.38,2.64c4.53.22,9.12.23,13.61.81l-2.39-.33a19.3,19.3,0,0,1,4.79,1.24l-2.15-.91a12.58,12.58,0,0,1,2.08,1.19l-1.83-1.4a9.71,9.71,0,0,1,1.74,1.71L441.48,225a23.08,23.08,0,0,1-2.7,1.41l2.14-.9a21.62,21.62,0,0,1-5.41,1.49l2.39-.32a13.46,13.46,0,0,1-3,.1l2.4.32a7.26,7.26,0,0,1-1.66-.44l2.15.91a5.18,5.18,0,0,1-.84-.53l1.82,1.41a3,3,0,0,1-.46-.49l1.41,1.83a2.52,2.52,0,0,1-.33-.54l.91,2.15a2,2,0,0,1-.14-.53l.32,2.39a2.53,2.53,0,0,1,0-.55l-.32,2.39a4.7,4.7,0,0,1,.21-.82l-.9,2.15a3.82,3.82,0,0,1,.42-.7l-1.41,1.82a1.8,1.8,0,0,1,.37-.36l-1.82,1.4a1.76,1.76,0,0,1,.42-.24l-2.15.91.22-.06-2.39.32a1.19,1.19,0,0,1,.46,0l-2.39-.33.23.07-2.15-.9.23.12-4.13-5.38A55.83,55.83,0,0,0,436,250a48.8,48.8,0,0,0,14.32,10.65,9.45,9.45,0,0,0,6.93.9,9.25,9.25,0,0,0,5.38-4.13A35.14,35.14,0,0,0,467,241.68a34.49,34.49,0,0,0-3.5-16.16,32.1,32.1,0,0,0-22.11-17.24l5.37,13.22c.18-.27.35-.53.55-.8l-1.41,1.83a9.35,9.35,0,0,1,1.55-1.53l-1.82,1.41a10.46,10.46,0,0,1,1.87-1.06l-2.15.91a11.6,11.6,0,0,1,2.72-.71l-2.39.32a13.62,13.62,0,0,1,3.19,0l-2.39-.32a14.1,14.1,0,0,1,3.11.87l-2.15-.9a13.9,13.9,0,0,1,2.65,1.57l-1.82-1.4a19.83,19.83,0,0,1,3.52,3.57l-1.41-1.83a37.73,37.73,0,0,1,4.43,8l-.91-2.15c.21.49.41,1,.61,1.48.87,2.16,2,4.23,4.14,5.38a9.23,9.23,0,0,0,5.74,1.06,8.49,8.49,0,0,0,5.16-2.47c1.5-1.63,2.92-4.06,2.64-6.36a69.45,69.45,0,0,0-1.86-10.23,68,68,0,0,0-3.6-9.63c-.86-1.93-3.43-3.6-5.38-4.13a9,9,0,0,0-11.07,6.28l-.32,2.4a8.87,8.87,0,0,0,1.23,4.54l.54,1.25-.91-2.15a54.06,54.06,0,0,1,3.58,13.15l-.33-2.39c.05.3.08.6.12.91l17.68-2.4a52.54,52.54,0,0,0-5.48-11c-2.59-3.63-5.74-7.12-9.87-9a22.19,22.19,0,0,0-14.17-1.68,17.74,17.74,0,0,0-11.13,8.07c-2.89,4.63-.28,12.14,5.38,13.22a23.14,23.14,0,0,1,4.55,1.36l-2.15-.91a25.1,25.1,0,0,1,5.08,3l-1.82-1.41a25.84,25.84,0,0,1,4.47,4.46l-1.41-1.82a24.91,24.91,0,0,1,3,5.21l-.91-2.15a25.45,25.45,0,0,1,1.68,6.25l-.32-2.39a27.47,27.47,0,0,1,0,6.9l.32-2.39a26.65,26.65,0,0,1-1.69,6.25l.91-2.15c-.38.87-.79,1.71-1.25,2.53l12.31-3.23a42,42,0,0,1-7.42-4.58l1.82,1.4a44.87,44.87,0,0,1-7.57-7.58l1.41,1.82a44.29,44.29,0,0,1-5.66-9.68l.9,2.15c-1-2.4-2-4.59-4.52-5.86a10.72,10.72,0,0,0-5.23-1.29,11,11,0,0,0-8.94,5.34A11.62,11.62,0,0,0,428,242.66c3.9,2.49,8.38,2.33,12.76,1.62a28.07,28.07,0,0,0,9.85-3.76,8.85,8.85,0,0,0,4.29-6.57c.41-3-.62-5.23-2.47-7.56-3.8-4.76-10-6.23-15.68-6.86-5-.55-10.1-.58-15.13-.83l-32.78-1.62-18.37-.91,8.68,11.39a10.25,10.25,0,0,1,.66-2.3l-.91,2.15a11.66,11.66,0,0,1,1.21-2l-1.4,1.82a13.33,13.33,0,0,1,1.91-1.92l-1.82,1.41a15,15,0,0,1,3.29-1.9l-2.15.91a15.39,15.39,0,0,1,3.65-1l-2.39.32a26,26,0,0,1,6.47.13l-2.4-.32c5.46.76,10.79,2.14,16.32,2.43A61.74,61.74,0,0,0,416,226.18a60,60,0,0,0,24.89-10.9,69.84,69.84,0,0,0,6.88-5.75c1.78-1.73,3.36-3.68,5.3-5.25l-1.82,1.41a11.33,11.33,0,0,1,2.25-1.38l-2.15.9a9.6,9.6,0,0,1,1.88-.54l-2.39.32a9.49,9.49,0,0,1,2.44,0l-2.4-.32a13,13,0,0,1,2.79.83l-2.15-.91a24.23,24.23,0,0,1,4.66,2.87l-1.82-1.4a44.81,44.81,0,0,1,8,8L461,212.23a47.32,47.32,0,0,1,6,10.16l-.91-2.15a35.61,35.61,0,0,1,2.64,8.71l-.32-2.4a12.31,12.31,0,0,1,0,2.35l.32-2.4a7.1,7.1,0,0,1-.49,1.82l.91-2.15a7.56,7.56,0,0,1-.6,1l1.41-1.83a8.84,8.84,0,0,1-1.06,1.06l1.82-1.41c-1.72,1.31-3.58,2.36-5.25,3.76a18.72,18.72,0,0,0-3.71,4.46,26.27,26.27,0,0,0-3.41,11.62c-.69,7.31,2,14.36,3,21.51l-.32-2.39a25.6,25.6,0,0,1,.13,6.06l.32-2.39a17.81,17.81,0,0,1-1.21,4.41l.9-2.15a16,16,0,0,1-1.73,3l1.41-1.83a12.34,12.34,0,0,1-2.07,2.14l1.82-1.41a10,10,0,0,1-1.91,1.14l2.15-.9a9.07,9.07,0,0,1-2.13.58l2.39-.32a9.23,9.23,0,0,1-1.82,0l2.4.32a11.5,11.5,0,0,1-2.82-.8l2.15.91c-4.05-1.85-7.64-5-11.14-7.72l1.82,1.41c-8.15-6.3-16-13.16-22.29-21.34l1.41,1.82a62.71,62.71,0,0,1-8.11-13.68l.91,2.15a49.52,49.52,0,0,1-3.34-12.19l.32,2.39c-.05-.38-.1-.76-.14-1.14l-17.68,2.39a53.56,53.56,0,0,0,11.86,19.73,83.17,83.17,0,0,0,16.77,13.35c5.7,3.59,11.7,6.65,17.71,9.67l11.68,5.88c2.33,1.17,4.62,2.36,7.05,3.32a21.22,21.22,0,0,0,5.91,1.27c6.16.62,12.55-3.3,13.87-9.54a14.22,14.22,0,0,0-1.81-10.34,47.94,47.94,0,0,1-2.69-4.32l.91,2.15a7.08,7.08,0,0,1-.44-1.49l.32,2.39a5.22,5.22,0,0,1,0-1.31l-.32,2.4a5,5,0,0,1,.27-1l-.91,2.15a6.39,6.39,0,0,1,.63-1.07l-1.41,1.82a7.28,7.28,0,0,1,1.09-1.06l-1.82,1.41a9,9,0,0,1,1.38-.8l-2.15.91a8.75,8.75,0,0,1,2.09-.58l-2.39.32a8.13,8.13,0,0,1,1.91,0l-2.4-.32a7,7,0,0,1,1.57.41l-2.15-.91a6.45,6.45,0,0,1,1.41.83l-1.82-1.41a10.9,10.9,0,0,1,1.46,1.5l-1.41-1.82a12.27,12.27,0,0,1,1.39,2.41l-.9-2.15a17.8,17.8,0,0,1,1.1,4.2l-.32-2.39a39.23,39.23,0,0,1-.3,10.15l.32-2.39a49.23,49.23,0,0,1-2.85,11.8l.91-2.15a13.21,13.21,0,0,1-1.6,2.78l1.4-1.82a10.74,10.74,0,0,1-1.72,1.65l1.82-1.4a17.06,17.06,0,0,1-3.13,1.73l2.15-.9a32.71,32.71,0,0,1-8,2.14l2.39-.32a37.59,37.59,0,0,1-9.42-.05l2.39.32A46.09,46.09,0,0,1,453,280.72l2.15.9a54.44,54.44,0,0,1-11.54-6.8l1.82,1.41a87.3,87.3,0,0,1-15.11-15.56l1.41,1.82c-5-6.47-9.22-13.4-13.72-20.2s-9.92-13.88-17.17-18.24a26.46,26.46,0,0,0-14.67-3.89,9.09,9.09,0,0,0-8.23,5.53,8.49,8.49,0,0,0-.61,4.67,8.23,8.23,0,0,0,2.47,5.16,60.21,60.21,0,0,0,7,5,58.53,58.53,0,0,0,8,3.78,49.68,49.68,0,0,0,15.1,3.25,9,9,0,0,0,6.36-2.63,9.13,9.13,0,0,0,2.64-6.37c-.34-10.1-6.92-19.36-16.07-23.56a40,40,0,0,0-16.49-3.55,103.93,103.93,0,0,0-16.31,1.69c-2.08.32-4.37,2.41-5.38,4.14a9,9,0,0,0,3.23,12.31l2.15.91a9,9,0,0,0,4.78,0Z"/><path d="M136.84,536.32c-3.84,0-8.43-.46-12.1,1-2.65,1-3.89,3.47-4.71,6.06-1.46,4.62,2,9.13,6.17,10.87,2.84,1.2,6,.85,9,.86l10.87,0,88.11.16,88.5.17,88.11.17,88.11.17,10.87,0a1.5,1.5,0,0,0,0-3l-84.62-.16-84.61-.16-84.23-.16-84.62-.16-21.35,0-10.48,0c-3.38,0-6.9.26-10.26,0a8.17,8.17,0,0,1-6.36-4.25c-1-1.86-.55-3.57.29-5.37,1.18-2.51,3.41-2.82,6-3,2.42-.14,4.85-.12,7.28-.14a1.5,1.5,0,0,0,0-3Z"/><path d="M131.57,539.36l143.22-.86L418,537.65l80.46-.48-1.44-1.1,2.7,15.61c.33,1.89,3.22,1.09,2.89-.8l-2.7-15.61a1.52,1.52,0,0,0-1.45-1.1L355.25,535,212,535.88l-80.47.48a1.5,1.5,0,0,0,0,3Z"/><path d="M496.12,536.43a39.18,39.18,0,0,1,24.57-8.7,1.5,1.5,0,0,0,0-3A42.5,42.5,0,0,0,494,534.3c-1.5,1.22.63,3.33,2.12,2.13Z"/><path d="M500.66,531.33A56.94,56.94,0,0,1,536,525.71c.47.08.68-.64.2-.72a57.73,57.73,0,0,0-35.94,5.69c-.43.22-.05.87.37.65Z"/><path d="M513.62,529.32A31.8,31.8,0,0,1,540,527.89c1.8.71,2.58-2.19.8-2.89a34.74,34.74,0,0,0-28.65,1.73c-1.71.9-.19,3.49,1.52,2.59Z"/><path d="M533.29,525.05a22.51,22.51,0,0,0-19.1-.07,1.5,1.5,0,0,0,1.52,2.59,19.25,19.25,0,0,1,16.06.07,1.54,1.54,0,0,0,2.06-.54,1.52,1.52,0,0,0-.54-2.05Z"/><path d="M495.06,536.86l33.06,1.24c1.93.07,1.93-2.93,0-3l-33.06-1.24c-1.93-.07-1.93,2.93,0,3Z"/><path d="M498.48,537.21a82.47,82.47,0,0,0,27.62,2.71c1.91-.14,1.93-3.14,0-3a80.06,80.06,0,0,1-26.82-2.6,1.5,1.5,0,0,0-.8,2.89Z"/><path d="M496.55,540.88a220.56,220.56,0,0,0,43,2.74c1,0,1-1.53,0-1.5A219.51,219.51,0,0,1,497,539.44c-.94-.16-1.35,1.29-.4,1.44Z"/><path d="M496.41,552.6a69.3,69.3,0,0,0,56.39.07c1.77-.77.24-3.36-1.51-2.59a66.93,66.93,0,0,1-53.37-.07c-1.74-.78-3.27,1.81-1.51,2.59Z"/><path d="M493.88,555.33a104.29,104.29,0,0,0,49.44,3,102.58,102.58,0,0,0,13.7-3.48c1.82-.6,1-3.5-.8-2.89a100.3,100.3,0,0,1-61.54.49c-1.85-.57-2.64,2.32-.8,2.9Z"/><path d="M502.32,542.76a100.38,100.38,0,0,0,43.48,1.93c1.9-.34,1.1-3.23-.79-2.9a96.88,96.88,0,0,1-41.9-1.92,1.5,1.5,0,0,0-.79,2.89Z"/><path d="M514.65,533.58l40.84,1.53c1.93.07,1.93-2.93,0-3l-40.84-1.53c-1.93-.07-1.93,2.93,0,3Z"/><path d="M514.51,537.59l37,1.39c1.93.07,1.93-2.93,0-3l-37-1.39c-1.93-.07-1.93,2.93,0,3Z"/><path d="M503,545.29a45.59,45.59,0,0,0,38.84,12.26A42.45,42.45,0,0,0,553.21,554c1.75-.82.23-3.41-1.51-2.59-11.85,5.53-26.18,4.7-37.58-1.56a40.26,40.26,0,0,1-9-6.71c-1.38-1.35-3.5.77-2.12,2.12Z"/><path d="M499.51,557.81a113.41,113.41,0,0,0,58.17,7,110.39,110.39,0,0,0,16.55-3.66c1.84-.55,1-3.45-.8-2.89a110,110,0,0,1-73.12-3.37c-1.79-.73-2.57,2.17-.8,2.89Z"/><path d="M528.12,538.07A81.68,81.68,0,0,1,551,541a1.5,1.5,0,0,0,.79-2.89,84.27,84.27,0,0,0-23.64-3c-1.93,0-1.94,3,0,3Z"/><path d="M555.22,539.64l-31.13-.87c-1.93,0-1.93,3,0,3l31.13.87c1.93.05,1.93-2.95,0-3Z"/><path d="M561,542.53a186.89,186.89,0,0,0-41-.27c-1.9.2-1.92,3.2,0,3a186.89,186.89,0,0,1,41,.27c1.91.22,1.9-2.78,0-3Z"/><path d="M568.89,538.64,524.16,537c-1.93-.07-1.93,2.93,0,3l44.73,1.68c1.93.07,1.93-2.93,0-3Z"/><path d="M560.68,550.44a128.13,128.13,0,0,0-33.54.67c-1.9.29-1.09,3.18.8,2.9a125.05,125.05,0,0,1,32.74-.57c1.92.22,1.9-2.78,0-3Z"/><path d="M569.6,530.54a107.9,107.9,0,0,0-31.47-3c-1.92.1-1.93,3.1,0,3a105.2,105.2,0,0,1,30.67,2.92c1.88.47,2.68-2.43.8-2.89Z"/><path d="M568.25,541.22l-23.93,13c-1.7.92-.19,3.51,1.51,2.59l23.94-13c1.69-.92.18-3.52-1.52-2.59Z"/><path d="M572.06,549.59a32.67,32.67,0,0,1-24.67,5.62c-1.89-.35-2.7,2.54-.8,2.89a35.68,35.68,0,0,0,27-5.92c1.56-1.1.06-3.71-1.52-2.59Z"/><path d="M576.84,540.23a35,35,0,0,1-18.09-9.81c-1.35-1.38-3.47.74-2.12,2.12A37.84,37.84,0,0,0,576,543.13c1.89.37,2.69-2.52.8-2.9Z"/><path d="M572.82,545.5l-32.73-7.76c-1.88-.45-2.68,2.44-.8,2.89L572,548.4c1.88.44,2.68-2.45.8-2.9Z"/><path d="M578,549.6a131.05,131.05,0,0,1-44.67,3.69c-1.92-.17-1.91,2.83,0,3a133.46,133.46,0,0,0,45.47-3.8c1.87-.48,1.07-3.38-.8-2.89Z"/><path d="M555.59,528l30.93,10.7c.91.32,1.3-1.13.39-1.45L556,526.59c-.91-.32-1.31,1.13-.4,1.45Z"/><path d="M558.82,544.54l27.2,4.28c.94.15,1.35-1.29.4-1.44l-27.2-4.29c-.94-.15-1.35,1.3-.4,1.45Z"/><path d="M560.92,559.6l17.64-3.4c1.89-.36,1.09-3.25-.8-2.89l-17.64,3.4c-1.89.36-1.09,3.25.8,2.89Z"/><path d="M576.55,553.66,592.2,550c.94-.22.55-1.67-.4-1.45l-15.65,3.64c-.94.22-.54,1.67.4,1.45Z"/><path d="M568.22,535.63a45.91,45.91,0,0,0,17.8,6.43,1.55,1.55,0,0,0,1.84-1,1.52,1.52,0,0,0-1-1.85A43.72,43.72,0,0,1,569.73,533c-1.65-1-3.15,1.58-1.51,2.59Z"/><path d="M560.9,559.7l31.3-5c.95-.15.55-1.59-.4-1.44l-31.3,5c-1,.15-.55,1.59.4,1.44Z"/><path d="M572.5,539.6l17.5.65c.48,0,.48-.73,0-.75l-17.5-.65c-.48,0-.48.73,0,.75Z"/><g class="cls-6"><path class="cls-7" d="M525.7,546.49A8.11,8.11,0,0,0,513,543.4a1.5,1.5,0,0,0,.31,2.35A41.39,41.39,0,0,0,539.79,548a1.52,1.52,0,0,0,.35-2.74,67.58,67.58,0,0,0-15.39-5.92c-4.2-1-9-2.31-13.12-.12a4.63,4.63,0,0,0-2.68,3.85c0,2.34,1.85,3.84,3.73,4.83a36,36,0,0,0,31.39.76,1.52,1.52,0,0,0,.31-2.36,33.73,33.73,0,0,0-35.88-8.1,1.52,1.52,0,0,0-.36,2.74,53.2,53.2,0,0,0,41.33,7.22A50.27,50.27,0,0,0,560.81,544a1.52,1.52,0,0,0,0-2.59,58.46,58.46,0,0,0-46.47-9.63,1.5,1.5,0,0,0-.66,2.5,52.12,52.12,0,0,0,39.1,11,1.53,1.53,0,0,0,1.06-2.56,38.71,38.71,0,0,0-35.93-13,1.51,1.51,0,0,0-.66,2.51,40.83,40.83,0,0,0,38.63,8.43,1.51,1.51,0,0,0,.9-2.2c-4.09-5.55-10.79-8.19-17.53-8.51a42.4,42.4,0,0,0-12.47,1.53A72.26,72.26,0,0,0,515.55,535c-2.69,1.17-5.57,3-6.74,5.78-1.31,3.14.3,6.22,2.91,8.07,2.8,2,6.47,3.06,9.77,3.84a44.89,44.89,0,0,0,11,1.17,44.18,44.18,0,0,0,23.28-7,1.52,1.52,0,0,0,.3-2.36,43.38,43.38,0,0,0-39.36-10.17c-3.25.79-7,1.88-9.49,4.21a7.26,7.26,0,0,0-1.64,8.42c1.33,3,4.2,5.23,7,6.7a33.8,33.8,0,0,0,11.17,3,58,58,0,0,0,13.1.25A47.82,47.82,0,0,0,549,554.42c3.06-1.15,5.72-3.61,5.07-7.16-.58-3.15-3.56-5.54-6.24-6.92-3.62-1.87-7.93-2.56-11.93-3.09a58.9,58.9,0,0,0-13.07-.28c-5.55.52-15,2.24-14.9,9.61s9.58,9.34,15.17,10.15a68.07,68.07,0,0,0,25.71-1.19c3.43-.83,7.91-1.7,10.17-4.69,2-2.7,1.41-6.43-.51-9-2.32-3.12-6.2-4.32-9.88-5a71.49,71.49,0,0,0-11.85-1.38,21.4,21.4,0,0,0-11,2.52,13.69,13.69,0,0,0-5.64,6.8,11.09,11.09,0,0,0-.2,8.15c1.3,3.19,4.26,4.9,7.48,5.74a90,90,0,0,0,13.06,2.12,117.73,117.73,0,0,0,13.41.67,99.81,99.81,0,0,0,13.39-.87c2.77-.4,6-1.52,7.65-4,2-3.08-.18-6.15-2.76-8a37.5,37.5,0,0,0-10.37-4.95,39.81,39.81,0,0,0-22.48-.34c-2.94.84-6.6,2.75-7.27,6-.79,3.84,2.81,6.11,5.65,7.77a50,50,0,0,0,33.89,5.94,1.52,1.52,0,0,0,.89-2.21c-5.18-11-17.73-18-29.84-16.74a1.52,1.52,0,0,0-1.44,1.9c2.85,8.07,11.42,12.8,19.75,12.59a18.34,18.34,0,0,0,11.26-4.06c2.27-1.88,3.25-4.34,2-7.15a15.89,15.89,0,0,0-4.71-5.95,19.27,19.27,0,0,0-15.79-4,1.51,1.51,0,0,0-1.05,1.85c3.24,9.75,16.72,13.39,24.57,6.92a1.5,1.5,0,0,0,0-2.12,53.25,53.25,0,0,0-42-11.71c-1.66.25-1.17,2.41,0,2.89a93.77,93.77,0,0,0,39.45,7.18c1.65,0,2.1-2.53.4-2.94l-43.15-10.48-.79,2.89a152.11,152.11,0,0,0,33.34,2.47,1.5,1.5,0,0,0,0-3L512,526v3l31.51,2.91c1.72.16,2-2.49.39-3a66.69,66.69,0,0,0-44.06,2.44,1.52,1.52,0,0,0-.66,2.51,30.46,30.46,0,0,0,29.94,6.74,1.51,1.51,0,0,0,.66-2.5,15.51,15.51,0,0,0-10.37-4.4c-3.69-.11-8.17,1.15-10.2,4.48-1.83,3-.69,6.6,1.53,9a10.69,10.69,0,0,0,9.69,3.27c4.78-.73,8.75-3.81,12.43-6.72a1.5,1.5,0,0,0,0-2.13,59.55,59.55,0,0,0-10.59-7,37.18,37.18,0,0,0-12.12-4.2,14.7,14.7,0,0,0-10.95,2.53c-2.67,2-4.73,5.31-4.45,8.79.6,7.37,8.84,10.12,14.91,11.55a79.9,79.9,0,0,0,52.22-5.57c1.3-.61.7-2.31-.36-2.74-9-3.65-20.33,3.68-20.55,13.42a1.53,1.53,0,0,0,1.5,1.5,99.08,99.08,0,0,0,35.82-2.12c1.87-.46,1.08-3.35-.8-2.89a96.69,96.69,0,0,1-35,2l1.5,1.5c.18-8,9.6-13.42,16.75-10.53l-.36-2.74a76.69,76.69,0,0,1-43.47,6.49,64.34,64.34,0,0,1-10.45-2.31c-2.65-.85-5.52-2.1-7.31-4.34a6.23,6.23,0,0,1,0-7.79,10.4,10.4,0,0,1,8.55-3.93c4.29,0,8.47,1.69,12.26,3.57a55.84,55.84,0,0,1,10.77,7v-2.13c-3.23,2.57-6.88,5.43-11.11,6a7.65,7.65,0,0,1-8-4.34c-1.59-3.74,2.39-6,5.57-6.43a12.42,12.42,0,0,1,10.44,3.4l.66-2.51a27.43,27.43,0,0,1-27-6l-.66,2.5a64.09,64.09,0,0,1,42.47-2.43l.4-2.95L512,526c-1.93-.18-1.9,2.8,0,3l52.46,5.52v-3a148.62,148.62,0,0,1-32.55-2.36c-1.87-.35-2.69,2.43-.79,2.89l43.15,10.48.39-3A91.78,91.78,0,0,1,536,532.46v2.89a50,50,0,0,1,39.07,10.94v-2.12c-6.08,5-17.07,1.88-19.56-5.6l-1,1.84a16.13,16.13,0,0,1,11.75,2.39,14.89,14.89,0,0,1,4.24,4.09,5.61,5.61,0,0,1,1.3,3.15c-.07,1.08-1.07,1.88-1.85,2.51-5.25,4.18-13.08,3.85-18.75.73a15.11,15.11,0,0,1-7.14-8l-1.45,1.89a27.43,27.43,0,0,1,27.25,15.26l.9-2.2a47,47,0,0,1-20-.87,46.06,46.06,0,0,1-9.4-3.57,39.82,39.82,0,0,1-4.28-2.5c-1-.68-2.36-1.69-2.19-3.08.33-2.69,4.44-3.8,6.55-4.31a36.41,36.41,0,0,1,9.7-1,36.87,36.87,0,0,1,18.31,5.54c1.87,1.18,4.65,3.3,2.14,5.33-2.18,1.76-5.27,1.94-7.93,2.18a119.32,119.32,0,0,1-23-.16,105.11,105.11,0,0,1-11.31-1.77c-2.63-.57-5.57-1.47-6.69-4.18-1.79-4.32,1.3-9.63,5.16-11.62,6-3.08,13.5-1.67,19.8-.55,3,.53,6.59,1.29,8.5,3.93,1.74,2.41,1.54,5.29-1.18,6.78a20.79,20.79,0,0,1-4.46,1.59q-2.76.79-5.59,1.33a65.08,65.08,0,0,1-22.1.33,24.09,24.09,0,0,1-8.51-2.58c-1.89-1.12-3.71-2.94-3.25-5.33s3.07-3.79,5.19-4.52a33.69,33.69,0,0,1,9.68-1.46,56.87,56.87,0,0,1,11.29.67c3.28.54,6.88,1.16,9.8,2.84,1.8,1,4.81,3.24,4.13,5.71a4.08,4.08,0,0,1-2.57,2.41,29.35,29.35,0,0,1-5.27,1.51,55.15,55.15,0,0,1-21.68.42,24.73,24.73,0,0,1-8.94-3.06c-2.06-1.29-4.45-3.31-4.83-5.86-.43-2.91,2.34-4.64,4.65-5.58,11-4.54,24.3-3.2,34.56,2.73a37.49,37.49,0,0,1,6.86,5.08l.31-2.35a41.66,41.66,0,0,1-36.55,4.17c-2.31-.84-6.1-2.16-6.34-5.09-.2-2.48,2.6-4.18,4.47-5.15a51.75,51.75,0,0,1,9.48-3.25,49.44,49.44,0,0,1,10.77-2c6.58-.37,14,1.44,18.14,7l.9-2.2a37.77,37.77,0,0,1-35.72-7.66l-.66,2.5a35.69,35.69,0,0,1,33,12.21l1.07-2.56a49.26,49.26,0,0,1-37-10.08l-.66,2.51A55.52,55.52,0,0,1,559.3,544v-2.59a50.21,50.21,0,0,1-39.38,2.17,47.66,47.66,0,0,1-10.26-5.22l-.36,2.74a30.79,30.79,0,0,1,33,7.34l.3-2.36a33.19,33.19,0,0,1-24.74.84,30.38,30.38,0,0,1-2.88-1.23,7.71,7.71,0,0,1-2.57-1.61c-.93-1.09,0-1.91,1-2.39,3.26-1.52,7.3-.25,10.57.56a63.76,63.76,0,0,1,14.67,5.61l.36-2.75a38,38,0,0,1-24.21-2l.3,2.36c2.23-2,6.64-1.1,7.73,1.77.68,1.79,3.58,1,2.89-.8Z"/></g><g class="cls-6"><path class="cls-7" d="M512.48,536.28a51.49,51.49,0,0,0,21.68-1,.38.38,0,0,0-.2-.73,50.61,50.61,0,0,1-21.28,1c-.48-.08-.68.64-.2.72Z"/></g><g class="cls-6"><path class="cls-7" d="M508.43,541.93a146.66,146.66,0,0,0,33,3.6.38.38,0,0,0,0-.75,145.52,145.52,0,0,1-32.82-3.57c-.47-.11-.67.61-.2.72Z"/></g><g class="cls-6"><path class="cls-7" d="M524.09,540.84a.38.38,0,0,0,0-.75.38.38,0,0,0,0,.75Z"/></g><g class="cls-6"><path class="cls-7" d="M516.22,539.47a396.76,396.76,0,0,1,52.74-1c.49,0,.49-.73,0-.75a396.76,396.76,0,0,0-52.74,1c-.48,0-.48.79,0,.75Z"/></g><g class="cls-6"><path class="cls-7" d="M541.73,536.74l-21.39-.8c-.48,0-.48.73,0,.75l21.39.8a.38.38,0,0,0,0-.75Z"/></g><g class="cls-6"><path class="cls-7" d="M515.58,538.54a39.7,39.7,0,0,1,19.23-1.36v-.72l-20.14,3.33c-.45.07-.28.69.1.73a39,39,0,0,0,16-1.67l-.29-.69a20,20,0,0,1-11.69,1.72l-.1.74L528,541c.48,0,.48-.73,0-.75l-9.34-.37c-.41,0-.52.67-.1.74a21,21,0,0,0,12.27-1.8c.38-.18.11-.82-.29-.69a38.38,38.38,0,0,1-15.75,1.65l.1.74L535,537.18a.37.37,0,0,0,0-.72,40.47,40.47,0,0,0-19.63,1.36c-.46.15-.26.87.2.72Z"/></g><g class="cls-6"><path class="cls-8" d="M527.92,540.54,539.67,539c.47-.06.48-.81,0-.75l-11.75,1.53c-.47.06-.47.81,0,.75Z"/></g><g class="cls-6"><path class="cls-8" d="M516.39,538.45l34.88,3.82c.48.06.48-.69,0-.75l-34.88-3.82c-.48-.05-.48.7,0,.75Z"/></g><g class="cls-6"><path class="cls-8" d="M520,535.69a135.57,135.57,0,0,0,46.88,4.43c.48,0,.48-.79,0-.75a134.9,134.9,0,0,1-46.68-4.4.37.37,0,0,0-.2.72Z"/></g><g class="cls-6"><path class="cls-8" d="M514.45,539l36.39-1.39-.1-.74-33.25,4.78.2.72,19.78-3-.19-.73-9.59,3.31c-.45.15-.26.88.2.72l9.58-3.3a.38.38,0,0,0-.19-.73l-19.79,3c-.48.07-.27.79.2.72l33.24-4.78c.42-.06.32-.75-.09-.73l-36.39,1.39a.38.38,0,0,0,0,.75Z"/></g><g class="cls-6"><path class="cls-8" d="M512.3,537.44a400.24,400.24,0,0,0,52.63,5,.38.38,0,0,0,0-.75,400.44,400.44,0,0,1-52.43-5c-.47-.08-.68.65-.2.72Z"/></g><g class="cls-6"><path class="cls-8" d="M512.08,548.1a170,170,0,0,0,52.94-.94c.48-.08.27-.8-.2-.72a169,169,0,0,1-52.54.94c-.47-.07-.68.65-.2.72Z"/></g><g class="cls-6"><path class="cls-8" d="M512.63,534.88l56.47-.31a.38.38,0,0,0,0-.75l-56.47.31a.38.38,0,0,0,0,.75Z"/></g><path class="cls-8" d="M529.92,541.06a.38.38,0,0,0,0-.75.38.38,0,0,0,0,.75Z"/><path class="cls-8" d="M518.33,536.45a143.5,143.5,0,0,0,35,3.42.38.38,0,0,0,0-.75,142.35,142.35,0,0,1-34.8-3.4c-.47-.1-.67.62-.2.73Z"/><path class="cls-8" d="M521.87,549.16l39-.95a.38.38,0,0,0,0-.75l-39,.95a.38.38,0,0,0,0,.75Z"/><path class="cls-9" d="M539.82,529.88l42.17,11c1.87.49,2.67-2.41.8-2.89l-42.18-11a1.5,1.5,0,0,0-.79,2.89Z"/><path class="cls-9" d="M541.08,549.93a219.91,219.91,0,0,0,43.13,4.16,1.13,1.13,0,0,0,0-2.25,216.94,216.94,0,0,1-42.54-4.08c-1.41-.28-2,1.89-.59,2.17Z"/><path class="cls-9" d="M515.89,552.58l56.4,2.11c.48,0,.48-.73,0-.75l-56.4-2.11c-.49,0-.49.73,0,.75Z"/><path class="cls-8" d="M535.59,544.13l41-1a.38.38,0,0,0,0-.75l-41,1a.38.38,0,0,0,0,.75Z"/><path class="cls-8" d="M555.87,524.08a50.26,50.26,0,0,0-21.47,5.4c-.38.19-.11.84.29.69l12.82-5a.38.38,0,0,0-.2-.73,88.83,88.83,0,0,0-26.6,8.4c-.44.21-.06.86.37.65a88,88,0,0,1,26.43-8.32l-.2-.73-12.82,5,.28.69a49.37,49.37,0,0,1,21.1-5.3.38.38,0,0,0,0-.75Z"/><text class="cls-10" transform="translate(141.15 501.79)"><tspan class="cls-11">P</tspan><tspan x="41.92" y="0">ai</tspan><tspan class="cls-12" x="92.02" y="0">n</tspan><tspan x="130.73" y="0">t by </tspan><tspan class="cls-13" x="261.97" y="0">M</tspan><tspan x="326.47" y="0">ood</tspan></text><path d="M515.86,552.69a54.73,54.73,0,0,0,28.93,3.54c.47-.07.27-.79-.2-.72A54.06,54.06,0,0,1,516.06,552c-.44-.19-.64.54-.2.72Z"/><path d="M520,556.29a261.5,261.5,0,0,0,39.58.6c.48,0,.48-.78,0-.75a261.5,261.5,0,0,1-39.58-.6c-.48,0-.47.71,0,.75Z"/><path d="M508.24,540.32a274.2,274.2,0,0,0,51.36,3,.38.38,0,0,0,0-.75,273.75,273.75,0,0,1-51.16-3c-.47-.08-.68.65-.2.72Z"/><path d="M512.25,532.92q22.69,1,45.41-.14c.48,0,.48-.78,0-.75q-22.7,1.11-45.41.14c-.48,0-.48.73,0,.75Z"/><path d="M520,528.11a153.38,153.38,0,0,1,33.73.15c.48,0,.47-.7,0-.75a153.38,153.38,0,0,0-33.73-.15c-.47,0-.48.8,0,.75Z"/><path d="M522.63,532.17q17.52-.3,35,.67c.48,0,.48-.72,0-.75q-17.49-1-35-.67a.38.38,0,0,0,0,.75Z"/><path d="M516.79,555.54l42.82.79a.38.38,0,0,0,0-.75l-42.82-.79a.38.38,0,0,0,0,.75Z"/><path d="M515.38,559a107.05,107.05,0,0,0,39,3.94c.47,0,.48-.79,0-.75a106.4,106.4,0,0,1-38.84-3.92.38.38,0,0,0-.2.73Z"/><path d="M538.85,562.27h33.73a.38.38,0,0,0,0-.75H538.85a.38.38,0,0,0,0,.75Z"/><path d="M539.5,564.7a184.65,184.65,0,0,0,42.81.6c1-.1,1-1.6,0-1.5a184.65,184.65,0,0,1-42.81-.6c-1-.13-.94,1.37,0,1.5Z"/><path d="M555.71,560.27l32.44-1.35c1.44,0,1.45-2.31,0-2.25L555.71,558c-1.44.06-1.45,2.31,0,2.25Z"/><path d="M518.74,559a202.19,202.19,0,0,0,42.17.66c.47,0,.48-.8,0-.75a202.19,202.19,0,0,1-42.17-.66c-.48-.06-.48.69,0,.75Z"/><path d="M510.3,550.26a440.44,440.44,0,0,0,57.09,1.27c.48,0,.48-.77,0-.75a440.44,440.44,0,0,1-57.09-1.27c-.48,0-.47.7,0,.75Z"/><path d="M511.6,534.08a454.07,454.07,0,0,1,56.43.28c.48,0,.48-.72,0-.75a454.07,454.07,0,0,0-56.43-.28c-.48,0-.49.77,0,.75Z"/><path d="M514.84,531.47a273.6,273.6,0,0,1,45.42-2c.48,0,.48-.73,0-.75a273.6,273.6,0,0,0-45.42,2c-.47.06-.48.81,0,.75Z"/><path d="M511,532.25a467.13,467.13,0,0,1,51.94-3q7.44,0,14.87.2c.49,0,.49-.73,0-.75a470,470,0,0,0-52,1.37q-7.42.62-14.81,1.46c-.47.06-.48.81,0,.75Z"/><path d="M515.49,527.4a234.79,234.79,0,0,1,51.16,2.07c.47.07.67-.66.2-.73a236,236,0,0,0-51.36-2.09c-.48,0-.48.79,0,.75Z"/><path d="M506.51,530.13a168.44,168.44,0,0,1,58.17-1.84c.47.07.67-.65.2-.72a169.51,169.51,0,0,0-58.57,1.84c-.47.1-.27.82.2.72Z"/><path d="M517.68,528.75a244,244,0,0,1,49.26-3.18q7,.25,14.08.92c1,.09,1-1.41,0-1.5a245.22,245.22,0,0,0-49.8.38q-7,.76-13.94,1.94c-.95.16-.55,1.6.4,1.44Z"/><path d="M502.82,532.78a252.25,252.25,0,0,1,53.34-12.36c.48,0,.48-.8,0-.75a253,253,0,0,0-53.54,12.38c-.45.16-.26.89.2.73Z"/><path d="M544.69,554.26a294.29,294.29,0,0,0,36.42-6.74.38.38,0,0,0-.2-.73,291.12,291.12,0,0,1-36.22,6.72c-.47.06-.48.81,0,.75Z"/><path d="M549.22,545.63a284.42,284.42,0,0,0,40.23,1.23c.48,0,.48-.77,0-.75a284.42,284.42,0,0,1-40.23-1.23c-.48,0-.48.7,0,.75Z"/><path d="M564.8,563.61l12.32-1.34c.48,0,.48-.8,0-.75l-12.32,1.34c-.48,0-.48.8,0,.75Z"/><path d="M548.68,545.54a294,294,0,0,1,37.53-4.6c.48,0,.48-.78,0-.75a297.17,297.17,0,0,0-37.73,4.62c-.47.09-.27.81.2.73Z"/><path d="M538.66,537,586,534.32c1-.06,1-1.56,0-1.5l-47.35,2.71c-1,.05-1,1.55,0,1.5Z"/><path d="M544,544.2q24.66-.44,49.3-1.88c1-.05,1-1.55,0-1.5q-24.63,1.44-49.3,1.88a.75.75,0,0,0,0,1.5Z"/><path d="M557.93,549.13l31.79-3.32c.95-.1,1-1.6,0-1.5l-31.79,3.32c-.95.1-1,1.6,0,1.5Z"/><path d="M559.06,550.9a67,67,0,0,1,18.06-2,.38.38,0,0,0,0-.75,68.1,68.1,0,0,0-18.26,2,.38.38,0,0,0,.2.73Z"/><path d="M518.63,559c1.88,2.89,5.21,4,8.43,4.66,4.42.95,8.9,1.67,13.39,2.21a156.88,156.88,0,0,0,28.58.85c.48,0,.48-.78,0-.75a158.16,158.16,0,0,1-26.65-.62q-6.72-.74-13.34-2c-3.53-.7-7.65-1.43-9.76-4.68-.26-.4-.91,0-.65.38Z"/><path d="M499.2,534.33a162.56,162.56,0,0,1,45.59-14.65c.47-.08.27-.81-.2-.73a163.78,163.78,0,0,0-45.77,14.73c-.43.22-.05.86.38.65Z"/><path d="M496.12,535.45a351.69,351.69,0,0,1,59.46-12.38q8.48-1,17-1.61c.48,0,.48-.79,0-.75a353,353,0,0,0-59.93,9.44q-8.41,2.08-16.73,4.58a.37.37,0,0,0,.2.72Z"/><path d="M520.05,533a284.63,284.63,0,0,1,57.1-1.83c.48,0,.48-.72,0-.75a284.63,284.63,0,0,0-57.1,1.83c-.47.07-.47.82,0,.75Z"/><path d="M536.25,530.09q22.43.06,44.75,2.27c.48,0,.47-.71,0-.75q-22.31-2.21-44.75-2.27a.38.38,0,0,0,0,.75Z"/><path d="M510.2,541.56a113.32,113.32,0,0,0,29.95,2.64c.48,0,.48-.77,0-.75a111.82,111.82,0,0,1-29.75-2.62c-.47-.1-.67.62-.2.73Z"/><path d="M506.42,542.71l35,1.45c.48,0,.48-.73,0-.75l-35-1.45c-.48,0-.48.73,0,.75Z"/><path d="M518.73,535.58a295.21,295.21,0,0,0,41.52,1.22c.49,0,.49-.77,0-.75a295.21,295.21,0,0,1-41.52-1.22c-.48-.05-.47.71,0,.75Z"/><path d="M505.12,544.88h37a.38.38,0,0,0,0-.75h-37a.38.38,0,0,0,0,.75Z"/><path d="M512.9,553.58q16.58-.41,33.08-2c.48,0,.49-.79,0-.75q-16.5,1.6-33.08,2a.38.38,0,0,0,0,.75Z"/><path class="cls-8" d="M496.13,546.52a88.48,88.48,0,0,0,23.47,1.65c.48,0,.48-.78,0-.75a88.23,88.23,0,0,1-23.27-1.62c-.47-.1-.67.62-.2.72Z"/><path class="cls-8" d="M500.09,549.55a54.83,54.83,0,0,0,8.9,1.8c.47.06.47-.69,0-.75a54.77,54.77,0,0,1-8.7-1.77.37.37,0,0,0-.2.72Z"/><path class="cls-8" d="M496.15,551.11a122.18,122.18,0,0,0,17.73.89.38.38,0,0,0,0-.75,122.18,122.18,0,0,1-17.73-.89c-.48-.06-.47.69,0,.75Z"/><path class="cls-8" d="M498.84,544.23l16.44.89c.48,0,.48-.72,0-.75l-16.44-.89c-.48,0-.48.72,0,.75Z"/><path class="cls-8" d="M500.48,541.53a106.6,106.6,0,0,0,14.8,1.79c.48,0,.48-.72,0-.75a105.24,105.24,0,0,1-14.6-1.77c-.48-.09-.68.63-.2.73Z"/><path class="cls-8" d="M509.56,543.76a87.6,87.6,0,0,0,21.28.41c.48,0,.48-.8,0-.75a87.46,87.46,0,0,1-21.08-.38c-.48-.07-.68.66-.2.72Z"/><path class="cls-8" d="M506.62,543.38q15.11,1.36,30.28,1.28a.38.38,0,0,0,0-.75q-15.15.09-30.28-1.28c-.48,0-.47.71,0,.75Z"/><path class="cls-8" d="M509.66,556.22l7.36.84c.48.05.47-.7,0-.75l-7.36-.84c-.48-.06-.47.69,0,.75Z"/><path class="cls-8" d="M518.3,559l12.54.9c.49,0,.48-.72,0-.75l-12.54-.9c-.48,0-.48.71,0,.75Z"/><path d="M511.82,556.28l26.8,2.78c.48.05.48-.7,0-.75l-26.8-2.78c-.48,0-.48.7,0,.75Z"/><path class="cls-8" d="M507.41,554.84a88.18,88.18,0,0,0,20,3.67c.48,0,.48-.72,0-.75a87,87,0,0,1-19.78-3.64.37.37,0,0,0-.2.72Z"/><path class="cls-8" d="M495.38,552.35c3.05.59,6.12,1.06,9.2,1.44.48.05.48-.7,0-.75-3-.37-6-.84-9-1.42-.47-.09-.67.64-.2.73Z"/><path class="cls-8" d="M501.43,538.77l23.78-2.69c.48-.05.48-.8,0-.75L501.43,538c-.47.06-.48.81,0,.75Z"/><path class="cls-8" d="M496.35,537.52Q509,535.46,521.77,534c.47-.05.48-.8,0-.75q-12.85,1.51-25.62,3.58c-.47.08-.27.8.2.72Z"/><path class="cls-8" d="M498.94,536.59a155.39,155.39,0,0,1,26.3-5.66c.47,0,.48-.81,0-.75a156.54,156.54,0,0,0-26.5,5.69c-.46.14-.27.87.2.72Z"/><path class="cls-8" d="M503,533.05l5.73-.89a.37.37,0,0,0,.26-.46.38.38,0,0,0-.46-.26l-5.73.89a.37.37,0,0,0,.2.72Z"/><path class="cls-8" d="M523.06,537.08l14.28-1.34c.47,0,.48-.79,0-.75l-14.28,1.34c-.47,0-.48.8,0,.75Z"/><path class="cls-8" d="M526.53,537.55a242.21,242.21,0,0,1,34.16-1.82.38.38,0,0,0,0-.75,242.21,242.21,0,0,0-34.16,1.82c-.48.06-.48.81,0,.75Z"/><path d="M494.84,546.49l12.23-.45c.49,0,.49-.77,0-.75l-12.23.45c-.48,0-.49.77,0,.75Z"/><path d="M496.46,539.72l10.7-1.87c.47-.08.27-.8-.2-.72L496.26,539c-.47.09-.27.81.2.73Z"/><path d="M501.11,535.28l13.4-2.67c.48-.1.28-.82-.2-.73l-13.4,2.68c-.47.09-.27.82.2.72Z"/><path d="M497.21,533.91a146.31,146.31,0,0,1,22-3c.48,0,.49-.78,0-.75A146.59,146.59,0,0,0,497,533.19c-.47.1-.27.83.2.72Z"/><path d="M496.34,538.35l24.65-4c.48-.07.28-.8-.2-.72l-24.65,4c-.47.08-.27.8.2.73Z"/><path d="M497.21,544.72a70.65,70.65,0,0,1,18.93-.93c.48,0,.48-.71,0-.75A71.35,71.35,0,0,0,497,544c-.47.08-.27.81.2.72Z"/><path d="M499.71,546.9l25.09-1.71c.48,0,.48-.78,0-.75l-25.09,1.71c-.48,0-.48.78,0,.75Z"/><path d="M498.41,550.46a198.7,198.7,0,0,1,22.49-.89.38.38,0,0,0,0-.75,198.7,198.7,0,0,0-22.49.89c-.47,0-.48.79,0,.75Z"/><path d="M500.57,552.33a199.82,199.82,0,0,0,20.33.32.38.38,0,0,0,0-.75,199.82,199.82,0,0,1-20.33-.32c-.48,0-.48.72,0,.75Z"/><path d="M519.6,557.59a.38.38,0,0,0,0-.75.38.38,0,0,0,0,.75Z"/><path d="M508.89,534.39a189.58,189.58,0,0,1,24.55-3.11c.48,0,.49-.78,0-.75a189.21,189.21,0,0,0-24.75,3.14c-.47.09-.27.81.2.72Z"/><path d="M514,527.65c-.22-.59,2.51-1,2.86-1.1l2.63-.6,5.07-1.15,10.34-2.35c.47-.11.27-.83-.2-.72l-12.57,2.85L516,526c-.84.19-3.31.44-2.77,1.89.17.45.89.25.72-.2Z"/><path class="cls-8" d="M510.62,529.93l11.25-2.67a.38.38,0,0,0-.2-.73l-11.25,2.68c-.47.11-.27.83.2.72Z"/><path class="cls-8" d="M517.52,530.27,550,524c.47-.09.27-.82-.2-.72l-32.44,6.23c-.47.09-.27.82.2.73Z"/><path class="cls-8" d="M502.37,533.85q7.28-2.49,14.74-4.37a.38.38,0,0,0-.2-.73q-7.45,1.89-14.74,4.37c-.45.16-.26.88.2.73Z"/><path class="cls-8" d="M537.34,525a.38.38,0,0,0,0-.75.38.38,0,0,0,0,.75Z"/><path class="cls-8" d="M506.35,558.2a46.71,46.71,0,0,0,15.85,4.23c.48,0,.48-.71,0-.75a45.81,45.81,0,0,1-15.48-4.13c-.43-.2-.81.45-.37.65Z"/><path class="cls-8" d="M516.14,562.06l22.49,2.27c.48,0,.47-.7,0-.75l-22.49-2.27c-.48,0-.47.7,0,.75Z"/><g class="cls-14"><path class="cls-5" d="M391,383.46a42.79,42.79,0,0,1-11.07.47l2.39.32a18,18,0,0,1-4.13-1.1l2.15.91a15.71,15.71,0,0,1-3.18-1.83l1.82,1.4a12.3,12.3,0,0,1-2-2l1.41,1.82a11.28,11.28,0,0,1-1.11-1.86,8.68,8.68,0,0,0-3.23-3.22,8.86,8.86,0,0,0-5.74-1.07c-3.3.44-6.81,3-7.48,6.44a26.28,26.28,0,0,0,2.62,17.61,35.7,35.7,0,0,0,10.1,11.46c8.46,6.53,19.14,9.84,29.73,10.45a54.63,54.63,0,0,0,17.35-1.9,9,9,0,0,0,6.44-9.88c-.55-4.1-4.36-8.18-8.84-7.8l-16.43,1.41-8,.68-4.23.36a19.45,19.45,0,0,1-3.65.21l2.39.32a7.41,7.41,0,0,1-1.53-.43l2.15.9a6,6,0,0,1-.78-.44l1.82,1.41a4,4,0,0,1-.55-.54l1.41,1.82-.12-.19.91,2.15a1.21,1.21,0,0,1-.12-.41l.33,2.39v-.21l-.32,2.39.06-.21-.91,2.15.12-.21L389.36,419l.17-.21H376.8a33.4,33.4,0,0,0,31.08,7.85c9.93-2.59,18.05-9.31,25.31-16.26a154.9,154.9,0,0,1,11.87-10.75l-1.82,1.41c6.58-5,14.3-8.3,20.39-14,6.92-6.47,11.11-16.31,8.6-25.74a9.13,9.13,0,0,0-8.67-6.61c-11.29.45-22.29,3.17-32.95,6.77-10.07,3.39-19.91,7.43-30.08,10.53a112.47,112.47,0,0,1-17.38,4l2.39-.32a76,76,0,0,1-10.22.69L377.71,394,403.24,386c8.24-2.61,16.45-5.34,24.82-7.49a130.13,130.13,0,0,1,14.37-2.91l-2.39.32a39.54,39.54,0,0,1,8.68-.63l-2.39-.32a7.56,7.56,0,0,1,1.33.31l-2.15-.91a5.41,5.41,0,0,1,.85.47l-1.82-1.41a3.27,3.27,0,0,1,.47.44L443.6,372a3.06,3.06,0,0,1,.4.61l-.91-2.15a3.1,3.1,0,0,1,.23.73l-.32-2.39a5.62,5.62,0,0,1,0,1.16l.32-2.4a7.79,7.79,0,0,1-.44,1.57l.91-2.15a19.73,19.73,0,0,1-2.38,3.87l1.41-1.82c-4.23,5.44-10.09,9.64-15.32,14.06-5.71,4.84-11.3,9.87-17.18,14.49l1.82-1.41a24.15,24.15,0,0,1-5.18,3.17l2.15-.91a14.54,14.54,0,0,1-3,.86l2.39-.32a12.29,12.29,0,0,1-3.09,0l2.39.32a10.49,10.49,0,0,1-2.2-.58l2.15.9a9.21,9.21,0,0,1-1.65-.93l1.82,1.4a6.37,6.37,0,0,1-.8-.76l1.41,1.82a2.42,2.42,0,0,1-.35-.63l.91,2.15-.08-.35.32,2.39v-.35L409,406.8a2.28,2.28,0,0,1,.17-.67l-.9,2.15a3.19,3.19,0,0,1,.38-.6l-1.41,1.82a8.62,8.62,0,0,1,.81-.79l-1.82,1.41c2.77-2.14,5.81-4,8.77-5.88s6.07-3.78,9.17-5.57q9.3-5.37,19-9.91a9.07,9.07,0,0,0,4.13-5.38,9.18,9.18,0,0,0-.9-6.94,9.09,9.09,0,0,0-5.38-4.13l-2.39-.33a9.08,9.08,0,0,0-4.55,1.23q-2.43,1.07-4.87,2.1l2.15-.91a407.5,407.5,0,0,1-38.94,14.13l11.39,8.67a7.57,7.57,0,0,1,0-1.26l-.32,2.39a6.62,6.62,0,0,1,.48-1.74l-.91,2.15a8.7,8.7,0,0,1,.78-1.31l-1.41,1.82a11.07,11.07,0,0,1,1.81-1.81l-1.82,1.4a18.62,18.62,0,0,1,3.87-2.23l-2.15.91c5.42-2.29,11.58-3.34,17.38-4.13l-2.39.32a100.46,100.46,0,0,1,10.4-.8l-2.39-17.68a151.08,151.08,0,0,1-31.4,7.8l2.39-.33a54.4,54.4,0,0,1-14.53.31l2.39.32a28.38,28.38,0,0,1-6.73-1.75l2.15.9a19.22,19.22,0,0,1-4.11-2.34l1.82,1.41a16.86,16.86,0,0,1-2.69-2.65l1.41,1.82a15.92,15.92,0,0,1-1.26-1.89l-12.32,12.31a57.67,57.67,0,0,0,40,11,9.78,9.78,0,0,0,6.36-2.63,9.19,9.19,0,0,0,2.64-6.37,9.09,9.09,0,0,0-2.64-6.36c-1.65-1.52-4-2.89-6.36-2.64a50.46,50.46,0,0,1-12-.15l2.39.32A52.16,52.16,0,0,1,382,380.87l2.15.91a50.44,50.44,0,0,1-10.73-6.18l-2.15-.91a6.85,6.85,0,0,0-3.59-.16,8.53,8.53,0,0,0-5.17,2.48,9.26,9.26,0,0,0-1.41,10.9c5.2,9,15.07,12.62,25,13.35a57.89,57.89,0,0,0,11.91-.52,172.38,172.38,0,0,0,17.17-3.06,149.88,149.88,0,0,0,16.85-5.09,9.47,9.47,0,0,0,5.38-4.13,9.33,9.33,0,0,0,1.07-5.74,9,9,0,0,0-8.84-7.81,106,106,0,0,0-26.25,3.92,31.55,31.55,0,0,0-11.76,5.88c-3.57,2.93-6.11,7.79-5.71,12.49a9.23,9.23,0,0,0,3.55,7.07,8.73,8.73,0,0,0,7.85,1.61,427.71,427.71,0,0,0,46-17.12l-9.09-15.55a245.9,245.9,0,0,0-36,20.65,16.83,16.83,0,0,0-5.41,5.34,11.05,11.05,0,0,0,1.92,13.18,17.15,17.15,0,0,0,13.09,4.7,24.42,24.42,0,0,0,12.12-4.31c3.27-2.28,6.27-5,9.32-7.53l16.54-14c2.42-2.05,4.89-4.07,7.12-6.33a31.65,31.65,0,0,0,6.53-8.81c1.45-3.21,2.22-6.54,1.24-10a11.66,11.66,0,0,0-6-7.25c-4.19-2-8.46-1.65-12.91-1.12a147.67,147.67,0,0,0-22.53,4.55c-7.58,2.13-15.08,4.6-22.59,7l-23.64,7.48a9,9,0,0,0,2.4,17.67c23,0,43.68-10.56,65.21-17.19a115.25,115.25,0,0,1,18-4.14l-2.39.32c2.45-.32,4.91-.54,7.38-.64l-8.68-6.6a15.17,15.17,0,0,1,.32,1.52l-.32-2.4a14.37,14.37,0,0,1,0,3.82l.33-2.4a18.08,18.08,0,0,1-1.18,4.09l.91-2.15a23.34,23.34,0,0,1-2.87,4.77l1.41-1.82a29.93,29.93,0,0,1-5,4.85l1.82-1.41a108.32,108.32,0,0,1-9.55,6.13,85.3,85.3,0,0,0-11,7.9c-5.87,5-11,10.81-17.09,15.53l1.82-1.41a44.78,44.78,0,0,1-9.64,5.75L407,408a29.17,29.17,0,0,1-7.11,1.95l2.39-.33a24.34,24.34,0,0,1-6.09,0l2.39.32a25.48,25.48,0,0,1-6.24-1.73l2.15.9a25.14,25.14,0,0,1-5.22-3.08l1.82,1.41c-.53-.43-1.05-.86-1.54-1.32a9.28,9.28,0,0,0-6.37-2.64c-2.21.1-4.93.81-6.36,2.64-1.65,2.11-3,4.18-3,7a10.31,10.31,0,0,0,1.46,5.36,13.17,13.17,0,0,0,7.3,5.34,16.8,16.8,0,0,0,6.73.34l5.73-.49,23.15-2L415.8,404a48.05,48.05,0,0,1-6.16,1.26l2.39-.32a48.37,48.37,0,0,1-12.55,0l2.39.33A48.47,48.47,0,0,1,390.16,402l2.15.9a40.59,40.59,0,0,1-8.8-5l1.82,1.41a31.29,31.29,0,0,1-5.53-5.44l1.41,1.82a23.75,23.75,0,0,1-2.89-4.84l.9,2.15a18.49,18.49,0,0,1-1.26-4.56l.32,2.39a15.91,15.91,0,0,1,0-3.65L378,389.6q.07-.56.18-1.11l-16.45,2.15c2.48,5.2,7.75,8.71,13.11,10.37s10.83,1.17,16.2.45c2.49-.33,4.52-.78,6.37-2.63a9,9,0,0,0,0-12.73c-1.63-1.49-4.07-2.94-6.37-2.64Z"/></g><path class="cls-4" d="M397.76,283.53a97.38,97.38,0,0,0-26.23-47.17,7.61,7.61,0,0,0-9.09-1.17,7.76,7.76,0,0,0-3.44,8.47,92.44,92.44,0,0,1,1.86,9.77l-.26-2a160.44,160.44,0,0,1,.69,28.49c-.47,9.83-1.15,19.65-1.74,29.46l-1,17L368,319.1l-.27-.08,1.79.76c-.65-.34-.37-.1.86.71.83,1.2,1.07,1.47.73.82l.76,1.79a5.38,5.38,0,0,1-.3-1.18l.27,2a36,36,0,0,1,.18-5.77l.37-6.7.74-13.4,1.49-26.79.85-15.38h-15c1.82,18.66,3.64,37.48,1.86,56.22-.39,4.05.86,8.08,4.49,10.3,2.82,1.72,6.09,1.71,9.22,1.08a93.58,93.58,0,0,0,12.38-3.57c4.6-1.58,9.11-3.44,13.53-5.47a60.47,60.47,0,0,0,10.75-5.86c4.73-3.52,8.71-8.14,8.81-14.36a16,16,0,0,0-2.77-8.81,40.2,40.2,0,0,1-3.51-5.93l.75,1.79c-1.35-3.35-2-6.92-3.23-10.32a43.57,43.57,0,0,0-4.79-9.79,44.81,44.81,0,0,0-15.9-14.63c-5-2.66-11.3-5-16.07-.48-3.76,3.6-3.34,9.32-3.67,14.11-.56,8.28-1.09,16.57-1.64,24.85l-1.83,27.91c-.25,3.71,3,6.9,6.5,7.36s7.55-1.69,8.23-5.37l7.27-39.27H376.4a142.51,142.51,0,0,0,10.87,32.71c1.34,2.86,5.54,4.39,8.47,3.44a8.83,8.83,0,0,0,3.31-1.93c1.54-1.4,2-3.34,2.2-5.3a161.61,161.61,0,0,0-.1-36.85l-14.73,2a142.67,142.67,0,0,0,9.06,33.71,8.21,8.21,0,0,0,3.45,4.48,7.68,7.68,0,0,0,5.78.76c3.68-1.19,6.59-5.25,5.24-9.23a113,113,0,0,0-27.4-44.07,7.55,7.55,0,0,0-8.19-1.55c-2.55,1.08-4.87,3.92-4.61,6.86l1.82,20.92.91,10.34.45,5.17a34.7,34.7,0,0,1,.36,5.18l.27-2-.09.39.76-1.79c-.27.55-.2.51.22-.13a3.56,3.56,0,0,1,1.35-1.26c-.2.12-.4.27-.6.41-.79.54-1.54,1.13-2.3,1.72a38.64,38.64,0,0,0-3.64,3.12,40.44,40.44,0,0,0-11.75,25.33l14-3.78a4.57,4.57,0,0,1-.54-.9l.75,1.79a5.42,5.42,0,0,1-.25-1l.27,2a7.39,7.39,0,0,1,.05-1.41l-.27,2a11.81,11.81,0,0,1,.66-2.17l-.76,1.8c1.23-2.84,2.91-5.53,4.38-8.25l4.74-8.71L390,292c1.87-3.45,1-8.33-2.69-10.26s-8.26-1-10.26,2.69l-11.85,21.78c-2,3.64-4,7.25-5.92,10.9a20.39,20.39,0,0,0-2.24,5.67c-.58,3-.44,6.53,1.5,9.07a8.57,8.57,0,0,0,3.59,3.07,7.14,7.14,0,0,0,4.88.37c3.38-1.09,5.16-3.79,5.51-7.23,0-.38.08-.76.13-1.14l-.27,2a33.55,33.55,0,0,1,2.2-8.12l-.75,1.79a34.69,34.69,0,0,1,2.46-4.77c.47-.76,1-1.49,1.51-2.22.74-1-1.06,1.27-.24.3.34-.39.66-.78,1-1.16a46.86,46.86,0,0,1,3.89-3.69s-1.59,1.18-.6.47l.46-.34,1.07-.73a10.67,10.67,0,0,0,3.81-4c1.49-3.12,1-6.08.75-9.36l-.6-6.89-1.21-13.79-1.37-15.75L371.94,266q3.57,3.53,6.79,7.38.81,1,1.59,1.95l.51.66-.66-.86c.26.33.51.66.76,1,1.05,1.39,2.05,2.81,3,4.26a105.49,105.49,0,0,1,9.62,17.81l-.75-1.79c1,2.32,1.85,4.66,2.65,7l14.47-4a142.56,142.56,0,0,1-9.07-33.71,7.41,7.41,0,0,0-3.44-4.48,7.75,7.75,0,0,0-4.79-.89c-3.33.45-6.94,3.66-6.5,7.37a161.61,161.61,0,0,1,.1,36.85l14-3.79c-.73-1.54-1.42-3.1-2.09-4.67l.75,1.79a135.08,135.08,0,0,1-8-26.24c-.61-3.08-4.14-5.64-7.23-5.5s-6.62,2.2-7.23,5.5l-7.28,39.27,14.74,2,2-29.91,1-14.94c.31-4.84.48-9.73,1-14.55l-.27,2a6.5,6.5,0,0,1,.36-1.36l-.75,1.79q1-1.62-1.76,1.69l-1.79.76a2.26,2.26,0,0,1,.68-.22l-2,.27a4.59,4.59,0,0,1,1.11,0l-2-.27a11.78,11.78,0,0,1,2.17.73l-1.79-.75a36,36,0,0,1,5.91,3.22c.47.31.92.65,1.37,1,.73.53-1.43-1.15-.48-.37l.58.47c.91.77,1.79,1.57,2.62,2.41s1.55,1.64,2.26,2.51l.47.58c.57.7-1.09-1.48-.38-.48.33.46.66.92,1,1.38a37.21,37.21,0,0,1,3.26,6.1l-.76-1.79c1.42,3.46,2.13,7.14,3.37,10.66a31.16,31.16,0,0,0,3,6.42,40.61,40.61,0,0,1,2.92,4.64l-.76-1.8a8.48,8.48,0,0,1,.63,2.25l-.26-2a7.87,7.87,0,0,1,0,1.68l.27-2a8.35,8.35,0,0,1-.55,1.89l.76-1.79a12.25,12.25,0,0,1-.63,1.19c-.41.65-1,.92.36-.4-.61.58-1.12,1.24-1.76,1.8l-.56.48c-.59.47-.38.31.64-.49-.32.18-.61.43-.91.64-.71.47-1.44.91-2.18,1.33a119.32,119.32,0,0,1-11.51,5.54l1.79-.76c-3.4,1.42-6.85,2.71-10.35,3.83a71.77,71.77,0,0,1-10.24,2.78l2-.26a8.46,8.46,0,0,1-1.59.05l2,.27a6.12,6.12,0,0,1-.87-.2l1.79.75c-.66-.32-.39-.08.8.73.8,1.22,1,1.45.63.69l.76,1.79-.11-.4.27,2c-.26-2.28.31-4.77.46-7.07s.26-4.9.31-7.36c.11-4.91,0-9.83-.2-14.74-.43-9.84-1.39-19.65-2.34-29.46a8.06,8.06,0,0,0-2.2-5.3,7.5,7.5,0,0,0-12.8,5.3l-3.33,60a70.28,70.28,0,0,0-.35,7.53c.26,4.63,2.56,8.75,7.23,10.13a7.3,7.3,0,0,0,6.53-1.34,7.57,7.57,0,0,0,3-5.89l2.08-34.41c.66-10.8,1.41-21.65.76-32.48a108.13,108.13,0,0,0-2.9-19.78L360.93,247q3.07,3.06,5.86,6.39c.44.53.86,1.07,1.3,1.61,1,1.19-1.09-1.45-.16-.21l.62.82q1.29,1.74,2.5,3.54a91.2,91.2,0,0,1,8.22,15.26l-.75-1.8a91.16,91.16,0,0,1,4.78,14.94,7.56,7.56,0,0,0,9.22,5.24,7.67,7.67,0,0,0,5.24-9.23Z"/><path class="cls-1" d="M395,152a42.21,42.21,0,0,0-2.09-8.64,40.59,40.59,0,0,0-4.42-9.49,14.64,14.64,0,0,0-8-6.2,12.44,12.44,0,0,0-12.15,3.3,31.58,31.58,0,0,0-6,10.31c-2.2,5.6-2.65,11.88-2.86,17.84-.21,6.25-.29,12.5-.42,18.75l-.48,21.9c-.1,4.42,3.31,9.12,7.71,10.12a10.93,10.93,0,0,0,11.86-4.82c.2-.32.41-.62.63-.93l-1.64,2.13a15.35,15.35,0,0,1,2.59-2.63l-2.12,1.64a19,19,0,0,1,4.2-2.44l-2.51,1.05a25.26,25.26,0,0,1,6.22-1.64l-2.8.37a63.16,63.16,0,0,1,12.22.09,117.25,117.25,0,0,0,12.29.38c9-.26,18-1.37,26.25-5.2,7.64-3.56,14.41-11.2,15.68-19.71a25.51,25.51,0,0,0-.12-9.34,22.9,22.9,0,0,0-2.51-6.54,30.84,30.84,0,0,0-7.42-8.75c-6.12-5.07-13-9.24-19.82-13.33q-5.13-3.07-10.36-6c-3.87-2.14-8-4.7-12.33-5.62-6.29-1.32-13,0-17.46,5a39.94,39.94,0,0,0-6.53,11.06,74.42,74.42,0,0,0-4.34,12.82c-.4,1.77-.7,3.54-.95,5.33a38.79,38.79,0,0,0-.71,7.68,17.28,17.28,0,0,0,2.69,9,15.77,15.77,0,0,0,9.71,6.64c4.95,1,10.15.8,15.18.88q13.89.21,27.79-.28c4.46-.16,9.08-3.14,10.13-7.71a12.51,12.51,0,0,0,0-5.58,10.61,10.61,0,0,0-4.83-6.28l-37.56-19.62a11.1,11.1,0,0,0-8.1-1.06,10.71,10.71,0,0,0-6.27,4.82c-2.58,4.88-1.4,11.6,3.77,14.37l31.13,16.68c4,2.14,9.51,1.86,12.72-1.64a12.5,12.5,0,0,0,2.7-4.63c.72-2.22.42-6.17-1.06-8.09l-29.32-38.09a7.9,7.9,0,0,0-2.71-2.94,7.8,7.8,0,0,0-3.57-1.88,10.73,10.73,0,0,0-8.09,1,10.61,10.61,0,0,0-4.82,6.28c-.58,2.55-.62,5.91,1.05,8.09l29.33,38.09,14.37-14.37-31.13-16.68-10.6,18.13,37.56,19.62,5.3-19.56q-10.05.35-20.1.34c-3.31,0-6.62,0-9.93-.1-3.12-.06-6.31,0-9.42-.34l2.79.37a10.49,10.49,0,0,1-2.13-.51l2.51,1.06a7.1,7.1,0,0,1-1.24-.68l2.12,1.64a7,7,0,0,1-.79-.75l1.65,2.13a6.69,6.69,0,0,1-.74-1.23l1.06,2.51a9,9,0,0,1-.46-1.77l.38,2.8a23.08,23.08,0,0,1,.26-5.63l-.37,2.79a62.87,62.87,0,0,1,4.24-15.65l-1.06,2.51a39.67,39.67,0,0,1,4.39-8.33L393.47,149a11.28,11.28,0,0,1,1.59-1.65L392.94,149a7.81,7.81,0,0,1,1.68-1l-2.51,1.06a7.88,7.88,0,0,1,1.59-.4l-2.79.37a9.94,9.94,0,0,1,2,0l-2.79-.38a16,16,0,0,1,3.71,1.09l-2.51-1.06a96.53,96.53,0,0,1,8.82,4.67q4.49,2.51,8.89,5.17a175.77,175.77,0,0,1,16.11,10.5l-2.13-1.64a30.87,30.87,0,0,1,5.37,5.16l-1.64-2.12A17.69,17.69,0,0,1,429,174.2l-1.06-2.51a14.79,14.79,0,0,1,.95,3.46l-.38-2.79a14.71,14.71,0,0,1,0,3l.37-2.79a15.37,15.37,0,0,1-1,3.65l1.06-2.51a18.73,18.73,0,0,1-2.34,4l1.64-2.13a20.54,20.54,0,0,1-3.31,3.28l2.13-1.64a24.83,24.83,0,0,1-5,2.87l2.51-1.06A42,42,0,0,1,414,181.73l2.8-.37a97.56,97.56,0,0,1-14,.77c-4.84-.07-9.64-.7-14.47-.77-11-.17-22.09,3.49-28.32,13.12l19.57,5.3.55-25.13c.16-7.58-.08-15.31.91-22.83l-.37,2.79a33.72,33.72,0,0,1,2.07-8.1L381.65,149a22.09,22.09,0,0,1,2.74-4.79l-1.64,2.12a7,7,0,0,1,.69-.75l-2.13,1.64a2,2,0,0,1,.58-.34l-2.51,1,.32-.08-2.79.37a1.67,1.67,0,0,1,.63,0l-2.79-.38.31.09-2.51-1.06a2.82,2.82,0,0,1,.59.32L371,145.59a6.09,6.09,0,0,1,1,1l-1.64-2.12a25.41,25.41,0,0,1,2.55,4.91l-1.06-2.51a42.79,42.79,0,0,1,2.9,10.71c.33,2.41,2.84,5.12,4.83,6.28A10.5,10.5,0,0,0,394,160.1l1-2.51a10.57,10.57,0,0,0,0-5.58Z"/><path class="cls-9" d="M390.45,333.79l-.38.06,2-.27a13.89,13.89,0,0,1-3.47,0l2,.27a15.17,15.17,0,0,1-3.38-.89l1.79.76a15.14,15.14,0,0,1-1.93-1c-.11-.07-.83-.46-.83-.55,0,.21,1.54,1.29.27.18a7.8,7.8,0,0,0-5.3-2.2,8.81,8.81,0,0,0-5.31,2.2c-10.95,8.56-17,22.72-17.35,36.43a7.48,7.48,0,0,0,3.71,6.47c2.48,1.45,5.08,1.16,7.57,0q5.63-2.62,11.35-5l-1.79.76q12.28-5.18,25-9.31c3-1,5.66-3.86,5.51-7.23-.14-3.15-2.21-6.57-5.51-7.24A143.62,143.62,0,0,0,376,344.38l2,14.73a54.74,54.74,0,0,0,25.48-15.76A7.62,7.62,0,0,0,402,331.57a32.36,32.36,0,0,0-19.69-5.37l2,14.73c15.54-6.17,31.32-12.66,43.61-24.37a61.67,61.67,0,0,0,4.57-4.86c.68-.8,1.31-1.64,2-2.43.38-.43.81-.81,1.19-1.23s-.77.61-.81.6.83-.49.92-.53l-1.79.75a5.21,5.21,0,0,1,1.34-.36l-2,.27a3.48,3.48,0,0,1,.79,0l-2-.27a6.73,6.73,0,0,1,1.52.42l-1.79-.76a39.64,39.64,0,0,1,4.12,2.54,37.74,37.74,0,0,0,16.45,5.18c6.41.49,12.72-1.47,19-2.32l-2,.27a26.34,26.34,0,0,1,6.87-.14l-2-.27a15.3,15.3,0,0,1,3.33.89l-1.79-.76a12.86,12.86,0,0,1,2,1.06c1.38.91-1.19-1.13-.2-.17.25.24.52.47.76.73s.44.5.67.75c-1.54-1.69-.73-.95-.39-.42a14.44,14.44,0,0,1,1.1,2.1l-.76-1.8a17.93,17.93,0,0,1,1.14,4.37l-.26-2a22.52,22.52,0,0,1,0,5.38l.27-2a23.5,23.5,0,0,1-1.65,6l.76-1.8A29.91,29.91,0,0,1,477,330c-.41.64-.84,1.27-1.28,1.88-.29.41-1.28,1.52.17-.2-.26.32-.51.65-.78,1-2,2.44-4.25,4.68-6.49,6.92l12.8,5.3a128.12,128.12,0,0,1,1.09-20.35l-.27,2c.22-1.6.47-3.2.75-4.79a7.91,7.91,0,0,0-.76-5.78,7.34,7.34,0,0,0-4.48-3.45c-13.25-2.32-26.88-4.82-40.36-3.15a77.5,77.5,0,0,0-32.57,11.59,82,82,0,0,0-15.37,12.74,7.55,7.55,0,0,0-1.55,8.19,7.46,7.46,0,0,0,6.85,4.61c7.93-.22,15.1-3.13,22.51-5.61a118.92,118.92,0,0,1,21.55-5l-2,.27a118.66,118.66,0,0,1,31.05,0l-2-.27c2,.27,4,.59,6,1l2-14.73a165.9,165.9,0,0,0-43,7.59A174.38,174.38,0,0,0,391.1,348a184.33,184.33,0,0,0-20.93,15.39c-2.42,2.05-2.86,6.48-1.18,9.09a9,9,0,0,0,2.69,2.69,7.5,7.5,0,0,0,5.78.76l29.22-11c9.48-3.55,18.9-7.34,28.5-10.52a93.48,93.48,0,0,1,16.22-4l-2,.27a50.17,50.17,0,0,1,12.84-.14l-2-.27a44,44,0,0,1,4.55.87,7.55,7.55,0,0,0,7.88-2.68,7,7,0,0,0,1.48-3.55,6.88,6.88,0,0,0-.89-4.78A37.28,37.28,0,0,0,462.17,330a39.49,39.49,0,0,0-12.59-4.64c-10.12-1.82-20.21-.25-29.81,3.22-5.88,2.13-11.56,4.76-17.21,7.42-2.86,1.34-4.4,5.53-3.45,8.47A9,9,0,0,0,401,347.8a7.43,7.43,0,0,0,5.3,2.19L431,347.44a8.06,8.06,0,0,0,5.3-2.2,7.63,7.63,0,0,0,2.2-5.3c-.17-3.72-3.32-7.93-7.5-7.5L406.34,335l3.79,14c3.24-1.52,6.49-3,9.79-4.44l-1.79.76a76.2,76.2,0,0,1,19-5.65l-2,.27a42.34,42.34,0,0,1,10.67-.08l-2-.26A36,36,0,0,1,453,342l-1.79-.76a35,35,0,0,1,6.19,3.52c.68.48-1.56-1.27-.5-.38.19.16.38.31.56.48.47.4.93.82,1.37,1.25s.87.9,1.28,1.36,1.74,2.24.26.26l8.47-11c-13-3.22-26.28-.57-38.72,3.64-12.12,4.1-24,8.88-36,13.38l-20.57,7.71L380.77,374c1.64-1.38,3.3-2.74,5-4.06l.67-.53-.5.39,1.36-1c.8-.59,1.6-1.18,2.41-1.76q5.16-3.74,10.6-7.06a168.81,168.81,0,0,1,22.47-11.53l-1.8.75A162.85,162.85,0,0,1,461.82,338l-2,.27q7-.94,14-1.25a7.55,7.55,0,0,0,7.37-6.51c.46-3.41-1.69-7.55-5.37-8.23a125.61,125.61,0,0,0-63.66,4.48c-5.34,1.84-10.63,4-16.26,4.73l2-.27c-1.06.13-2.11.21-3.17.24l5.3,12.8c1.71-1.81,3.49-3.54,5.36-5.17.93-.81,1.88-1.59,2.85-2.36,1.15-.92-1.1.81-.39.3l.82-.62,1.5-1.07a73,73,0,0,1,12.92-7.15l-1.8.76a69.29,69.29,0,0,1,17.29-4.79l-2,.27c8.34-1.11,16.74-.59,25.05.51l-2-.27c4.72.64,9.42,1.45,14.11,2.28l-5.24-9.23a138,138,0,0,0-2.1,27.14,7.54,7.54,0,0,0,12.8,5.3A75.31,75.31,0,0,0,490,337.54a32,32,0,0,0,5.1-16.14,23.94,23.94,0,0,0-5.48-16.21c-3.81-4.59-9.95-6.62-15.75-6.67s-11.37,1.59-17,2.37l2-.26a31.3,31.3,0,0,1-8.09.07l2,.27a29.44,29.44,0,0,1-7-1.91l1.79.76a36.17,36.17,0,0,1-6-3.37,13.77,13.77,0,0,0-10.44-2.39c-5.26.94-8.09,5.88-11.45,9.46A62.86,62.86,0,0,1,415,308c-.75.65-1.52,1.29-2.3,1.91-1.36,1.08,1.11-.83.1-.08-.48.36-.95.71-1.44,1.06a92.59,92.59,0,0,1-10.69,6.54c-4.24,2.24-8.61,4.22-13,6.09l1.79-.76c-3,1.29-6.12,2.52-9.2,3.74a8,8,0,0,0-4.48,3.44,7.75,7.75,0,0,0-.89,4.79c.47,3.47,3.63,6.74,7.37,6.5a26.45,26.45,0,0,1,5.11.17l-2-.27a26.63,26.63,0,0,1,6.2,1.7l-1.79-.76a27.46,27.46,0,0,1,4.59,2.48l-1.52-11.78a48.61,48.61,0,0,1-3.67,3.65c-.67.6-1.36,1.16-2.05,1.73-1.05.86,1.41-1,.22-.17l-1,.72a47.55,47.55,0,0,1-8.86,4.9l1.8-.75a49.66,49.66,0,0,1-5.31,1.83,7.51,7.51,0,0,0,2,14.73,133.89,133.89,0,0,1,17.79,1.17l-2-.27c2.87.39,5.73.88,8.57,1.45V347.26a341,341,0,0,0-38.1,15.11l11.29,6.48a44.47,44.47,0,0,1,.37-4.75l-.26,2a43.9,43.9,0,0,1,2.91-10.62l-.75,1.79a41.8,41.8,0,0,1,4.87-8.58c1-1.29-.73.9-.23.3l.85-1c.5-.58,1-1.14,1.55-1.68a35.26,35.26,0,0,1,3.65-3.26H375.9a22.51,22.51,0,0,0,8.61,4.88,21.65,21.65,0,0,0,9.93.34,7.49,7.49,0,0,0,4.48-3.45,7.49,7.49,0,0,0-2.69-10.26,8.54,8.54,0,0,0-5.78-.75Z"/><path class="cls-8" d="M344.78,131.83a65.42,65.42,0,0,0-11.92-1.24A76.53,76.53,0,0,0,321,131.78a83.59,83.59,0,0,0-17,4.89c-6.5,2.54-12.87,5.43-19.16,8.47a56.91,56.91,0,0,0-14.1,9.38,28.43,28.43,0,0,0-9.28,19.41c-.44,7.87,3.77,15.5,9.32,20.78,4.74,4.51,10.43,8.17,15.82,11.84q7.46,5.07,15.14,9.77A172.92,172.92,0,0,0,319,226c7.72,3.55,15.93,6.34,24.57,5.83,4.83-.29,9.14-2.39,11.65-6.68a13.48,13.48,0,0,0,0-13.63c-3.93-9-9.77-17.16-16.25-24.56a167.46,167.46,0,0,0-19.52-18.51c-3.95-3.26-8-6.42-12-9.58l-2.74,21.21c1.28-.65,2.58-1.25,3.89-1.81l-3.22,1.36a66.14,66.14,0,0,1,16.5-4.54l-3.59.48a64,64,0,0,1,16.54-.13l-3.59-.49a20.53,20.53,0,0,1,4.58,1.1l-3.22-1.36a11.61,11.61,0,0,1,2.2,1.24l-2.73-2.11a10.34,10.34,0,0,1,1.79,1.83l-2.11-2.73a16.41,16.41,0,0,1,1.66,3l-1.36-3.22a39.58,39.58,0,0,1,2.4,9.2l-.48-3.59a42.7,42.7,0,0,1,0,11.18l.49-3.59a43.57,43.57,0,0,1-1.81,7.58l22.56-6a57.44,57.44,0,0,1-8.26-8.09l2.11,2.73a23.7,23.7,0,0,1-2.87-4.82l1.36,3.23a17.7,17.7,0,0,1-1.1-4.11l.48,3.59a16.44,16.44,0,0,1,0-3.84l-.49,3.58a14.09,14.09,0,0,1,.88-3.25l-1.36,3.22a11.39,11.39,0,0,1,1.32-2.23l-2.11,2.73a11.63,11.63,0,0,1,1.95-1.89l-2.73,2.11c2.48-1.81,5.05-3.27,7.47-5.22a18.58,18.58,0,0,0,5.93-9.17,18.08,18.08,0,0,0,.44-2.7,18.42,18.42,0,0,0,.29-2.71,18.23,18.23,0,0,0-.81-5.28c-1.77-5.23-5.91-10.14-11.61-11.21a14.54,14.54,0,0,0-8.79.68,12.68,12.68,0,0,0-6.46,5.53,90.93,90.93,0,0,0-9.63,41.41c.12,12.48,2.58,24.76,3.67,37.16a96.15,96.15,0,0,1-.13,20.84l.48-3.59-.21,1.48,22.56-6a335.35,335.35,0,0,0-66.08-46.54c-8-4.29-17-9.18-26.37-5.69a29.43,29.43,0,0,0-11.87,8.08,96,96,0,0,0-7.7,10,78.08,78.08,0,0,0-4.84,8.3c-1.76,3.51-3.61,7.2-4.38,11.07-1.17,5.86-.94,11.46,1.87,16.84,2.62,5,7.74,8.55,13.11,10,4.3,1.16,9,1.16,13.4,1.16q5.71,0,11.41-.41a187.55,187.55,0,0,0,26.68-3.81,13.58,13.58,0,0,0,8.07-6.2,13.94,13.94,0,0,0,1.6-8.61,13.52,13.52,0,0,0-13.26-11.71,16.76,16.76,0,0,1-1.73-.12l3.59.49a19.88,19.88,0,0,1-4.55-1.29l3.22,1.36a66.16,66.16,0,0,1-7.41-4,47.82,47.82,0,0,0-9.87-4.51,38.43,38.43,0,0,0-6.66-1.2,16,16,0,0,0-3.59-.08,26.27,26.27,0,0,0-9.45,2.5,20.73,20.73,0,0,0-5.48,3.9,13.51,13.51,0,0,0,5.95,22.57q4.66,1.71,9.24,3.63l-3.23-1.36a213.79,213.79,0,0,1,47.23,27.53l-2.73-2.11c2.92,2.27,5.73,4.68,8.66,6.94a23.67,23.67,0,0,0,7.8,4.25,17.43,17.43,0,0,0,5.17.7c3.4,0,5.11-.86,8.16-2.21l2.74-2.11a10.22,10.22,0,0,0,2.79-4.34,13,13,0,0,0,.68-8.8,16.08,16.08,0,0,0-3.47-5.95,15.12,15.12,0,0,0-9.55-4l-77.8-10.43c-3-.4-6-.9-9-1.17a22.51,22.51,0,0,0-12.81,2.57,19.57,19.57,0,0,0-6.61,6.28c-2.06,3-2.65,6.36-3,9.92a76,76,0,0,0,0,8.8c0,1.53,0,3.07,0,4.61a25.52,25.52,0,0,0,.88,6.75c1.94,6.22,7,11.54,13.55,12.75,7.13,1.3,14.63,1.42,21.86,1.56s14.55,0,21.82-.5,14.37-1.13,21.53-.21l-3.59-.48c10.26,1.42,19.5,6.55,29.67,8.36,8.46,1.5,18.15,2.2,24.76-4.51,6.31-6.41,5.82-16.39,4.71-24.65a61.26,61.26,0,0,0-6.88-21.27,13.6,13.6,0,0,0-4.84-4.84,13.34,13.34,0,0,0-8.61-1.6,12.69,12.69,0,0,0-6.38,2.65c-2.09,1.62-4.45,4.29-4.84,7a207.38,207.38,0,0,1-4.24,21.39,150.93,150.93,0,0,1-6.44,20.47l1.36-3.22a9.67,9.67,0,0,1-1,1.72l2.11-2.74a6.2,6.2,0,0,1-.8.82l2.73-2.11a3.3,3.3,0,0,1-.65.39l3.22-1.36a3.61,3.61,0,0,1-.86.28l3.59-.48a6.88,6.88,0,0,1-1.36,0l3.59.48c-2.65-.36-5.24-1.49-7.81-2.2s-4.95-1.29-7.46-1.8a148.64,148.64,0,0,0-19-2.65,135.75,135.75,0,0,0-34.9,2.2,121,121,0,0,0-15.34,3.92c-3,1-5.88,2.09-8.76,3.3a19.32,19.32,0,0,0-11.54,12.62c-1.27,4.48-.73,8.8-.07,13.3a29.89,29.89,0,0,0,1.76,6.71,53.44,53.44,0,0,0,10.49,17.07c9.05,9.9,22,15.66,34.72,19.14a13.59,13.59,0,0,0,14.19-4.84,12.83,12.83,0,0,0,2.66-6.39,6.83,6.83,0,0,0,0-3.59,10.12,10.12,0,0,0-1.6-5,74.11,74.11,0,0,0-8.47-14.37,90.1,90.1,0,0,0-13.23-14.56L244.91,338.8q14.25,4.72,28.08,10.56L269.77,348q12.64,5.36,24.88,11.6l10.41-24.68-1.22-.5,3.22,1.36a95,95,0,0,1-20.82-12.16l2.73,2.11a95.16,95.16,0,0,1-17.05-17l2.11,2.73-.27-.35L262.1,331.38c2,.13,4,.33,6,.59l-3.59-.48a84,84,0,0,1,20.81,5.72l-3.22-1.36a83.3,83.3,0,0,1,17.5,10.1l3.23,1.36a10.06,10.06,0,0,0,5.38.24,12.82,12.82,0,0,0,7.75-3.71,16,16,0,0,0,3.47-6,15.16,15.16,0,0,0-1.36-10.4L307.9,313.81l-18.47,18.47.75.57-2.74-2.11a104.6,104.6,0,0,1,18.77,18.72l-2.11-2.73c1.33,1.72,2.6,3.48,3.83,5.28a14.34,14.34,0,0,0,6.45,5.53,13,13,0,0,0,8.79.68c5.57-1.8,10.07-6.92,9.91-13a111.9,111.9,0,0,1,.44-16.68l-.48,3.59a41.18,41.18,0,0,1,2.71-10.47l-1.37,3.23a31.59,31.59,0,0,1,3.86-6.66l-2.11,2.73a25.77,25.77,0,0,1,4.23-4.25l-2.73,2.12a23.91,23.91,0,0,1,2.69-1.76L320,305.39a148.19,148.19,0,0,0,3.92,32.09l1.36,3.22a10.16,10.16,0,0,0,3.48,3.79,12.88,12.88,0,0,0,8.18,2.9,16,16,0,0,0,6.81-1.84c3.11-1.65,5.1-4.88,6.21-8.07a41,41,0,0,0,1.83-7.65,55.54,55.54,0,0,0,.76-11.22,59,59,0,0,0-1.6-10.9A57.85,57.85,0,0,0,347,297.3l-2.11-2.73a10.15,10.15,0,0,0-4.34-2.8,13,13,0,0,0-8.79-.68,14,14,0,0,0-9.91,13L321,334.67l-.44,15c-.15,5.12-.1,10.3-.47,15.41l.48-3.59a5.09,5.09,0,0,1-.35,1.34l1.36-3.22a3.74,3.74,0,0,1-.35.53l2.11-2.73a3.16,3.16,0,0,1-.42.4l2.73-2.11a2.87,2.87,0,0,1-.48.28l3.22-1.36a4.73,4.73,0,0,1-.82.22l3.59-.49a5.79,5.79,0,0,1-1.25,0l3.59.48a11.13,11.13,0,0,1-2.37-.71l3.23,1.36c-1.55-.68-2.94-1.61-4.44-2.37a39.37,39.37,0,0,0-8-3.15,47.89,47.89,0,0,0-14.17-1.28c-9.14.53-18.07,2.78-27.12,4l3.59-.49c-5,.67-10.11,1.14-15.19,1.37a76.42,76.42,0,0,1-13.53-.08L259,354a16.87,16.87,0,0,1-4.07-1.08l3.23,1.36a10.45,10.45,0,0,1-1.72-1l2.74,2.11a7.14,7.14,0,0,1-1.36-1.33l2.11,2.73a7.17,7.17,0,0,1-.65-1.11l1.36,3.23a5.87,5.87,0,0,1-.24-.63c-1.12-3.2-3.08-6.42-6.2-8.06a13.88,13.88,0,0,0-8.61-1.61,12.8,12.8,0,0,0-7.75,3.72c-2.35,2.55-4.17,6-4,9.54a42.33,42.33,0,0,0,5.13,18.05,54.53,54.53,0,0,0,5.48,7.78,45,45,0,0,0,4.34,4.71c7.49,7.1,16.43,12,25.4,16.86a106.93,106.93,0,0,1,13.84,8.66l-2.73-2.11q2,1.53,3.8,3.22a13.6,13.6,0,0,0,17.73,1.06c5.42-4.19,6.65-11.39,3.47-17.42L297,377.29,285.32,397.6q8.9-.86,17.85-1a126.74,126.74,0,0,1,17.43.45l-3.59-.48a7.1,7.1,0,0,1,1.1.28l-3.23-1.36a2.79,2.79,0,0,1,.66.35l-2.74-2.12a2.38,2.38,0,0,1,.53.52l-2.11-2.74a2.57,2.57,0,0,1,.36.62l-1.36-3.22a5.49,5.49,0,0,1,.27,1.06l-.48-3.59a12,12,0,0,1-.11,2.67l.49-3.59a31.6,31.6,0,0,1-2.15,7.86l1.36-3.22a33.83,33.83,0,0,1-4.11,7.05l2.11-2.73a33.26,33.26,0,0,1-6,6.05l2.73-2.11a31.74,31.74,0,0,1-6.72,3.9l3.23-1.36-.73.29c-3.23,1.26-6.36,3-8.06,6.2A14,14,0,0,0,290.4,416a12.83,12.83,0,0,0,3.72,7.75l2.73,2.11a13.39,13.39,0,0,0,6.81,1.84c6.74.68,13.33-1.24,19.36-4.07a43.22,43.22,0,0,0,8.22-5.47,35.6,35.6,0,0,0,5.19-4.93,55.21,55.21,0,0,0,10.33-17.79c2.3-6.31,3.23-13.14,3.76-19.81a177.9,177.9,0,0,0,.1-19.46l-26.52,3.59c.6,3.42,1.2,6.84,1.67,10.27l-.48-3.58a68.62,68.62,0,0,1,.35,18.05l.48-3.59a39.65,39.65,0,0,1-2.53,9.39L325,387a33.9,33.9,0,0,1-4.16,7.25l2.11-2.73a27.5,27.5,0,0,1-4.68,4.72l2.73-2.11a24.28,24.28,0,0,1-4,2.47c-2.91,1.43-5.37,5-6.21,8.07a13.83,13.83,0,0,0,1.36,10.4,13.65,13.65,0,0,0,8.07,6.21,15,15,0,0,0,10.4-1.36,39,39,0,0,0,6.75-4.59,27.15,27.15,0,0,0,3.69-3.5,42.9,42.9,0,0,0,7.26-11.2,58.91,58.91,0,0,0,2.92-7.79,69.09,69.09,0,0,0,1.61-22.08c-.56-6.12-1.58-12.2-2.66-18.25-.53-3-3.54-6.66-6.2-8.06a14,14,0,0,0-8.61-1.61,12.83,12.83,0,0,0-7.75,3.72,13.67,13.67,0,0,0-3.95,9.54c.25,7.93.47,15.9-.56,23.79l.49-3.59a56.17,56.17,0,0,1-3.61,13.92L321.3,387a38.51,38.51,0,0,1-4.81,8.25l2.12-2.73a37,37,0,0,1-6.46,6.48l2.73-2.11a30.89,30.89,0,0,1-6.37,3.75l3.23-1.36a26.15,26.15,0,0,1-6.26,1.76l3.59-.49a23.31,23.31,0,0,1-5.41.08l3.59,26.52a46.78,46.78,0,0,0,16.9-10.76,48.59,48.59,0,0,0,10.49-16.86,31.28,31.28,0,0,0,1.73-6.58,29.92,29.92,0,0,0,.64-6.64c-.34-4.33-1.67-8.36-4.83-11.5a16.72,16.72,0,0,0-9.79-4.58c-2.05-.28-4.07-.42-6.14-.51-3.11-.14-6.23-.2-9.34-.21-7.21,0-14.42.36-21.59,1.05a13.34,13.34,0,0,0-6.81,1.85,13.55,13.55,0,0,0-4.85,4.84,13.8,13.8,0,0,0,0,13.63l13.41,25.38,21.2-16.36c-6.09-5.64-13.12-10-20.37-14-6.22-3.4-12.56-6.64-18.22-10.95l2.73,2.11a51,51,0,0,1-9.17-9l2.11,2.73a34.21,34.21,0,0,1-4.28-7.26l1.36,3.22a26.86,26.86,0,0,1-1.8-6.52l.48,3.59c-.09-.67-.15-1.34-.19-2l-26.52,3.59a20,20,0,0,0,5.47,8.83,24.87,24.87,0,0,0,9.21,5.12,36.15,36.15,0,0,0,7.8,1.25c1.92.16,3.86.12,5.78.1a197.74,197.74,0,0,0,30-2.77c4.49-.73,8.94-1.67,13.45-2.28l-3.59.48a48.84,48.84,0,0,1,12.78-.28l-3.59-.48a26.75,26.75,0,0,1,6.58,1.8l-3.22-1.36c1.93.86,3.67,2.07,5.61,2.92a27.56,27.56,0,0,0,5.27,2,19.09,19.09,0,0,0,9.17,0,16.44,16.44,0,0,0,7.26-4.29c3.09-3.15,4.32-7.14,4.66-11.42.23-2.8.19-5.64.27-8.44l1-33.51.56-19-25.16,6.81c.26.56.51,1.13.75,1.7l-1.36-3.23a40.78,40.78,0,0,1,2.65,9.82l-.49-3.59a41.48,41.48,0,0,1,0,10.62l.48-3.59a40.21,40.21,0,0,1-1.83,7.65h26q-1.44-6.12-2.29-12.34l.48,3.59A132.31,132.31,0,0,1,347,305.39a13.5,13.5,0,0,0-20.31-11.65c-8.91,5-14.75,13.72-17.93,23.21a61.74,61.74,0,0,0-2.6,15.08c-.31,4.38-.2,8.78-.09,13.17l25.16-6.81a126.71,126.71,0,0,0-12.77-16A124.71,124.71,0,0,0,303.06,309l-3.22-1.36a10.09,10.09,0,0,0-5.39-.24,12.82,12.82,0,0,0-7.75,3.71,16,16,0,0,0-3.47,6,10.26,10.26,0,0,0-.24,5.38,10,10,0,0,0,1.6,5l10.13,13.67,18.47-18.47c-14.69-11.08-32.82-17.09-51.09-18.26-4.66-.3-9.37,2.78-11.65,6.69a13.48,13.48,0,0,0,0,13.63,120.17,120.17,0,0,0,10.2,12,117.77,117.77,0,0,0,12.14,10.37A107.15,107.15,0,0,0,297.88,361c2.9,1.18,7.85.29,10.4-1.36a14,14,0,0,0,5.53-6.46c2.47-5.86.48-13.79-5.53-16.85a402.8,402.8,0,0,0-56.19-23.53l-3.59-.48a10.21,10.21,0,0,0-5.2,1.16,12.92,12.92,0,0,0-6.46,5.52,16.07,16.07,0,0,0-1.84,6.82c-.14,3.1,1.55,7.49,4,9.54a76.09,76.09,0,0,1,10.57,11.11l-2.11-2.73a75.3,75.3,0,0,1,9,15.09L271.68,339a90,90,0,0,1-10.93-3.69l3.23,1.36a57.07,57.07,0,0,1-12.72-7.27l2.73,2.12a42,42,0,0,1-7.31-7.34l2.11,2.73a36.36,36.36,0,0,1-4.5-7.69l1.36,3.22a31.28,31.28,0,0,1-2.12-7.71l.49,3.59a21.46,21.46,0,0,1-.14-4.67l-.48,3.59a9.29,9.29,0,0,1,.51-2l-1.36,3.22a7,7,0,0,1,.61-1.07l-2.11,2.73a7.19,7.19,0,0,1,.91-.92l-2.73,2.11a10.46,10.46,0,0,1,1.93-1.08l-3.23,1.36A114.57,114.57,0,0,1,266.58,314l-3.59.48a123,123,0,0,1,32.07,0l-3.58-.49a120.88,120.88,0,0,1,14.35,2.82c2.4.62,4.76,1.37,7.13,2.1,5.13,1.58,11,1.44,15.58-1.54,6.83-4.4,8.9-12.66,11.22-20,1.56-4.89,2.92-9.85,4.1-14.84q2.06-8.76,3.32-17.66l-24.67,3.23c.76,1.4,1.44,2.83,2.06,4.3l-1.36-3.23a48.59,48.59,0,0,1,3.22,11.95l-.49-3.59a44.3,44.3,0,0,1,.18,10.42l.48-3.59a9.09,9.09,0,0,1-.42,1.71l1.36-3.22a3.84,3.84,0,0,1-.42.77l2.11-2.73a4.77,4.77,0,0,1-.72.77l2.73-2.11a5.61,5.61,0,0,1-1.21.7l3.22-1.36a9.77,9.77,0,0,1-1.77.45l3.59-.48a26.21,26.21,0,0,1-6.44-.2l3.59.49c-5.61-.78-10.94-2.68-16.26-4.53-2.72-.95-5.45-1.89-8.23-2.65a73.68,73.68,0,0,0-11.62-2.08c-6.38-.71-12.8-.19-19.18.25s-12.93.68-19.4.64a186.6,186.6,0,0,1-21.41-1l3.59.48a9.62,9.62,0,0,1-2.29-.58l3.23,1.36a7,7,0,0,1-1-.59l2.73,2.11a4.85,4.85,0,0,1-.56-.55l2.11,2.73a5.94,5.94,0,0,1-.6-1L244.7,277a8.08,8.08,0,0,1-.53-1.88l.49,3.59a67.51,67.51,0,0,1-.22-7.66,60.71,60.71,0,0,1,.07-7.75l-.48,3.58a9.42,9.42,0,0,1,.54-2l-1.36,3.23a7.31,7.31,0,0,1,.64-1.08l-2.11,2.73a6.38,6.38,0,0,1,1-1L240,270.83a8.13,8.13,0,0,1,1.23-.67L238,271.53a9.63,9.63,0,0,1,2.1-.52l-3.59.49a29.78,29.78,0,0,1,7.05.46l9.06,1.21,17.85,2.4,36,4.82,20.25,2.71L319.9,258l-.38.17,3.22-1.37a3,3,0,0,1-.77.19l3.59-.48a3.48,3.48,0,0,1-.79,0l3.59.49a6.6,6.6,0,0,1-1.58-.43l3.22,1.36a13.61,13.61,0,0,1-2.62-1.62l2.74,2.11c-8.42-6.71-16.8-13.33-25.89-19.11a213.09,213.09,0,0,0-25.74-13.95c-5.93-2.7-12-5.21-18.09-7.46l6,22.57c.28-.26.55-.5.85-.74l-2.73,2.12a10.09,10.09,0,0,1,1.89-1.07l-3.22,1.36a11.54,11.54,0,0,1,2.46-.63l-3.59.48a15.85,15.85,0,0,1,3.77.06l-3.59-.48a22.69,22.69,0,0,1,5.3,1.54l-3.22-1.36c3.16,1.38,6,3.38,9.05,5a34.72,34.72,0,0,0,15.87,4.57l-3.59-26.51q-6.35,1.38-12.77,2.26l3.59-.48q-7.59,1-15.25,1.34a89.17,89.17,0,0,1-14.34-.17l3.59.48a14.26,14.26,0,0,1-3.41-.88l3.22,1.36a9.72,9.72,0,0,1-1.65-1l2.74,2.11a8,8,0,0,1-1.35-1.38l2.11,2.74a9.44,9.44,0,0,1-.75-1.31l1.37,3.23a8.69,8.69,0,0,1-.57-2.17l.48,3.59a13.11,13.11,0,0,1,0-2.73l-.49,3.59a22.78,22.78,0,0,1,1.55-5.49l-1.36,3.22a73.92,73.92,0,0,1,9.46-15.94l-2.11,2.73a35,35,0,0,1,5.7-6.14l-2.73,2.11a13.79,13.79,0,0,1,2.84-1.68l-3.22,1.36a10.83,10.83,0,0,1,2.38-.62l-3.59.49a11.15,11.15,0,0,1,2.31,0L259.8,215a17.32,17.32,0,0,1,3.59,1l-3.23-1.36c3.66,1.56,7.17,3.57,10.66,5.48s7,3.92,10.45,6q10.44,6.24,20.39,13.26,5.61,4,11,8.16L310,245.42q9.52,7.37,18.49,15.43c3.63,3.26,8.29,4.8,13.13,3.47a13.51,13.51,0,0,0,9.43-9.43,100.41,100.41,0,0,0,1.33-17c-.08-4.66-.48-9.3-1-13.93-1.05-9.31-2.59-18.57-3.05-27.94a87.75,87.75,0,0,1,.58-15.88l-.49,3.58a76,76,0,0,1,5.05-18.48l-1.36,3.23c.63-1.51,1.32-3,2.05-4.48l-15.25,6.21a3.67,3.67,0,0,1,.8.23l-3.22-1.36a2.2,2.2,0,0,1,.44.28l-2.73-2.11a4.07,4.07,0,0,1,.54.56l-2.11-2.73a4,4,0,0,1,.39.7l-1.36-3.22a6.85,6.85,0,0,1,.29,1.1l-.49-3.59a6.93,6.93,0,0,1,0,1.51l.48-3.59a7.05,7.05,0,0,1-.4,1.48l1.36-3.23a6.06,6.06,0,0,1-.6,1l2.11-2.73a9.94,9.94,0,0,1-1.65,1.59l2.73-2.11c-1.41,1.05-3,1.86-4.41,2.87a25.62,25.62,0,0,0-7.76,7.89,21.54,21.54,0,0,0-2.87,7.42,31.88,31.88,0,0,0,0,11.4c1.45,9.57,8.66,17,15.71,23a13.51,13.51,0,0,0,5.95,3.48,13.67,13.67,0,0,0,7.18,0c4.74-1.31,7.9-4.9,9.43-9.43a51,51,0,0,0,2.56-19.92,59,59,0,0,0-1.87-11.5,35.45,35.45,0,0,0-1.27-3.72,29.54,29.54,0,0,0-3-6.25,25.8,25.8,0,0,0-6.63-6.67,23.38,23.38,0,0,0-6.23-2.89c-3.51-1.18-7.39-1.41-11.07-1.64a79.24,79.24,0,0,0-19.49,1.46,77.77,77.77,0,0,0-20.55,7.21c-3.72,1.87-5.92,5.92-6.45,9.86a10.3,10.3,0,0,0,.24,5.39,13.49,13.49,0,0,0,3.47,5.95c12.72,9.94,25.57,20.1,35.52,32.93l-2.11-2.73a80.32,80.32,0,0,1,10.16,17l11.66-20.32a30,30,0,0,1-5.69-.21l3.59.48a42.17,42.17,0,0,1-10.07-2.89l3.22,1.36c-8-3.38-15.45-8.11-22.78-12.69s-14.69-9.38-21.58-14.65l2.73,2.11a31.82,31.82,0,0,1-5.68-5.44l2.11,2.73a16,16,0,0,1-2-3.43l1.36,3.22a13.07,13.07,0,0,1-.81-3.08l.48,3.59a13,13,0,0,1,0-2.86l-.48,3.59a12.9,12.9,0,0,1,.81-3l-1.36,3.22a16.26,16.26,0,0,1,1.95-3.31l-2.11,2.73a25.62,25.62,0,0,1,4.53-4.42L289.07,174a52.69,52.69,0,0,1,9.16-5.47c4.15-2,8.33-4,12.58-5.76l-3.23,1.37a89.49,89.49,0,0,1,22-6.54l-3.59.48a49.69,49.69,0,0,1,12.72-.12l-3.59-.49c.82.11,1.64.24,2.45.39,3.64.67,7.12.57,10.41-1.36a13.75,13.75,0,0,0,6.2-8.07c.79-3.45.62-7.33-1.36-10.4-1.81-2.81-4.66-5.58-8.07-6.2Z"/><g id="Km3J1l"><path class="cls-15" d="M498.27,298.05a5.74,5.74,0,0,1-.34-.9,6.18,6.18,0,0,1,0-3.25,6.48,6.48,0,0,1,.54-1.3,5,5,0,0,1,.23-.58c8.49-17.12,6.94-33-4.7-48.38a12.68,12.68,0,0,1-2-8.59c2-14.76-1.26-28.07-12.93-38.14-6.36-5.49-14.4-9.19-22.11-14,3.51-12.75,1.72-25.88-10.48-34.42a265.16,265.16,0,0,0-43.4-24.82c-16.08-7.19-33.15-9.61-47.25,5-11.8-10.22-19.78-12.13-35.22-8.85-22.11,4.69-39.84,17.27-57.08,30.18-4.7,3.51-7.45,10.55-9,16.47-1.5,5.71-.32,12.07-.32,18.09-28.61,11.6-35.3,22.13-34.14,52.83.09,2.38-1.5,5.12-3,7.21C206.14,259.42,204.71,275,213,291.17c1.77,3.48,1.79,5.95-.07,9.36a41.49,41.49,0,0,0,12.33,54.05c4.05,2.93,5.56,5.87,5.71,10.71.62,20.07,10.71,34.47,29.52,43.46a27.4,27.4,0,0,1,8.65,6.6c13.9,16.07,31.28,22.65,52.77,18.3,14.91-3,25.45-11.92,33.94-24.76,1,1.32,1.51,1.82,1.87,2.39,20.06,31.26,65.61,31.21,86.18,2.55,1.49-2.08,4.22-3.59,6.69-4.74,19.89-9.31,30.13-24.4,30.85-45.66a11.18,11.18,0,0,1,3.91-7.68c18.56-14,23.85-35.58,13.61-55.8A8.17,8.17,0,0,1,498.27,298.05ZM352,221.9a6.82,6.82,0,0,1-.31,2,10.13,10.13,0,0,0,.1,1.12,7.11,7.11,0,0,1-1.25,5.5q.06,76.35-.05,152.69c-.08,25.84-20.26,44-45.22,40.79a40.35,40.35,0,0,1-28.43-16.67,22.31,22.31,0,0,0-8.9-7.12c-18.23-7.51-28-22.47-25.89-41.44.55-4.91-1-7.35-5.38-9.76-16.58-9.12-22.36-26.93-15.13-40.83,0-.25,0-.51.05-.76a5.94,5.94,0,0,1,.26-1.32v0h0a6.56,6.56,0,0,1,.62-1.38c.25-5.72-1.46-11.42-2.41-17.09-.3-1.8-.5-3.59-.64-5.36-.23-1.09-.4-2.18-.56-3.29-.14-.61-.27-1.23-.37-1.85a5.35,5.35,0,0,1-.34-1.15,44.07,44.07,0,0,1-.55-6.78,6.14,6.14,0,0,1-.8-4.81,29.6,29.6,0,0,1,1.95-5.46,4.51,4.51,0,0,1,1.26-1.57,36.17,36.17,0,0,1,1.77-4.15,5.3,5.3,0,0,1,3.75-2.73.56.56,0,0,0,0-.12,9.55,9.55,0,0,1,.58-1.52l.06-.12a7.78,7.78,0,0,1,.61-1.32,12.46,12.46,0,0,1,1.61-2.12,4.67,4.67,0,0,1,.89-.74l.08-.05a6.64,6.64,0,0,1,2.12-.85,11,11,0,0,0,.29-5.71c-5.46-20.17,6-39,26.55-42.9a34.15,34.15,0,0,1,5.07-.55,5.41,5.41,0,0,1,2.8-.73,9.25,9.25,0,0,0,3-1.92c.17-.38.34-.76.49-1.15l0-.15a6.78,6.78,0,0,1-1.53-2.61l0,0v.06l-.11-.19a8.64,8.64,0,0,1-.94-1.69,18.25,18.25,0,0,1-1-3.19c0-.06,0-.12,0-.18-.2-.51-.37-1-.52-1.52-.07-.16-.16-.32-.22-.49a8.86,8.86,0,0,1-.46-1.77,6.29,6.29,0,0,1-.21-1.62v-.76a21.68,21.68,0,0,1,5.68-18.23,35.57,35.57,0,0,1,8.16-7.84,56.42,56.42,0,0,1,18.75-11.63v0l.91-.29c1.57-.57,3.16-1.07,4.75-1.5,8.65-2.78,17.25-5.76,26.11-7.65,10.69-2.28,20.54,4.5,21.07,14.52.75,14.55.21,29.17.2,43.59a7.14,7.14,0,0,1,.34,1.94c0,1.47,0,2.94,0,4.4A6.16,6.16,0,0,1,351,196c0,2-.17,4-.26,5.94a4.7,4.7,0,0,1,.28.74,5.91,5.91,0,0,1,1,3.41Zm141.38,55.23c0,.35-.09.7-.1,1.05a6,6,0,0,1-1.18,3.49,5.9,5.9,0,0,1-.38,1.69c-1.68,4.49-4.65,9.79-4.62,14.67,0,2.88,1.17,5.71,2.15,8.58,8.24,13.49,2.81,33-12.56,41.47-6,3.32-7.57,7-6.92,13.19,1.77,17.17-8.6,32.18-25.54,38.88a22,22,0,0,0-9.07,6.91c-10.49,14.13-27.67,20.42-44.54,15.75a39.53,39.53,0,0,1-23.91-18.1,4.64,4.64,0,0,1-.68-.58l0-.05c-.15-.17-.86-1.07-1-1.25a.17.17,0,0,1,0-.05c-.05-.08-.22-.48-.37-.84a5.15,5.15,0,0,1-1.78-1.9l-1.35-2.69a6.75,6.75,0,0,1-.73-3.25,5.13,5.13,0,0,1,.13-2.67,6.28,6.28,0,0,1,0-2.8,40.9,40.9,0,0,1-.54-5.2l-.13-1.21a5.16,5.16,0,0,1,.07-1.73c0-.29,0-.59,0-.88s-.05-.35-.07-.53a4.07,4.07,0,0,1,.08-1.05c-.23-1.35-.46-2.7-.68-4a5.9,5.9,0,0,1-.75-3v-3.59a5.55,5.55,0,0,1,1.76-4.27c-.06-4.46-.2-8.88-.06-13.32-.07-.73-.13-1.45-.17-2.18a5.16,5.16,0,0,1-.18-1.3v-.9c-1-9.93-2.22-19.84-1.75-29.83.46-9.68,2-19.37,1-29a6.36,6.36,0,0,1-.63-2.57,32.77,32.77,0,0,0-.39-3.76,6.14,6.14,0,0,1-.51-2.51V271a5.51,5.51,0,0,1,1.45-3.66c.66-3.55,1.12-7.13,1.44-10.72-.14-4.58-.25-9.15-.23-13.73l-.2-.8a5.76,5.76,0,0,1,.23-3.69,6.07,6.07,0,0,1-.23-.79,30.4,30.4,0,0,1-.66-8.76,6.67,6.67,0,0,1,.54-2c.11-.76.23-1.53.35-2.3v-4.65a5.72,5.72,0,0,1,.42-2.15q-.12-3.41-.14-6.83c0-.54-.07-1.08-.1-1.63a6.42,6.42,0,0,1-.18-1.5V207a6.33,6.33,0,0,1-.44-2.39V201.5a6.64,6.64,0,0,1,.49-2.61c0-1.9,0-3.79,0-5.69,0-.07,0-.15,0-.22s0,0,0-.06c0-1.33,0-2.65,0-4a5.52,5.52,0,0,1,.05-.71c0-.16,0-.32,0-.49a6,6,0,0,1-1.35-3.73v-4.48a5.76,5.76,0,0,1,2-4.41q0-13.05,0-26.11c.07-15.15,9.12-22.59,24.5-19.12,8,1.81,15.77,4.76,24.56,7.83,5.45.53,10.83,3.47,15.13,6.51.87.61,1.74,1.26,2.61,1.92l.5.32a6.31,6.31,0,0,1,1.52.54c8,4,15.7,8.91,18.45,17.92a5.6,5.6,0,0,1,0,3.32,18.54,18.54,0,0,1,.88,9.73,5.07,5.07,0,0,1-1.7,3.27c-.19,1.15-.38,2.3-.54,3.45a4.23,4.23,0,0,1-.66,1.72c0,.39.07.79.13,1.17a7.94,7.94,0,0,0,2.31,4.31l1.82.82c2.63,1.18,5.24,2.27,7.73,3.57a35.84,35.84,0,0,1,12,7.35c9.8,8.88,13.26,20.1,9.47,32.55-1.65,5.42-.62,8.73,3.43,12.65,5.8,5.62,8.86,12.1,9.41,19a14,14,0,0,1,.3,8A4.37,4.37,0,0,1,493.38,277.13Z"/><path class="cls-8" d="M264.69,175a5.82,5.82,0,0,1,.92-3.25,25.94,25.94,0,0,1,1.05-6,24.67,24.67,0,0,1,3.72-7.45,21.66,21.66,0,0,0-5.69,18.23Z"/></g><path d="M452,186.69c-2.21-2.07-1.09-5.38-.43-7.89a29.9,29.9,0,0,0,1-8.37,29.59,29.59,0,0,0-5.16-15.89c-1.09-1.58-3.7-.08-2.6,1.51a26.7,26.7,0,0,1,4.74,16.42c-.14,3.06-1.18,5.84-1.67,8.83-.43,2.69-.09,5.56,2,7.51,1.41,1.32,3.54-.79,2.12-2.12Z"/><path d="M400.52,132.22c8.81,4.45,17.67,8.84,26.44,13.37,7.69,4,15.28,8.36,21.15,14.83,1.3,1.43,3.42-.7,2.12-2.12-5.94-6.54-13.61-11.08-21.38-15.11-8.89-4.61-17.88-9-26.82-13.56-1.72-.87-3.24,1.72-1.51,2.59Z"/><path d="M396.19,130.88l27.32,14.45c4.38,2.31,8.85,4.52,13.12,7a29.06,29.06,0,0,1,9.68,8.66,26.55,26.55,0,0,1,4.51,13.15c.12,1.92,3.12,1.93,3,0A29.62,29.62,0,0,0,441.59,152c-4.12-3-8.81-5.15-13.29-7.52l-14.42-7.63-16.18-8.55c-1.7-.9-3.22,1.69-1.51,2.59Z"/><path d="M451.11,187.78c-1.68.91-1.29-3.8-1.25-4.32.16-2.17.42-4.34.63-6.5a38.45,38.45,0,0,0-.28-12.3c-1.77-7.8-8.14-12.71-14.31-17.12-1.57-1.13-3.07,1.48-1.51,2.59,3.33,2.38,6.72,4.84,9.34,8a18.86,18.86,0,0,1,4.1,11.66c.15,4.49-.61,9-1,13.42-.15,2-.36,4.17.83,5.87a3.8,3.8,0,0,0,4.93,1.26c1.7-.91.18-3.5-1.52-2.59Z"/><path d="M220.26,257.39c.3-1.36.67-2.71,1.1-4,.21-.65.44-1.3.69-1.94l.39-1c.19-.46-.11.25.09-.2.08-.19.16-.38.25-.56a1.53,1.53,0,0,0-.54-2,1.5,1.5,0,0,0-2.05.54,43.84,43.84,0,0,0-2.83,8.44,1.5,1.5,0,0,0,2.9.8Z"/><path d="M218.72,309.52c5.5-5,4.92-12.69,3.37-19.28-.44-1.88-3.34-1.08-2.89.8,1.3,5.55,2.06,12.14-2.6,16.36-1.43,1.3.69,3.42,2.12,2.12Z"/><path d="M222.09,292.06a94.21,94.21,0,0,1-2.85-14.2c-.54-4.56-1-9.35.13-13.86,1-4.35,3.55-8.26,6-11.92A74,74,0,0,1,234,241.72c2.72-2.75-1.52-7-4.24-4.24A75.69,75.69,0,0,0,216.07,256a30.06,30.06,0,0,0-3.27,11.84,60.91,60.91,0,0,0,.72,12.29,104.3,104.3,0,0,0,2.78,13.57c1,3.72,6.82,2.14,5.79-1.59Z"/><path d="M218.33,308.43l2.59-3.6-5.18-3-1.2,2.84a3,3,0,0,0,.77,3.87,3,3,0,0,0,3.94-.24l1.54-2-4.71-3.63-2.1,4c-1.53,2.93,2.27,6.19,4.71,3.64a20.64,20.64,0,0,0,5.23-9.47,22.12,22.12,0,0,0-.52-11.5c-1.15-3.88-2.6-7.6-3.37-11.58a50.64,50.64,0,0,1-.82-11.79,3,3,0,0,0-6,0,58.76,58.76,0,0,0,.74,11.77,69.77,69.77,0,0,0,3,11c1,3,1.93,6.21,1.46,9.35a14.65,14.65,0,0,1-3.92,8l4.71,3.63,2.1-4a3,3,0,0,0-.77-3.87c-1.08-.8-3-.95-3.94.24L215,304l4.72,3.64,1.2-2.84a3.1,3.1,0,0,0-1.08-4.1,3.06,3.06,0,0,0-4.1,1.07l-2.59,3.61a3,3,0,0,0,1.07,4.1,3.07,3.07,0,0,0,4.11-1.08Z"/><path d="M216.65,262.84a4.62,4.62,0,0,0,3.09-3L214,258.26l-.68,3a3,3,0,0,0,1.74,3.54,3,3,0,0,0,3.74-1.23l.66-1.51-5.59-1.51c0,.27-.05.53-.07.8.06-.68,0,.26-.07.4a16.87,16.87,0,0,1-.42,1.7l5.79,1.59a27.19,27.19,0,0,1,.72-3.57q.24-.88.54-1.74l.27-.74c0-.11.46-1.12.19-.48l-5.48-2.32a44,44,0,0,0-2.07,14.46h6a25.54,25.54,0,0,1,.05-3.5c0-.33.06-.66.1-1,.07-.72-.09.46,0-.19s.21-1.23.35-1.84a26.47,26.47,0,0,1,1-3.36c.1-.27.21-.54.32-.81-.27.65.09-.19.15-.32q.39-.86.84-1.68l-5.48-2.31c-.07.24-.14.48-.22.71-.18.53.14-.21,0,.08s-.43.8-.69,1.17l5.59,1.52c-.08.81,0,0,.09-.18s0-.14-.08.21a2.88,2.88,0,0,1,.22-.38,3,3,0,0,0-1.07-4.1,3.07,3.07,0,0,0-4.11,1.07,7.36,7.36,0,0,0-1,3.38,3,3,0,0,0,2.2,2.89,3.15,3.15,0,0,0,3.39-1.38,11.36,11.36,0,0,0,1.56-3.39,3,3,0,0,0-5.49-2.31,29.93,29.93,0,0,0-3.67,15.72,3,3,0,0,0,6,0c0-1.15,0-2.31.05-3.46,0-.54.07-1.07.13-1.6,0-.26.05-.53.08-.79s0-.36.07-.53c-.05.31-.05.35,0,.13a48.38,48.38,0,0,1,1.54-6.61,3,3,0,0,0-1.74-3.54,3,3,0,0,0-3.74,1.23,30.29,30.29,0,0,0-2.33,8,3.31,3.31,0,0,0,.3,2.31,3.13,3.13,0,0,0,1.79,1.38,3.08,3.08,0,0,0,3.7-2.1,20.69,20.69,0,0,0,.77-4.49,3,3,0,0,0-5.6-1.52l-.65,1.51,5.49,2.32.67-3a3,3,0,0,0-2.09-3.69,3.09,3.09,0,0,0-3.69,2.1,1.8,1.8,0,0,1,1.09-1.2,3,3,0,1,0,1.6,5.78Z"/><path d="M358.7,232.54l-.06-.49.1.79a41,41,0,0,1-.27-7.91,3,3,0,0,0-3-3,3.07,3.07,0,0,0-3,3,44.92,44.92,0,0,0,.45,9.2,3,3,0,0,0,1.38,1.8,3.1,3.1,0,0,0,2.31.3,3.06,3.06,0,0,0,1.79-1.38l.3-.72a2.87,2.87,0,0,0,0-1.59Z"/><path d="M351.1,189.84v6.95a3.09,3.09,0,0,0,.87,2.12,3,3,0,0,0,5.13-2.12v-6.95a3,3,0,0,0-3-3,3,3,0,0,0-3,3Z"/><path d="M351.32,200.6q.31,16.59-.39,33.18a3,3,0,1,0,6,0q.7-16.58.39-33.18c-.08-3.86-6.08-3.87-6,0Z"/><path d="M354.54,238.81c3.86,0,3.87-6,0-6s-3.86,6,0,6Z"/><path d="M351.1,234.91v1.79h6l-.08-1.41a3.16,3.16,0,0,0-.87-2.12,3.1,3.1,0,0,0-2.13-.88,3,3,0,0,0-2.12.88l-.47.61a3.05,3.05,0,0,0-.41,1.51,30.92,30.92,0,0,0-.13,5,3.22,3.22,0,0,0,.88,2.12,3,3,0,0,0,4.25,0,3,3,0,0,0,.87-2.12,30.92,30.92,0,0,1,.13-5h-6l.08,1.41a3.16,3.16,0,0,0,.87,2.12,3.08,3.08,0,0,0,2.13.88,3,3,0,0,0,2.12-.88,3.1,3.1,0,0,0,.88-2.12v-1.79a3,3,0,0,0-3-3,3,3,0,0,0-2.13.88,3.14,3.14,0,0,0-.87,2.12Z"/><path d="M351.32,197.24v.9a2.17,2.17,0,0,0,.26,1.15,2.22,2.22,0,0,0,.62,1,2.25,2.25,0,0,0,1,.62,2.32,2.32,0,0,0,1.16.26l.8-.11a2.94,2.94,0,0,0,1.32-.77l.47-.61a3,3,0,0,0,.41-1.51v-.9a2.22,2.22,0,0,0-.26-1.16,2.72,2.72,0,0,0-1.58-1.58,2.22,2.22,0,0,0-1.16-.26l-.8.11a2.94,2.94,0,0,0-1.32.77l-.47.61a3,3,0,0,0-.41,1.51Z"/><path d="M351.54,197.91v.9a2.32,2.32,0,0,0,.26,1.16,2.25,2.25,0,0,0,.62,1,2.28,2.28,0,0,0,1,.62,2.19,2.19,0,0,0,1.15.26l.8-.11a3,3,0,0,0,1.33-.77l.46-.61a2.86,2.86,0,0,0,.41-1.51v-.9a2.26,2.26,0,0,0-.25-1.15,2.38,2.38,0,0,0-.62-1,2.34,2.34,0,0,0-1-.62,2.3,2.3,0,0,0-1.16-.26l-.79.11a3,3,0,0,0-1.33.77l-.47.61a3.08,3.08,0,0,0-.41,1.51Z"/><path d="M354.54,202c3.86,0,3.87-6,0-6s-3.86,6,0,6Z"/><path d="M351.54,198.36l0,.75,5.89-.8a4.57,4.57,0,0,1-.2-.83l.11.8a4.93,4.93,0,0,1,0-.94,2.2,2.2,0,0,0-.26-1.16,2.16,2.16,0,0,0-.62-1l-.6-.47a2.28,2.28,0,0,0-1.12-.36,1.55,1.55,0,0,0-.8,0,2.21,2.21,0,0,0-1.11.36l-.61.47a2.94,2.94,0,0,0-.77,1.32l-.24,1a2.33,2.33,0,0,0-.05,1.2,2.28,2.28,0,0,0,.36,1.12,2.15,2.15,0,0,0,.77.84,2.27,2.27,0,0,0,1,.53l.8.11a3,3,0,0,0,1.51-.41l.61-.47a2.94,2.94,0,0,0,.77-1.32l.24-1-5.9-.79a5.53,5.53,0,0,0,0,.91,8.29,8.29,0,0,0,.31,1.65,2.29,2.29,0,0,0,.54,1,2.25,2.25,0,0,0,.84.78l.72.3a2.3,2.3,0,0,0,1.19.05,1.51,1.51,0,0,0,.76-.2,2.28,2.28,0,0,0,1-.62l.47-.61a3.08,3.08,0,0,0,.41-1.51l0-.75a2.26,2.26,0,0,0-.25-1.15,2.31,2.31,0,0,0-.62-1,2.34,2.34,0,0,0-1-.62,2.3,2.3,0,0,0-1.16-.26l-.79.11a3,3,0,0,0-1.33.77l-.47.61a3.08,3.08,0,0,0-.41,1.51Z"/><path d="M354.45,320.88l-.39,19.18a3,3,0,0,0,6,0l.39-19.18a3,3,0,0,0-6,0Z"/><path d="M354.86,286.41c.07-.61-.2,1.4-.18,1.24a5.84,5.84,0,0,0,0,1,3.92,3.92,0,0,0,1.85,3.22l-1.38-3.39c-1.36,7.94-.36,16-.5,24-.06,3.86,5.94,3.86,6,0,.13-7.39-.93-15.33.29-22.44a3.19,3.19,0,0,0-1.38-3.39l-.17-.12,1.08,1.08c.15,1,.21,1.18.19.6,0-.35,0-.4,0-.14.05-.58.17-1.15.24-1.72.2-1.61-1.52-3-3-3a3.07,3.07,0,0,0-3,3Z"/><path d="M355.4,166.54l-.5,94.71c-.16,31.31-.54,62.63-.17,93.94q.31,26.58,1.32,53.14a3,3,0,0,0,6,0c-1.19-31.42-1.57-62.85-1.42-94.29s.33-62.77.49-94.16l.28-53.34c0-3.86-6-3.86-6,0Z"/><path d="M358.58,164.14c3.86,0,3.87-6,0-6s-3.87,6,0,6Z"/><path d="M358.58,171.32c3.86,0,3.87-6,0-6s-3.87,6,0,6Z"/><path d="M361.58,162.93v-6.27a3.06,3.06,0,0,0-.88-2.12,3,3,0,0,0-2.12-.88,3,3,0,0,0-3,3v6.27a3.15,3.15,0,0,0,.88,2.13,3,3,0,0,0,2.12.87,3,3,0,0,0,3-3Z"/><path d="M360.24,155.76v-.45a2.37,2.37,0,0,0-.26-1.15,2.22,2.22,0,0,0-.62-1,2.34,2.34,0,0,0-1-.62,2.29,2.29,0,0,0-1.15-.26l-.8.11a3,3,0,0,0-1.33.77l-.47.61a3,3,0,0,0-.4,1.51v.45a2.32,2.32,0,0,0,.25,1.16,2.25,2.25,0,0,0,.62,1,2.34,2.34,0,0,0,1,.62,2.2,2.2,0,0,0,1.16.26l.79-.11a3,3,0,0,0,1.33-.77l.47-.61a3.05,3.05,0,0,0,.41-1.51Z"/><path d="M361.58,153.52v-.45a2.22,2.22,0,0,0-.26-1.16,2.72,2.72,0,0,0-1.58-1.58,2.22,2.22,0,0,0-1.16-.26l-.8.11a2.94,2.94,0,0,0-1.32.77l-.47.61a3,3,0,0,0-.41,1.51v.45a2.26,2.26,0,0,0,.26,1.15,2.22,2.22,0,0,0,.62,1,2.25,2.25,0,0,0,1,.62,2.32,2.32,0,0,0,1.16.26l.8-.11a2.94,2.94,0,0,0,1.32-.77l.47-.61a3,3,0,0,0,.41-1.51Z"/><path d="M355.58,151.72V154a3.38,3.38,0,0,0,.88,2.12,2.25,2.25,0,0,0,1,.62,2.32,2.32,0,0,0,1.16.26l.8-.11a2.94,2.94,0,0,0,1.32-.77l.47-.61a3,3,0,0,0,.41-1.51v-2.25a2.19,2.19,0,0,0-.26-1.15,2.28,2.28,0,0,0-.62-1,2.25,2.25,0,0,0-1-.62,2.32,2.32,0,0,0-1.16-.26l-.8.11a2.94,2.94,0,0,0-1.32.77l-.47.61a3,3,0,0,0-.41,1.51Z"/><path d="M361.59,152.17A48.52,48.52,0,0,1,362,144l-.1.8c.1-.73.21-1.45.35-2.17a3.25,3.25,0,0,0-.31-2.31,3,3,0,0,0-1.79-1.38c-1.47-.34-3.39.44-3.69,2.09a51.43,51.43,0,0,0-.85,11.14,3,3,0,1,0,6,0Z"/><path d="M362.31,139.5l.43-1.35a3.28,3.28,0,0,0-.3-2.31,2.42,2.42,0,0,0-.77-.85,2.27,2.27,0,0,0-1-.53l-.8-.11a3,3,0,0,0-1.51.41l-.61.47a2.94,2.94,0,0,0-.77,1.32l-.44,1.35a2.33,2.33,0,0,0,0,1.2,2.11,2.11,0,0,0,.35,1.11,2.25,2.25,0,0,0,.78.84,2.2,2.2,0,0,0,1,.54l.79.11a3,3,0,0,0,1.52-.41l.6-.47a3,3,0,0,0,.78-1.32Z"/><path d="M362.94,138.27a8.51,8.51,0,0,0-.14-1.13,1.61,1.61,0,0,0-.1-.36,8.7,8.7,0,0,0-.43-1,6,6,0,0,0-.43-.6,4.7,4.7,0,0,0-.45-.55,8.18,8.18,0,0,0-.88-.7,5.75,5.75,0,0,0-1.32-.64,5.37,5.37,0,0,0-1.48-.27h-.35a7,7,0,0,0-1.12.16,6.85,6.85,0,0,0-1,.4,2.27,2.27,0,0,0-.34.19,7.31,7.31,0,0,0-.82.65,6,6,0,0,0-.68.83,5.44,5.44,0,0,0-.63,1.28,4.59,4.59,0,0,0-.22,1,4.27,4.27,0,0,0-.05,1.07,5.32,5.32,0,0,0,.27,1.43,7,7,0,0,0,.44,1,6.16,6.16,0,0,0,.65.87,4.06,4.06,0,0,0,1.1.88,4.3,4.3,0,0,0,1.32.53,6.89,6.89,0,0,0,1.11.15,2.17,2.17,0,0,0,.36,0,5.65,5.65,0,0,0,1.52-.27,5.55,5.55,0,0,0,1.36-.67,8.29,8.29,0,0,0,.88-.71,7.54,7.54,0,0,0,.69-.89,3.9,3.9,0,0,0,.19-.35,5.64,5.64,0,0,0,.4-1.06,3.28,3.28,0,0,0-.3-2.31,2.31,2.31,0,0,0-.77-.84,2.2,2.2,0,0,0-1-.54,3,3,0,0,0-3.69,2.09,2,2,0,0,1-.11.35l.3-.72a1.89,1.89,0,0,1-.26.46l.47-.6a2.59,2.59,0,0,1-.41.4l.6-.46a3,3,0,0,1-.58.34l.72-.31a2.94,2.94,0,0,1-.66.19l.8-.11a2.51,2.51,0,0,1-.67,0l.8.11a2.13,2.13,0,0,1-.51-.14l.71.3a1.79,1.79,0,0,1-.42-.25l.6.47a2.19,2.19,0,0,1-.34-.34l.47.61a2,2,0,0,1-.26-.45l.3.71a2.66,2.66,0,0,1-.17-.63l.11.8a2.51,2.51,0,0,1,0-.67l-.11.8a2.62,2.62,0,0,1,.18-.68l-.3.71a2.47,2.47,0,0,1,.31-.52l-.47.6a2.73,2.73,0,0,1,.34-.34l-.61.47a2,2,0,0,1,.43-.25l-.72.31a1.78,1.78,0,0,1,.5-.14l-.8.11a2.1,2.1,0,0,1,.56,0l-.8-.11a2.88,2.88,0,0,1,.64.17l-.72-.3a2.59,2.59,0,0,1,.58.34l-.61-.47a2.28,2.28,0,0,1,.47.46l-.46-.6a2.08,2.08,0,0,1,.28.48l-.3-.72a2.39,2.39,0,0,1,.15.54l-.11-.8c0,.08,0,.16,0,.24a3.11,3.11,0,0,0,.87,2.12,2.34,2.34,0,0,0,1,.62,2.2,2.2,0,0,0,1.16.26,3,3,0,0,0,2.12-.88,3.15,3.15,0,0,0,.88-2.12Z"/><path d="M362.93,137.82a4,4,0,0,1,0-.69l-.11.79a3.92,3.92,0,0,1,.28-1l-.31.72a3.94,3.94,0,0,1,.53-.91l-.47.61a3.26,3.26,0,0,1,.51-.54,2.28,2.28,0,0,0,.62-1,2.7,2.7,0,0,0,0-2.31,2.34,2.34,0,0,0-.62-1,3,3,0,0,0-2.12-.87l-.8.1a3.13,3.13,0,0,0-1.33.77,8.92,8.92,0,0,0-1.05,1.25,4,4,0,0,0-.45.81,7.65,7.65,0,0,0-.54,1.52,8,8,0,0,0-.17,1.69,2.3,2.3,0,0,0,.26,1.16,2.25,2.25,0,0,0,.62,1,2.19,2.19,0,0,0,1,.62,2.17,2.17,0,0,0,1.15.26l.8-.11a2.85,2.85,0,0,0,1.32-.77,3,3,0,0,0,.88-2.12Z"/><path d="M265.07,406.21a19,19,0,0,0,11,2.33,3.29,3.29,0,0,0,2.12-.88,3.08,3.08,0,0,0,.88-2.12,3,3,0,0,0-.88-2.12,2.91,2.91,0,0,0-2.12-.88,16.82,16.82,0,0,1-3.82-.05l.79.11a16.79,16.79,0,0,1-4.16-1.14l.72.3a15.81,15.81,0,0,1-1.49-.73,3,3,0,1,0-3,5.18Z"/><path d="M443.43,401.89c-1,.23-2,.41-3,.55l.8-.11a32.7,32.7,0,0,1-7.06.18,3,3,0,0,0-3,3,3.06,3.06,0,0,0,3,3,35.43,35.43,0,0,0,10.86-.84,3,3,0,0,0,2.1-3.69,3.06,3.06,0,0,0-3.69-2.09Z"/><path d="M481.78,235.89,476.46,242a3.19,3.19,0,0,0-.88,2.12,3,3,0,0,0,3,3,3,3,0,0,0,2.12-.88l5.32-6.11a3.15,3.15,0,0,0,.88-2.12,3,3,0,0,0-3-3,3,3,0,0,0-2.12.88Z"/><path d="M362.73,221.81c.06-.37.14-.74.23-1.1s.15-.47.22-.71c0-.07.22-.67,0-.15s.23-.48.32-.64a12.62,12.62,0,0,1,.77-1.27l.33-.46c-.05.06-.47.53-.12.18s.49-.56.76-.83a11.84,11.84,0,0,1,1-.91l.43-.36c.49-.43-.56.35,0,0s1.36-.89,2.09-1.27q.57-.3,1.17-.57c-.66.29,0,0,.13,0l.82-.29a31.43,31.43,0,0,1,5.51-1.26c-.8.12.54-.05.76-.07l1.31-.11c1.07-.09,2.14-.15,3.21-.19,2.13-.08,4.26-.09,6.4-.08,4.19,0,8.38.2,12.58.22,8.11,0,16.46-.51,24.14-3.31a52.85,52.85,0,0,0,18-11.06,51.89,51.89,0,0,0,13-19.54c.84-2.21-.92-5-3.14-5.54a4.62,4.62,0,0,0-5.53,3.14c-.14.35-.27.69-.41,1-.31.79,0,.1,0,0-.08.17-.15.34-.23.5-.35.79-.72,1.56-1.12,2.32a46.06,46.06,0,0,1-2.43,4.13c-.44.66-.9,1.32-1.37,2-.2.27-.68.87-.19.26-.31.39-.61.77-.93,1.15a46.89,46.89,0,0,1-3.25,3.51c-1.19,1.17-2.46,2.23-3.73,3.29-.4.33.13-.1.18-.13l-.59.44-.9.65c-.7.49-1.42,1-2.15,1.43a44.78,44.78,0,0,1-4.17,2.33l-1.17.56-.64.29-.14.06-.69.27-1.21.45a44.53,44.53,0,0,1-5.07,1.47c-.92.21-1.84.39-2.76.55-.54.09-1.08.18-1.63.25s-.06,0,0,0l-.93.11a105.94,105.94,0,0,1-12.47.47c-8.56-.1-17.17-.67-25.66.63s-17.83,6.61-19.52,15.87c-.42,2.31.63,5,3.14,5.54,2.2.5,5.08-.67,5.54-3.14Z"/><path d="M358.54,233.75c7.62,6.21,16.58,10,25.32,14.3a77.65,77.65,0,0,1,12.07,7.16c-.85-.63.26.22.53.44s.77.65,1.14,1a35.57,35.57,0,0,1,2.61,2.6c.38.41.75.84,1.1,1.28.15.17.29.35.43.53-.63-.81-.14-.17,0,0a31.14,31.14,0,0,1,2.13,3.39c.68,1.23,1.27,2.51,1.83,3.8.36.82.12.27.05.1l.48,1.18.78,2c1.14,2.92,2.28,5.86,3.7,8.66a37.13,37.13,0,0,0,11.7,13.23,63.46,63.46,0,0,0,15.46,7.81,82.89,82.89,0,0,0,57-.51c2.19-.85,3.95-3.06,3.15-5.54-.69-2.13-3.19-4.05-5.54-3.14a78.6,78.6,0,0,1-16.65,4.39c-.9.13-.28,0-.08,0l-1.29.16-1.93.19c-1.5.13-3,.22-4.52.26a79.78,79.78,0,0,1-8.61-.22c-1.29-.1-2.58-.24-3.86-.41.85.11-.09,0-.3-.05l-1.06-.16-2.34-.42a79,79,0,0,1-8.15-2.06c-1.37-.43-2.73-.9-4.08-1.4l-1.81-.71c-.17-.07-1-.44-.32-.13l-1.18-.52a58.23,58.23,0,0,1-7.07-3.75c-.56-.36-1.12-.73-1.66-1.11l-.66-.46s-1-.75-.5-.36-.51-.42-.48-.39l-.61-.51c-.6-.52-1.19-1.06-1.76-1.61a33.23,33.23,0,0,1-2.39-2.65c.61.76-.2-.27-.26-.36l-.46-.66q-.71-1-1.32-2.16c-.61-1.1-1.17-2.24-1.69-3.39l-.42-1c-.32-.75.39,1-.12-.3-.29-.72-.58-1.44-.86-2.17-1.1-2.79-2.18-5.61-3.48-8.32-4.38-9.13-12.33-15.3-21.11-19.94-4.55-2.41-9.27-4.49-13.88-6.78-2.3-1.15-4.58-2.35-6.79-3.66-1.1-.65-2.18-1.33-3.23-2-.57-.39-1.14-.79-1.7-1.2l-.55-.42c.93.7-.28-.23-.44-.37-1.83-1.48-4.61-1.91-6.37,0-1.51,1.65-2,4.78,0,6.37Z"/><text class="cls-16" transform="translate(310.01 179.28)">1</text><text class="cls-16" transform="translate(318.59 300.72)">2</text><text class="cls-16" transform="translate(425.49 339.52)">3</text><text class="cls-16" transform="translate(265.48 348.41)">7</text><text class="cls-16" transform="translate(382.86 182.28)">4</text><text class="cls-16" transform="translate(263.43 260.13)">6</text><text class="cls-16" transform="translate(373.26 300.04)">8</text><text class="cls-16" transform="translate(398.96 406.35)">9</text><text class="cls-17" transform="translate(422.42 260.13)">1<tspan class="cls-18" x="14.16" y="0">0</tspan></text><text class="cls-16" transform="translate(287.66 406.65)">5</text><path d="M476,350.88c-15.25-5.45-32-3.37-47.2,1s-29.43,11.31-44.57,15.75a108.86,108.86,0,0,1-12.85,3l-1.56.25s-.76.11-.3.05-.65.08-.75.09c-1,.13-2.1.23-3.16.31q-3.4.27-6.82.21a4.54,4.54,0,0,0-4.5,4.5,4.59,4.59,0,0,0,4.5,4.5c16,.26,31.33-4.93,46.1-10.57,7.34-2.81,14.64-5.75,22.14-8.15,3.71-1.18,7.45-2.24,11.25-3.11,1.92-.44,3.86-.83,5.8-1.15l1.34-.22.67-.1s.76-.11.3,0l.3,0,.67-.08,1.56-.17a67,67,0,0,1,12.9-.08c.51,0,1,.11,1.54.16s0,0-.1,0l.87.14c1,.16,2,.35,3.05.57a51.3,51.3,0,0,1,6.43,1.85,4.53,4.53,0,0,0,5.54-3.14,4.62,4.62,0,0,0-3.15-5.54Z"/><path d="M420.61,293.37q-.84,2.33-1.74,4.63c-.5,1.26.37-.79-.19.44-.17.37-.33.75-.51,1.12-.41.86-.84,1.71-1.32,2.54-.34.58-.7,1.16-1.08,1.71,0,.08-.85,1.15-.26.4-.25.32-.52.63-.79.93a20.64,20.64,0,0,1-1.62,1.62c-.27.24-.55.47-.83.7.86-.7-.37.25-.54.36a24.7,24.7,0,0,1-3.44,1.94c-.32.16-.65.3-1,.45,1-.44-.11,0-.27.09q-1.2.45-2.43.84c-2.87.9-5.81,1.55-8.75,2.2-6.1,1.36-12.06,3-17.6,6a49.87,49.87,0,0,0-14.19,11.53,50.58,50.58,0,0,0-10.22,19,4.5,4.5,0,0,0,8.68,2.39c.4-1.41.85-2.8,1.39-4.17.06-.16.53-1.29.1-.28.14-.34.29-.67.44-1,.36-.78.74-1.55,1.14-2.3.63-1.19,1.31-2.35,2-3.47.4-.62.82-1.22,1.25-1.82l.65-.88c-.65.87.31-.38.43-.53a46.79,46.79,0,0,1,6.18-6.25l.85-.69c.95-.78-.74.52.25-.2.5-.35,1-.72,1.49-1.06a45.47,45.47,0,0,1,4.06-2.49c.64-.35,1.3-.68,2-1l1-.46c.16-.07,1.29-.53.27-.12,1.38-.55,2.76-1,4.17-1.46,2.9-.87,5.86-1.51,8.81-2.16,5.94-1.33,12.16-2.81,17.29-6.27a26.94,26.94,0,0,0,8.13-8.6,63.26,63.26,0,0,0,4.88-11.23,4.52,4.52,0,0,0-3.15-5.53,4.61,4.61,0,0,0-5.53,3.14Z"/><path d="M267.82,301c3.3,6.15,9.68,9.9,16.24,11.72a59.67,59.67,0,0,0,11,1.71c1.9.16,3.8.28,5.7.44.95.07,1.9.16,2.85.26l1.41.17c-.7-.1,1,.17,1.15.2a40.53,40.53,0,0,1,4.73,1.1c.72.21,1.44.44,2.15.69l1.05.38c.18.07,1.68.68.66.25a50,50,0,0,1,7.89,4.26q1.9,1.25,3.69,2.62c-.82-.63.18.15.28.23.3.24.6.48.89.73.69.57,1.36,1.15,2,1.74,2.31,2.06,4.49,4.26,6.59,6.53,2.47,2.69,4.81,5.5,7.06,8.38l.73.92c-.62-.79.38.51.48.64.55.72,1.1,1.45,1.64,2.18,1.08,1.45,2.14,2.9,3.2,4.36,1.38,1.91,4,3,6.16,1.62,1.88-1.22,3.09-4.12,1.61-6.16-7.78-10.77-16-21.37-26.73-29.4a54,54,0,0,0-17-8.65,59.79,59.79,0,0,0-11.58-2c-1.9-.17-3.8-.29-5.7-.44-.79-.07-1.58-.13-2.37-.21l-1.42-.14-.95-.12-.21,0a39.41,39.41,0,0,1-5.36-1.17c-.83-.25-1.64-.55-2.46-.85-1.15-.43.81.41-.28-.13-.44-.22-.89-.42-1.32-.65a23.12,23.12,0,0,1-2.19-1.32c-.14-.1-1.09-.83-.25-.15-.37-.31-.74-.62-1.09-.94a16.39,16.39,0,0,1-1.69-1.84c.67.86,0-.11-.14-.25-.26-.41-.5-.83-.73-1.25a4.55,4.55,0,0,0-6.16-1.62,4.6,4.6,0,0,0-1.61,6.16Z"/><path d="M226,302.45l.1-.3q.25-.7-.12.21a2.9,2.9,0,0,1,.33-.69c.26-.49.56-.94.86-1.4s-.17.2-.17.21.53-.6.59-.66c.21-.23,1-1.21,1.31-1.2-.36,0-.72.48-.08.08l.63-.42c.43-.27.87-.51,1.32-.74a3.23,3.23,0,0,1,.84-.4c-.59,0-.65.26-.21.1.65-.23,1.29-.46,2-.65a13.63,13.63,0,0,1,3.33-.7c-1.3,0,.43,0,.76-.05.66,0,1.32-.07,2-.08a32.5,32.5,0,0,1,3.27.13,5.13,5.13,0,0,1,1,.11c-1-.34-.44-.07-.09,0,.85.15,1.69.3,2.53.48,6.82,1.44,13.52,3.76,20.56,3.93a28.23,28.23,0,0,0,16.08-4.51c8.29-5.41,13.57-14,19.38-21.83l1-1.34c.69-.91-.59.75.11-.14l.42-.52c.75-.95,1.52-1.89,2.32-2.8a48.25,48.25,0,0,1,5.07-5c.21-.18.44-.34.64-.52.51-.48-.86.6.06,0,.47-.34.94-.68,1.43-1a33.11,33.11,0,0,1,3.47-2c.28-.13,2.06-.91,1-.47.54-.22,1.08-.43,1.63-.63,1.2-.42,2.43-.78,3.67-1.08.68-.16,1.37-.3,2.06-.42a6,6,0,0,1,1-.17c-.76,0-.33,0,.19,0a39.12,39.12,0,0,1,4.2-.22c1.4,0,2.79.1,4.19.24,1.19.12-1-.17.19,0l1,.17c.69.12,1.37.27,2.05.43a34.87,34.87,0,0,1,4,1.2l1,.37c1,.36-.65-.31.21.09.63.29,1.27.58,1.88.9a33.56,33.56,0,0,1,3.73,2.25l.7.51c.73.52-.57-.48.33.26.59.48,1.16,1,1.71,1.51a4.5,4.5,0,1,0,6.36-6.37,40.21,40.21,0,0,0-31.23-10.39,40.64,40.64,0,0,0-16.15,5,44.07,44.07,0,0,0-11.87,10.36c-3.38,4-6.37,8.4-9.51,12.64l-1,1.33-.6.78c.08-.11.6-.77.1-.14-.8,1-1.61,2-2.46,3a43.91,43.91,0,0,1-4.87,4.87,3.28,3.28,0,0,1-.71.59c.9-.35.29-.22-.06,0s-.83.58-1.25.86a26.1,26.1,0,0,1-3.05,1.71,3.93,3.93,0,0,1-.7.31c1.14-.27.21-.1-.07,0-.49.18-1,.34-1.48.49-.66.19-1.32.35-2,.48-.3.06-.6.12-.9.16.8-.12-.91.07-1.07.08a34.77,34.77,0,0,1-5-.14c-.11,0-.88-.1-.17,0l-1.36-.21c-.92-.16-1.83-.34-2.74-.54-3.44-.74-6.82-1.71-10.26-2.47-6.18-1.38-12.59-1.83-18.74,0s-11.24,5.86-13.33,12.05a4.53,4.53,0,0,0,3.14,5.54,4.61,4.61,0,0,0,5.54-3.14Z"/><path d="M349.75,346.74c-.51.69.32-.35-.23.3-.24.29-.49.59-.74.87-.54.62-1.11,1.22-1.7,1.79s-1.19,1.12-1.82,1.65c-.29.25-.58.48-.88.72.67-.53-.22.15-.45.32a38.91,38.91,0,0,1-4,2.51c-.67.36-1.36.71-2.05,1l-1,.48-.17.07c.48-.2-.27.11-.36.14a52.7,52.7,0,0,1-9.47,2.76c-.75.14-1.52.28-2.28.39-.35.06-1.14.16-.33.06l-1.39.16q-3.17.33-6.34.4c-8.26.22-16.49-.67-24.71-1.34a239.67,239.67,0,0,0-53.81,1.51c-2.34.32-3.83,3.44-3.15,5.54.84,2.57,3,3.48,5.54,3.14l.76-.1,1.47-.18c1.14-.14,2.28-.28,3.42-.4q3.2-.35,6.39-.6,6.39-.51,12.8-.68a240.89,240.89,0,0,1,25.35.67c15.77,1.23,32.25,3.41,47.43-2.37a42.7,42.7,0,0,0,19.57-14.3c1.41-1.9.38-5.11-1.61-6.16-2.36-1.25-4.65-.41-6.16,1.61Z"/><path d="M356.4,238.44c-.76-7.87-5.27-14.15-11.55-18.71s-14.19-6.45-21.75-7.86a202.46,202.46,0,0,1-23.94-5.64c-4-1.26-7.89-2.69-11.74-4.26l-.66-.27-.19-.08-1.19-.51c-.93-.41-1.85-.83-2.77-1.27-1.69-.8-3.35-1.68-5-2.64-.93-.56-1.83-1.14-2.72-1.76-.17-.13-1.19-.88-.64-.46-.45-.35-.9-.72-1.33-1.09-.76-.67-1.5-1.37-2.19-2.11-.32-.34-.63-.69-.93-1-.12-.15-.24-.31-.38-.46-.33-.38.34.48-.14-.19s-1.05-1.53-1.51-2.33c-.26-.46-.51-.93-.73-1.4-.09-.18-.17-.36-.25-.53-.31-.61.21.62,0,0-.31-.93-.65-1.84-.87-2.8-.06-.27-.3-1.73-.17-.73-.07-.52-.1-1-.13-1.57a4.5,4.5,0,0,0-9,0c.35,7.9,4.58,15.12,10.61,20.1,6.43,5.31,14.19,8.56,21.93,11.47a153.91,153.91,0,0,0,24,6.86c3.89.78,7.82,1.4,11.7,2.24,2,.42,3.92.91,5.84,1.5.85.26,1.7.54,2.53.85l.84.31.28.11.29.12.81.38a32.57,32.57,0,0,1,4.83,2.85c.06,0,.57.41.15.1s.21.17.28.23c.39.32.76.65,1.13,1a24.65,24.65,0,0,1,2,2l.36.42c.06.08.56.7.23.27s.05.07.09.13l.42.61a19,19,0,0,1,1.36,2.36c.08.17.15.34.24.5-.44-.86-.06-.12,0,.1.14.39.28.79.4,1.2s.25.94.34,1.41c0,.18.06.37.1.54.14.67-.11-1.09,0,.09.22,2.33,1.91,4.61,4.5,4.5,2.24-.1,4.74-2,4.5-4.5Z"/><g class="cls-19"><path class="cls-5" d="M477.88,279.14l-1.47-.1,1.06,2.56,1.47-1.56a1.58,1.58,0,0,0,.44-1.06,1.27,1.27,0,0,0-.13-.58,1.21,1.21,0,0,0-.31-.49,1.51,1.51,0,0,0-1.06-.43,1.49,1.49,0,0,0-1.06.43l-1.47,1.57-.24.31-.15.36,0,.39a1.06,1.06,0,0,0,.13.58.69.69,0,0,0,.19.33.59.59,0,0,0,.27.27.69.69,0,0,0,.33.19,1.06,1.06,0,0,0,.58.13l1.47.1a1,1,0,0,0,.57-.13,1.34,1.34,0,0,0,.8-.79,1.27,1.27,0,0,0,.13-.58,1.56,1.56,0,0,0-.44-1.06l-.31-.23a1.42,1.42,0,0,0-.75-.21Z"/></g><g class="cls-19"><path class="cls-5" d="M418,273.76c.68,4.5,4.44,8.13,7.83,10.85a35.77,35.77,0,0,0,12.1,6.44c1.85.57,2.64-2.33.79-2.89A32.29,32.29,0,0,1,428,282.49c-3-2.41-6.45-5.52-7.06-9.53a1.51,1.51,0,0,0-1.85-1,1.55,1.55,0,0,0-1,1.85Z"/></g><g class="cls-19"><path class="cls-5" d="M364.31,225.12c.14-.46.34-.9.49-1.36-.14.44,0,.05,0,0l.15-.33c.1-.2.2-.41.31-.6a13.21,13.21,0,0,1,.71-1.21l.4-.6.21-.29a.76.76,0,0,0,.11-.14l-.07.09a1.61,1.61,0,0,0,.44-1.06,1.5,1.5,0,0,0-1.5-1.5,1.44,1.44,0,0,0-1.06.44,18.13,18.13,0,0,0-3.11,5.81,1.5,1.5,0,0,0,1,1.84,1.53,1.53,0,0,0,1.85-1Z"/></g><g class="cls-19"><path class="cls-5" d="M363,226.84a8.76,8.76,0,0,1,2.2.61l-.36-.15a9,9,0,0,1,1.23.64,1.51,1.51,0,0,0,2.05-.53,1.54,1.54,0,0,0-.53-2.06,9.61,9.61,0,0,0-3.79-1.4,1.22,1.22,0,0,0-.6,0,1.12,1.12,0,0,0-.56.18,1.52,1.52,0,0,0-.69.9,1.49,1.49,0,0,0,.15,1.15,1.42,1.42,0,0,0,.9.69Z"/></g><path class="cls-9" d="M499,552.27a168.86,168.86,0,0,0,49.08,11.05q7.35.54,14.71.47a.75.75,0,0,0,0-1.5,171.84,171.84,0,0,1-50.14-6.91q-6.72-2-13.25-4.56c-.9-.35-1.29,1.1-.4,1.45Z"/><path class="cls-9" d="M498.31,547.62q33.45,1.93,67,2.17,9.44.06,18.88,0a.75.75,0,0,0,0-1.5q-33.52.26-67-1.2-9.42-.42-18.83-1c-1-.06-1,1.44,0,1.5Z"/><path class="cls-9" d="M500.16,538.62A241.45,241.45,0,0,1,555,530.37q7.92-.29,15.86,0a.75.75,0,0,0,0-1.5,247.12,247.12,0,0,0-55.68,4.71q-7.77,1.56-15.4,3.65a.75.75,0,0,0,.39,1.44Z"/><path class="cls-9" d="M494.13,548.28q29.37,6.51,59.12,11,8.36,1.28,16.73,2.37c1,.13.95-1.37,0-1.5q-29.65-3.93-59-9.84-8.25-1.67-16.46-3.48c-.94-.21-1.34,1.24-.4,1.44Z"/><path class="cls-9" d="M513.14,533.7a328.26,328.26,0,0,1,38.45-9.58c.95-.18.55-1.63-.4-1.45a328.26,328.26,0,0,0-38.45,9.58c-.91.29-.52,1.74.4,1.45Z"/><path class="cls-9" d="M517.39,537.83,567,537c1.92,0,1.93-3,0-3l-49.56.81c-1.93,0-1.94,3,0,3Z"/><path class="cls-9" d="M524.36,539.69H546a1.5,1.5,0,0,0,0-3H524.36a1.5,1.5,0,0,0,0,3Z"/><path class="cls-9" d="M506.49,533.05a167,167,0,0,1,28.12-7.88c1.42-.27.82-2.44-.6-2.17a167.22,167.22,0,0,0-28.12,7.88c-1.34.51-.76,2.69.6,2.17Z"/><path class="cls-9" d="M510.89,560.05A85.57,85.57,0,0,0,539.72,565a1.5,1.5,0,0,0,0-3,83.16,83.16,0,0,1-28-4.82c-1.82-.65-2.61,2.25-.8,2.89Z"/><path d="M508,536.9h56.07a.38.38,0,0,0,0-.75H508a.38.38,0,0,0,0,.75Z"/><path d="M505.08,542.67q23.12,1.59,46.31,1.59a.38.38,0,0,0,0-.75q-23.17,0-46.31-1.59c-.48,0-.48.71,0,.75Z"/><path d="M510,531.92q30.48.62,61-.31c.48,0,.49-.77,0-.75q-30.46.93-61,.31a.38.38,0,0,0,0,.75Z"/><path class="cls-9" d="M498.34,542.75c21.83,2.77,43.89,5.57,65.94,4a149.84,149.84,0,0,0,18.39-2.46c1.42-.29.82-2.45-.6-2.17-21.5,4.28-43.58,3-65.23.66-6.18-.68-12.34-1.46-18.5-2.24-1.43-.19-1.42,2.07,0,2.25Z"/><path d="M355.09,223.51v-3.63a1.56,1.56,0,0,0-.44-1.06,1.5,1.5,0,0,0-2.56,1.06v3.63a1.56,1.56,0,0,0,.44,1.06,1.5,1.5,0,0,0,2.56-1.06Z"/><path d="M354.64,224.54q-.42-12.57.29-25.13c.11-1.93-2.89-1.93-3,0q-.72,12.56-.29,25.13c.07,1.93,3.07,1.94,3,0Z"/><path d="M354.7,226.36l-1.28-40.15c-.06-1.93-3.06-1.94-3,0l1.28,40.15c.06,1.93,3.06,1.94,3,0Z"/><path d="M351.7,172.48a331.63,331.63,0,0,0-.71,52.83c.12,1.92,3.13,1.93,3,0a331.63,331.63,0,0,1,.71-52.83c.18-1.92-2.82-1.91-3,0Z"/><path d="M353.4,225.53a2.13,2.13,0,0,0-2.15-3.66l2.25,1.3q-1-31.17-.18-62.36c.05-1.93-2.95-1.93-3,0q-.78,31.19.18,62.36a1.52,1.52,0,0,0,2.26,1.29l-.88-1.52c-1.56,1.11-.06,3.72,1.52,2.59Z"/><path class="cls-5" d="M480.31,290.84a.56.56,0,0,0,.05-.08L479,292.59a1,1,0,0,1,.18-.17l-1.83,1.4a1.19,1.19,0,0,1,.22-.12l-2.15.9a1.25,1.25,0,0,1,.26-.07l-2.39.32a.67.67,0,0,1,.2,0,6.69,6.69,0,0,0,3.47-.78,6.77,6.77,0,0,0,2.9-1.86,9.94,9.94,0,0,0,2.63-6.36l-.32-2.39a9.1,9.1,0,0,0-2.31-4l-1.83-1.4a8.82,8.82,0,0,0-4.54-1.23.33.33,0,0,0-.14,0c-.41,0-1,.13-1.26.16s-.85.09-1.26.18l-.13,0a19.53,19.53,0,0,0-2.27,1l-.11.07a18.48,18.48,0,0,0-1.92,1.48.47.47,0,0,0-.1.1l0,0-1.41,1.82v0l0,.06a6.63,6.63,0,0,0-1.07,3.34,9.26,9.26,0,0,0,4.29,9l2.15.91a9.05,9.05,0,0,0,4.79,0l2.15-.91a9.09,9.09,0,0,0,3.23-3.23Z"/><path class="cls-5" d="M378.12,234a2.38,2.38,0,0,1,1.28,1l.43-.55-2.11-.52a.38.38,0,0,0-.29.69c1.06.65,2.14,1.27,3.24,1.85.43.22.81-.43.38-.65-1.1-.58-2.19-1.19-3.24-1.85l-.29.69,2.11.51a.38.38,0,0,0,.42-.55,3.29,3.29,0,0,0-1.73-1.36.38.38,0,0,0-.46.27.39.39,0,0,0,.26.46Z"/></g></g></svg>