<svg xmlns="http://www.w3.org/2000/svg" viewBox="0 0 917.81 1281.88"><g id="Layer_2" data-name="Layer 2"><g id="Layer_1-2" data-name="Layer 1"><path d="M1.45,30.58a1.5,1.5,0,0,0,0-3,1.5,1.5,0,0,0,0,3Z"/><path d="M260.14,31.51C216,35,178.06,60.42,151.43,94.88,121,134.31,107.59,182.23,103.9,231.37,95.67,341.27,135.56,458.18,91.39,564,72.5,609.26,36.21,651.64,47.82,703.93c4.59,20.63,17.82,38.54,37.63,46.67,20,8.21,42.71,4.78,62.25-3.12,44-17.79,78.18-57,103.22-96.18a332.44,332.44,0,0,0,49.6-136.81c2.48-19.55,3.73-40.72-5.88-58.73-9.79-18.37-31.4-23.67-48.7-11.82C226.63,457.16,215,481.77,208,503.39a166.12,166.12,0,0,0-6.78,71.78,162.33,162.33,0,0,0,8.4,35,6.2,6.2,0,0,0,7.38,4.19c52-9.61,88.25-63.15,86.19-114.59a97.31,97.31,0,0,0-11.59-42.58l-.94,7.27c18.91-23.89,52.49-24.08,78.29-11.89,32.75,15.48,48.2,48.53,53.14,83,5.73,40-1.52,80.26-4.36,120.17-1.49,21-1.74,42,1.39,62.87a154.21,154.21,0,0,0,8,31.51c3.09,8.18,6.75,16.63,13.6,22.38,14,11.75,34.37,6.73,46.65-5.07,15.63-15,16.48-38.85,16.81-59.07.07-4.15-5.31-8-9-5.18-22.86,17.4-1.18,44.2,16.49,55.53,11.34,7.28,24.59,10.21,35.75,18,9.34,6.54,21,17.68,12.76,29.3h10.36A63.62,63.62,0,0,1,568,752.28c7.12-17.2,24.45-27.71,30.42-45.48,6.86-20.45-3.73-42.27-8.9-61.85a360.21,360.21,0,0,1-11-65.05c-3-39.68-1-81.73,13-119.37,11.63-31.36,34.1-59.72,67.91-67.51,28-6.46,61.78,1.71,74.57,29.79,13.63,29.95-4.51,64.3-26.92,84.43-10,8.94-35.62,28.82-48.1,15.38-10.69-11.52-8.26-32.42-2.1-45.4,14.27-30.1,50-47.44,82.11-37.61,32.69,10,55.2,41.41,62.46,73.73,8.63,38.38-4.89,78.49-24.8,111.11a258.89,258.89,0,0,1-17.53,25.17l7.27-.94c-13.86-7.48-17.11-30.43-4-40.44l-8.82-3.58a293,293,0,0,1,9.64,175.06l11-1.43a25.21,25.21,0,0,1,.78-28.15H764.55l24.22,47.73c2.19,4.34,8,3.43,10.36,0C870.24,696.68,884.29,563.78,856,445.43c-28.09-117.52-97.2-222.14-182-306.68C592.44,57.46,478.35-18.84,357.45,4.16,335.31,8.37,309,22,301.26,44.71c-8,23.74,12,42.51,33.79,46.17,12,2,24.14,1.36,36.17-.25,17.22-2.31,34.4-4.9,51.59-7.37,35.42-5.08,71-9.75,106.79-11.05C589.64,70,652,78.1,704.75,108.59a206.47,206.47,0,0,1,65.8,60.52c18.18,25.88,32.09,54.67,45.13,83.39,52,114.47,81.71,239,88.57,364.45,6.77,123.62-8,249.86-47.18,367.49-33.61,100.76-96,207.12-206.85,233.27-61.61,14.53-128.2,3.51-184.24-25a293.57,293.57,0,0,1-72.8-52.14c-21-20.63-40.58-46.32-44.81-76.29-7.4-52.43,37.69-88.93,80.74-107.87,25.25-11.1,52.75-17.83,80.06-21.29,31.14-3.95,64.68-2.71,92.36,13.63,22,13,39.88,34.81,41.91,61l7.6-5.79-69.8-9.71c-20.83-2.9-41.76-5.92-62.84-5.93-37.85,0-75.45,11.35-98.68,42.89-11.28,15.31-16.41,33.66-13.83,52.52.45,3.27,4.58,4.89,7.38,4.19l116.39-29.12,58.2-14.56c15.76-3.94,32.24-6.9,47.15-13.57,11.22-5,22.2-13.25,25.37-25.75,3.94-15.57-5.3-30.59-15.22-41.79-19.45-22-48.77-32.93-77.46-35.26-34.36-2.8-68.3,7.81-99.55,21.06-30,12.73-60.35,26.94-87.37,45.35-25.86,17.62-48.46,40.14-61,69.23-13.3,30.89-14.89,65-15.33,98.13-.23,17.27-.13,34.56-1.16,51.8-.9,15-1.1,33.27-9,46.58-17.69,29.92-54.92-12.42-67-27.91-31-39.72-44-89.94-51.76-138.85-8.38-52.91-10.94-106.55-19.43-159.45-8-49.63-21.55-100.06-51.62-141.2-17.13-23.43-40.3-41.11-58.39-63.64-9.25-11.54-16.85-25.07-18.3-40-1.87-19.31,5.23-38.38,11.21-56.4A1263.47,1263.47,0,0,1,128.2,427q12.8-23.52,26.57-46.49c4-6.64-6.4-12.68-10.37-6.05A1287.68,1287.68,0,0,0,47.91,572.35q-10,26.07-19,52.56C23,642.55,16.39,660.64,15.63,679.42c-1.27,31.29,18.26,55.72,39.15,76.72,19.44,19.54,38.36,38.19,52.23,62.27,12.53,21.78,21.19,45.47,27.53,69.73,13.43,51.37,17,104.66,22.8,157.25,5.6,50.47,12.68,101.89,33.56,148.65a212.77,212.77,0,0,0,39.66,60.07c9.81,10.32,20.84,20.54,34.44,25.49,14,5.09,29,1.69,37.83-10.68,8.29-11.59,9.82-26.8,11.27-40.57,1.8-17.14,2-34.39,2.22-51.61.33-33.79-.12-68.64,11.42-100.89,10.79-30.16,33-53.46,59.1-71.24,27.48-18.72,58.45-33.39,89.11-46.08,31.17-12.88,65.39-22.87,99.39-17.83a111.91,111.91,0,0,1,41.73,14.6c12.66,7.69,25.69,19.55,30.73,33.86,5.15,14.62-4.89,24.63-17.32,30.43-15,7-32.27,9.66-48.24,13.66l-116.39,29.12-55.77,14,7.38,4.19c-2.71-19.84,6.9-38.84,20.73-52.49,15.51-15.31,35.68-23.41,57.06-26.32,24.37-3.32,49.24-.48,73.45,2.8,26.4,3.58,52.77,7.33,79.15,11,3.51.48,7.93-1.47,7.59-5.79-2.08-26.77-17.35-49.52-38.65-65.21-24.24-17.87-54.63-23.91-84.28-23.19-30,.73-60.72,6.84-89,16.7-23.53,8.18-46.16,19.43-65.62,35.11-17.92,14.43-32.8,33.44-39,55.88-7.56,27.45-.78,55.87,13.51,79.93,15,25.33,36.95,46.42,60.16,64.26a307.82,307.82,0,0,0,79.24,43.9c59.05,22.2,126.9,26.42,186.74,4.71,50.27-18.23,91.19-53.83,122.38-96.65,32-44,54.17-94.79,70.64-146.42,19-59.62,31.74-121.31,39.11-183.42a1044,1044,0,0,0-24.75-378,1015.07,1015.07,0,0,0-62.6-176.85c-13.55-29.32-28.06-58.67-47.58-84.54a217.44,217.44,0,0,0-64.91-57.7C658.48,68,596.69,58.62,537,60c-35.64.81-71.07,5.18-106.33,10.13-17.61,2.47-35.21,5.12-52.83,7.58-13,1.83-26.47,3.73-39.61,1.61-11-1.78-22.26-6.74-25.77-18.26-3.42-11.22,3.66-21.39,11.76-28.47C345.79,13.7,378,11.6,405.3,12.11,466.18,13.25,524,38.31,574.11,71.44,625.32,105.3,670.2,148.62,710,195.2s73.95,98,99.65,153.62c51.78,112.05,65.69,243.77,22.15,360.89a362.75,362.75,0,0,1-43,82.11h10.36l-24.22-47.74c-2.17-4.29-8-3.48-10.36,0a37.11,37.11,0,0,0-.78,40.26c2.64,4.3,9.66,3.69,11-1.43a304.41,304.41,0,0,0-9.63-181.44c-1.2-3.19-5.46-6.16-8.82-3.59-19.82,15.17-18.57,49,4,61.16,2.12,1.14,5.62,1.17,7.28-.94,27.53-35,49.09-77.46,48.35-123-.61-38.12-19.75-76.77-52.47-97.29s-73.63-15.63-101.11,11.46c-12.74,12.55-21.61,29.33-22.5,47.38-.87,17.73,6.76,40.89,27.44,42.23,18.52,1.21,38.14-13.36,50.83-25.52,13.15-12.6,23.67-28.5,29-46,10.32-34.08-4.7-69.69-38.35-82.93-32.1-12.63-70.41-3.23-95.2,19.91-30,28.06-41.94,70.19-46.14,109.85A375.09,375.09,0,0,0,582.17,663c3.62,11.83,8.44,24.87,5.57,37.37-2.43,10.58-10.61,18.28-17.38,26.28-13.45,15.86-20.83,35.64-18.86,56.61a76.14,76.14,0,0,0,8.69,28.95c2.28,4.27,7.91,3.47,10.36,0,16.36-23.16-12.7-45.24-31.38-53.94-11.72-5.46-22.82-9-32.15-18.54-6.08-6.21-15.37-18.77-5.77-26.08l-9-5.18c-.28,17.58-.21,40.2-15.27,52.33-5.87,4.72-14.12,8-21.68,6.12-8.88-2.15-13.09-11-16.14-18.82-15.54-39.86-10.51-84-6.39-125.47,6.45-65,8.66-153.39-63.54-182.88-29.15-11.92-66.24-9.94-87,16.31-1.74,2.19-2.32,4.71-.94,7.27,28.94,53.59-7.95,128.54-67.43,139.53l7.38,4.2c-15.71-43.29-11.15-92.75,13-132.1,8.73-14.22,29.84-37.48,46.21-18.88,11.82,13.44,10.65,34.93,8.92,51.43-4.68,44.85-19.57,88.64-42.43,127.45-22,37.41-52.62,75.37-91.64,95.92-17.45,9.19-38.75,15.89-58.49,10.91-20.31-5.13-33.36-21.92-37.56-41.87-10-47.45,24.73-88.26,42.28-129.18,41-95.48,14-200.79,13.22-300.47-.37-48.46,5.33-98.44,28.92-141.58,19.1-34.92,49.19-66.25,87.61-79.18a120.37,120.37,0,0,1,28.9-6c7.65-.61,7.71-12.62,0-12Z"/><path d="M240.92,631.76c-7.75,17.29-10.12,36-8.81,54.86s5.65,37.49,10.14,55.86c2.25,9.24,4.57,18.47,6.6,27.77,1,4.49,1.9,9,2.7,13.53q.62,3.51,1.14,7l.42,2.93c-.17-1.26.08.68.09.75.1.79.2,1.57.29,2.36a265.62,265.62,0,0,1,.45,58q-.39,3.82-.89,7.65c.16-1.25-.1.68-.11.76-.11.78-.22,1.56-.34,2.34-.2,1.37-.41,2.74-.64,4.1q-1.31,7.89-3.08,15.7a264.62,264.62,0,0,1-9.2,31.25l10-2.64c-.76-.81-1.51-1.63-2.22-2.47-.41-.48-.79-1-1.19-1.46.8,1-.2-.26-.48-.65a55.83,55.83,0,0,1-3.73-5.86c-.53-.94-1-1.89-1.5-2.86l-.69-1.46c-.09-.21-.18-.42-.28-.63-.62-1.38.3.76,0-.06-.86-2.15-1.65-4.32-2.31-6.55s-1.22-4.51-1.67-6.81c-.22-1.08-.41-2.16-.58-3.25-.08-.51-.29-1.75-.08-.51-.11-.62-.16-1.26-.23-1.89a100.6,100.6,0,0,1-.47-14.42q.15-3.65.51-7.29c.12-1.13.25-2.27.39-3.4,0-.12.14-.94,0-.17s0-.22.07-.42c.09-.64.19-1.29.29-1.93a142.39,142.39,0,0,1,3.09-14.28c2.88-10.68,6.91-21,11-31.3,8.54-21.41,17.53-42.72,20.2-65.83s-1.18-46.31-4.79-69.07c-.89-5.62-1.78-11.25-2.58-16.88l-.27-2c0-.16-.19-1.35-.09-.64s0-.29-.05-.34c-.19-1.52-.39-3-.57-4.57-.33-2.85-.63-5.7-.88-8.56a162.68,162.68,0,0,1,.23-33.46c.15-1.21.05-.35,0-.1.06-.37.11-.75.17-1.13.09-.65.2-1.31.31-2,.23-1.41.5-2.81.79-4.21.62-3.07-.89-6.63-4.19-7.38-3-.69-6.71.9-7.39,4.19-4.78,23.42-2.16,47.13,1.42,70.51.87,5.73,1.81,11.45,2.7,17.18.44,2.86.87,5.73,1.28,8.59.1.67.19,1.34.29,2,0,.38.1.76.16,1.15,0,.19.15,1.18,0,.12.19,1.43.37,2.86.55,4.3a196.93,196.93,0,0,1,1.54,34.58c-.16,2.85-.44,5.69-.75,8.54,0,.19-.15,1.18,0,.11l-.12.85-.3,2c-.25,1.51-.52,3-.81,4.51a163.72,163.72,0,0,1-4.26,16.61c-3.41,11-7.73,21.68-12,32.35s-8.64,21.44-12,32.5A144.78,144.78,0,0,0,222.56,860c-1.59,19.33,1.55,40.36,13.46,56.21a69.17,69.17,0,0,0,5.2,6.25,6,6,0,0,0,5.84,1.55,6.22,6.22,0,0,0,4.19-4.2,270.25,270.25,0,0,0,15.14-114.12c-1.62-19.24-5.64-38-10.21-56.74-2.26-9.27-4.58-18.53-6.63-27.85-1-4.52-1.92-9.05-2.74-13.6q-.56-3.11-1-6.21c-.18-1.13-.34-2.26-.5-3.38a3.74,3.74,0,0,1-.09-.66c-.09-.75-.19-1.49-.27-2.24a142.34,142.34,0,0,1-.65-29.9c.12-1.27.26-2.53.42-3.8-.18,1.39.07-.41.09-.57.11-.72.23-1.44.35-2.16.41-2.33.9-4.66,1.48-7q.93-3.75,2.19-7.41c.42-1.23.87-2.46,1.34-3.67l.63-1.56c-.45,1.09.44-1,.52-1.16,1.28-2.86.92-6.59-2.15-8.21-2.62-1.39-6.84-.91-8.21,2.15Z"/></g></g></svg>