<svg xmlns="http://www.w3.org/2000/svg" viewBox="0 0 896.07 1194.46"><g id="Layer_2" data-name="Layer 2"><g id="Layer_1-2" data-name="Layer 1"><path d="M556.06,594.88c-11.92,16.56-32.23,24.37-50.83,30.7-22.38,7.61-45.23,14.56-66.07,26-18.4,10.07-31.25,27.73-38.46,47.13-8.54,23-12.14,48.06-14.68,72.33-3,28.91-3.88,58-6.52,86.92-.37,4.07,5.07,5.68,7.68,3.18s4.53-8,1.44-11.07a4.86,4.86,0,0,0-7.52,1c-1.27,2-1.42,4.61-1.6,6.89-.34,4.28,5,5.39,7.68,3.18,5-4.09,10.21-8.07,13.3-13.9,1.54-2.93-.35-6.86-3.89-6.77-9.66.22-14,8.22-16.93,16.29a4.54,4.54,0,0,0,2.07,5.08,4.68,4.68,0,0,0,5.45-.7c4.67-3.88,10.23-7.09,13.22-12.58,1.83-3.34-1.2-7.76-5.08-6.61-3.54,1.06-6.67,3.41-9.38,5.85s-5.36,5.41-6.28,9c-1.17,4.52,4.22,7.27,7.52,4.38,29.2-25.57,50.81-60.4,59.39-98.35a166.84,166.84,0,0,0,4.07-32.63h-9l7.7,113.27c.19,2.79,2.74,5.27,5.7,4.34,24.24-7.62,35.76-32.82,37.49-56.55,2.24-30.77-13-58.71-26.07-85.44-7.8-16-14.95-32.39-17.45-50.11-.7-5-9.23-3.85-8.84,1.19,2.77,35.37,17.92,67.52,30.94,100,12.95,32.27,24.2,68.2,16.16,103.14-6.27,27.25-27.4,48.36-53,58.42-32.35,12.7-67.92,11.88-101.07,21.55-26.66,7.79-55,21.93-67.19,48.41a67.65,67.65,0,0,0-4.51,13,4.54,4.54,0,0,0,7.52,4.38,143.08,143.08,0,0,1,29.06-20.47A141.34,141.34,0,0,1,313.88,978c2.71-1,5.45-2,8.21-2.89,3-1,5.8-2.25,8.78-3.14,5.36-1.6,10.95-1.76,16.5-2,6.35-.32,12.61-1.36,19-1.64,12.8-.55,25.53,1.15,38.29,1.83A136.24,136.24,0,0,0,424,970a103.39,103.39,0,0,0,19.69-4.06c12-3.45,23.76-7.24,36.21-8.66a150.86,150.86,0,0,1,126.39,45.6c1.86,1.94,5.84,1.71,7.07-.92,2-4.25,2.79-9,.53-13.34a10.29,10.29,0,0,0-8.2-5.69,6.47,6.47,0,0,0-6.88,6.7c.06,5.09,4.28,9.75,7.48,13.25,2.48,2.7,6.39,1,7.52-2a43.93,43.93,0,0,0-8-44.5c-5.37-6.18-12.61-10.28-19.92-13.74a118.12,118.12,0,0,0-26-8.73c-17.42-3.67-35.31-3.87-53-3.2-8.92.34-17.84.88-26.76,1.28-9.64.42-19.26.46-28.88,1.29-18.72,1.62-37.39,4.29-56,6.61-14.84,1.85-29.71,3.91-44.21,7.66-14.28,3.7-28.38,9.11-40.64,17.43-12.56,8.52-24.6,20.46-30.4,34.71-5.66,13.91-4.15,30.2,3.26,43.17a41.91,41.91,0,0,0,17.1,17,59.46,59.46,0,0,0,12.3,4.7,58.34,58.34,0,0,0,14.29,1.72c41,.45,82-1.55,122.81-5.07,20.56-1.77,41.09-3.92,61.58-6.33q15.35-1.78,30.67-3.76l7.34-.95c2.64-.34,5.1-.51,7.51-1.7,3.53-1.74,7.28-2.81,10.88-4.4,14.63-6.44,24.81-24.33,16.45-39.44-7-12.68-21.65-17.12-35.32-17.27-7.78-.09-15.36,1.34-23,2.7q-15.09,2.69-30.2,5.14c-20.06,3.21-40.2,6-60.44,7.88-39.75,3.74-80.11,4.29-119.65-1.86q-14.65-2.28-29.09-5.75a4.59,4.59,0,0,0-5.54,3.14c-.7,2.56.88,4.63,3.14,5.54a20.94,20.94,0,0,0,5.37,1.16c5.18.62,5.88-7.45,1.2-8.84-1.38-.41-2.77-.71-4.17-1-3.37-.71-7.7,3.22-5.09,6.61a32.08,32.08,0,0,0,8.35,7.44c2.78,1.78,5.7,3.34,8.1,5.64a4.5,4.5,0,0,0,5.9.36c1.89-1.51,2.08-3.69,1.16-5.81-3.18-7.33-10.9-10.11-17.35-13.79-4.33-2.47-9.34,3.56-5.45,7.07,5.23,4.73,10.1,9.86,16,13.8a4.48,4.48,0,0,0,5.8-1.16,4.57,4.57,0,0,0-.35-5.91c-4.45-5.32-9.7-10.71-16-13.8a4.55,4.55,0,0,0-5.8,1.16,4.47,4.47,0,0,0,.35,5.91c31,27.55,74,25.27,112.63,22,50.16-4.29,100.15-10.28,150.07-16.71,28.26-3.65,56.51-7.31,84.82-10.55,3-.34,4.95-2.58,4.34-5.69-1.65-8.41-14.4-8.68-19.51-3.43-3.68,3.78-.77,8.81,3.86,9.61,3.77.64,7.56-.06,11.31-.49a4.6,4.6,0,0,0,4.34-5.69l-4.42-28.14c-.38-2.41-3.39-3.74-5.54-3.15-2.56.71-3.52,3.13-3.14,5.54l4.42,28.14,4.34-5.7c-2.08.24-4.14.55-6.23.68-.69,0-1.37.07-2.05.07-.21,0-2,.08-1,0l-.37-.08c-.51-.15-.45-.11.18.13q2.49,2.21,1.15,4.86c-.52.62-.62.76-.28.43-.57.87-.35.15.31-.07,1.08-.37-1,.26.24-.08.51-.15,1-.29,1.52-.4s.53-.1,0,0c.27,0,.54,0,.82-.06s.8,0,1.2,0c-1.11-.09.49.2.67.21-.42,0-.4-.36-.23,0-.42-.81-.41-.85-.24,0l4.34-5.7c-49.57,5.67-99,12.64-148.53,18.42-24.76,2.89-49.56,5.54-74.39,7.79-20,1.81-40.17,3.92-60.27,2.77-21-1.2-41.95-6.83-58-21.06l-5.45,7.07c5.66,2.77,10.18,7.62,14.18,12.4l5.45-7.07c-5.24-3.49-9.53-8.19-14.18-12.4l-5.45,7.07c5.05,2.88,11.63,4.83,14.12,10.56l7.07-5.45a48.2,48.2,0,0,0-8.16-6c-2.42-1.49-5.11-3-6.87-5.31l-5.09,6.62c1.41.29,2.8.59,4.17,1l1.2-8.84a11.84,11.84,0,0,1-3-.84l-2.4,8.68c49.91,12,101.6,12.69,152.49,7.8,25.88-2.49,51.63-6.31,77.25-10.69,10.73-1.83,21.35-4.55,32.08-4.87,7.85-.24,16.1.65,22.86,4.79a21.28,21.28,0,0,1,8.35,9.37,16.26,16.26,0,0,1-.68,13.5,25.59,25.59,0,0,1-10.3,10.77,45,45,0,0,1-6.86,2.83,80.92,80.92,0,0,0-8.07,3.6l2.27-.62c-52.46,6.87-105.09,12.7-157.95,15.28q-19.62,1-39.27,1.29-9.84.16-19.69.14c-6.13,0-12.54.47-18.56-.77a51.63,51.63,0,0,1-15.16-5.59,30.23,30.23,0,0,1-9.75-9.35,42.21,42.21,0,0,1-7.55-25c.47-18.79,15.34-34.54,30.19-44.39,15.56-10.33,33.7-15.67,51.89-19.14,20.49-3.91,41.36-5.81,62-8.41a382.12,382.12,0,0,1,38.07-3.33c11.49-.3,22.95-.91,34.43-1.42,22.52-1,45.52-1.15,67.22,5.8A100.06,100.06,0,0,1,585,952.21c4.47,2.34,8.82,4.79,12.42,8.36a34.65,34.65,0,0,1,10.32,23.93,36.94,36.94,0,0,1-2.63,14l7.52-2a32.48,32.48,0,0,1-3.54-4.4,19.52,19.52,0,0,1-1.07-1.89c-.56-1.11.29.81-.08-.22,0-.1-.08-.51-.17-.57-.37-.28,0,.58,0,.2a3.12,3.12,0,0,1,0-.43,2.28,2.28,0,0,1-.82,1.94l-1,.65c-1.14.32-1.06.1-.53.11.68,0-1.1-.17-.56-.07,1.1.21-.68-.3.07,0s.68.62.23.08c.17.2,1,1.12.59.57s.31.61.43.82c.21.4-.22-1-.08-.12a4.73,4.73,0,0,0,.19.74c.15.5,0-.93,0-.07,0,.28,0,.58,0,.86,0,.47,0,.7,0,.09-.05.32-.12.65-.2,1s-.19.68-.3,1c-.27.83.18-.28-.25.64l7.06-.91c-31.82-33.24-77.83-51.56-123.82-49a160.73,160.73,0,0,0-36.48,6.46c-6.5,1.91-13,4-19.55,5.56a82.52,82.52,0,0,1-19.64,1.88c-13.2-.07-26.3-2-39.5-2.19-6.8-.1-13.37.71-20.13,1.33-6.08.56-12.2.52-18.26,1.37a40.34,40.34,0,0,0-9.69,2.41c-3.17,1.28-6.4,2.25-9.63,3.38a159.34,159.34,0,0,0-19.27,8.18,152.48,152.48,0,0,0-34.05,23.52l7.53,4.38c6.84-29.28,34.22-45.29,61-53.8,32.72-10.41,67.88-9.75,100.37-21,27.71-9.61,51.6-29.29,61.74-57.4,5.8-16.08,6.67-34,4.85-50.86-1.94-18-6.8-35.42-13-52.37-11.91-32.79-28.58-64.15-34.42-98.87-.71-4.19-1.2-8.39-1.54-12.63l-8.83,1.2c4.21,30,21.32,55.55,32.92,82.89,9.87,23.27,15.33,50.21,4.4,74.16-5,11-13.25,20.28-25,24l5.69,4.34-7.7-113.27c-.39-5.73-8.85-5.85-9,0-.92,36.93-15.46,73-38.62,101.57a187.39,187.39,0,0,1-22.2,23l7.52,4.38c.38-1.46,2.27-3.46,4-5a18.69,18.69,0,0,1,5.41-3.53L392.63,844c-2.53,4.64-7.86,7.47-11.81,10.75l7.52,4.38c1.51-4.19,3.38-9.57,8.25-9.68l-3.88-6.77c-2.7,5.1-7.51,8.5-11.89,12.07l7.68,3.19c.06-.7.14-1.32.26-2a7.25,7.25,0,0,1,.22-.76,3,3,0,0,1-1.51,1.87l-2.27.62h.1L383,857a3,3,0,0,1-1.82-2.84c.06.91-.15-1.06,0,0,.1.55.34-.27-.08.24-.6.73.48-.43-.33.35l7.68,3.19c4.57-50.09,3.65-101.43,18.58-149.95,5.73-18.63,16.46-36.41,33.4-46.8,9.77-6,20.6-10.45,31.29-14.5,11.05-4.18,22.29-7.83,33.47-11.61,21.88-7.39,44.61-16.21,58.59-35.64,1.42-2,.34-5-1.62-6.16-2.26-1.32-4.73-.36-6.15,1.62Z"/><path d="M453.14,616.71c5.7-2.35,11.37-4.8,17.21-6.8a91.41,91.41,0,0,1,9.16-2.68c1.47-.34,2.95-.64,4.45-.88l1.21-.18c-.86.12-.14,0,0,0,.95-.09,1.89-.19,2.84-.25,1.49-.09,3-.11,4.48-.06.67,0,1.35.07,2,.13l1.22.13c-1.05-.12.64.1.82.14a35.52,35.52,0,0,1,4.42,1.06c.66.2,1.33.43,2,.67.06,0,1.36.54.51.19.53.22,1.06.47,1.58.72s1.31.67,1.95,1a9.13,9.13,0,0,0,3.85,1.16c1.49.15,3,.29,4.47.39a79.25,79.25,0,0,0,9.5.09c7.52-.42,15.06-2.09,21.51-6.12a4.5,4.5,0,1,0-4.54-7.77,32.3,32.3,0,0,1-3.71,2c-.32.15-.81.35-.21.11l-1.12.43c-.63.23-1.27.44-1.91.64a41.75,41.75,0,0,1-4.11,1c-.67.13-1.34.23-2,.35s.66-.07-.22,0l-1.22.13a82.72,82.72,0,0,1-17.23-.38l2.27.62A42.64,42.64,0,0,0,487.23,597c-8.34.64-16.36,3-24.13,6-4.15,1.59-8.24,3.33-12.35,5-2.17.9-4,3-3.15,5.54.68,2.08,3.21,4.1,5.54,3.14Z"/><path d="M286.63,468.93a354.48,354.48,0,0,0-34,11.57c-2.18.87-4,3.05-3.15,5.54.69,2.11,3.2,4.07,5.54,3.14a351,351,0,0,1,34-11.57,4.5,4.5,0,0,0-2.4-8.68Z"/><path d="M84.59,144C68.72,191.9,66.16,244.45,79.35,293.28c6.74,25,18.88,47.76,31.64,70.08,10.8,18.9,23.68,43.85,7.6,63.7-11.77,14.53-31,18.64-48.4,22.15-17.7,3.57-36.79,6.59-51.26,18.27C2.59,480.66-1.63,501.21.52,521.2,3.29,547,12.33,571.92,20.63,596.38,38.13,647.92,60.69,697.56,78.44,749c17.37,50.33,28,102.07,29.05,155.38,1.05,52.68-2.91,105.79,7,157.89,7.32,38.45,23.08,79.57,58.11,100.84,20.24,12.29,44.16,15.5,67.16,18.79,27.06,3.87,54.16,7.5,81.42,9.62,54.11,4.2,108.74,4.46,162.6-2.89,48.46-6.61,96.27-20.92,138.24-46.48,40.29-24.54,74.4-58.2,102.15-96.16,61.53-84.16,88.71-187.19,106.27-288.42,9.36-53.94,16.45-108.26,22.11-162.71C855.47,567,858,539,859.85,511.05c1.79-26.91,3.36-54,1.67-80.91-1.63-25.83-6.61-51.63-16.3-75.69-6.3-15.63-18-33.49-37.15-32.26-11.92.76-22.18,8.13-32,14.23-11.19,7-23,13-34.58,19.3-24.19,13.08-48.54,25.87-72.71,39-43.53,23.65-87.1,49.84-136.46,59.07-54.11,10.11-109.49.23-164,2.65C342.25,457.6,316.24,461,291,467.72c-5.6,1.49-3.22,10.17,2.39,8.68,26.11-6.94,53-10.3,80-11.15,26.72-.85,53.42.89,80.12,1.66,26.2.74,52.62.55,78.51-4,23.51-4.09,46.07-12.2,67.75-22,22-9.94,43-21.71,64.12-33.28,23.72-13,47.65-25.61,71.48-38.41,11.56-6.21,23.11-12.45,34.58-18.83,10.5-5.85,20.54-14.07,32-17.91,22.3-7.45,32.91,18.47,38.54,35.09,17,50.23,13.31,103.71,9.5,155.74-4,54-9.82,107.91-17.28,161.53-14.16,101.79-32.55,206.41-80.42,298.48-21.93,42.18-50.14,81.28-85.22,113.51A314.54,314.54,0,0,1,543,1167c-49.17,14.55-101.07,18.65-152.16,18.48-53.4-.17-106.37-5.83-159.13-13.73-22.41-3.36-45.37-8-63.47-22.59-15.68-12.6-26.54-30.25-33.79-48.82-17.17-44-18.1-92.56-18-139.12.09-26.6.76-53.25-.9-79.81a458.35,458.35,0,0,0-11.15-75.07c-11.78-50.86-31.89-99.07-51-147.49C43.68,634,34.21,609,25.86,583.62c-7.71-23.46-16.95-48.06-17-73.08-.07-20.78,11.43-37.18,30.82-44.48,16.62-6.26,34.58-7.58,51.57-12.54,17.21-5,34.23-14.85,41.14-32.32,8.07-20.41-2.09-42.24-12.19-59.9-12.53-21.92-24.83-44.13-31.65-68.59a242.44,242.44,0,0,1-8.47-74.42,260.27,260.27,0,0,1,13.21-71.87c1.83-5.51-6.86-7.87-8.68-2.39Z"/><path d="M63.25,205.76c35.24-30.54,73.59-59.23,118-74.92,20.7-7.31,45.43-13.35,65.78-1.74,18.23,10.39,27.66,30.89,35.18,49.55,15.76,39.11,28.9,88.28,3.58,126.43-10.31,15.54-31.6,32.53-50.7,20.9-9.46-5.76-15.68-16.31-21.12-25.62a284,284,0,0,1-15.68-31.3c-17.72-41.17-26.59-91.3-.6-131.08,22.5-34.44,63.75-52.83,100.39-68.06,94.74-39.38,198.6-53.4,300.32-39.1A583.53,583.53,0,0,1,740.8,70.1c36.45,15.12,76.14,35.3,95.9,71.31,10.8,19.68,13.87,44.42,3,64.77-9.75,18.32-28.21,29.76-47.51,35.92-42.88,13.69-91.54,3.63-131.37-15a242.17,242.17,0,0,1-99.13-85.5,216.93,216.93,0,0,1-17.12-31.17c-5.12-11.53-8.46-23.55-11.31-35.81-4.73-20.44-9.88-42.47-30.7-52.22-18.48-8.66-40.12-5.81-59.46-2-23.24,4.55-46.26,12.58-66.78,24.5C342.7,64.37,315.19,96.36,310,135.9c-4.71,35.85,8.43,75.92,40.67,95.13,41.28,24.59,89,4.23,129.21-11.88,45.49-18.22,93.75-32.41,143.21-31.21,24.94.61,49.93,5.22,73,14.81,18.17,7.55,38.49,18.46,47.76,36.71,6.83,13.47,6.3,36-10.36,42l5.7,4.34a391.35,391.35,0,0,1,7.48-44.87c3.35-14.7,7.91-28.93,12.4-43.3s10.72-28.14,17.43-41.65c6.43-12.92,12.86-25.84,20.25-38.24,12.92-21.66,30.49-46.66,55.86-54.47,13-4,26.44-.43,32.11,12.71,2.82,6.53,2.29,13.76,2.3,20.72q0,10.8-.49,21.6a405.89,405.89,0,0,1-43,163.17c-5.94,11.74-13.3,22.73-23.23,31.48s-24.55,11.51-37.22,8.12c-27-7.22-55.87-17.87-83.37-6.71-6,2.42-12,4.94-17.36,8.49a119.64,119.64,0,0,0-15.49,11.83c-9.8,9.15-18.76,19.12-27.84,29-8.91,9.66-18,19.17-28.13,27.6a162.34,162.34,0,0,1-35.21,22.12c-26.39,12.41-55.22,18.32-83.93,22.43A567.8,567.8,0,0,1,400.2,441c-54.44-1.05-114.57-5.06-156.89-43.55-18.51-16.84-30.3-37.68-37.53-61.48-4.26-14-7.23-28.48-7.57-43.18a194.86,194.86,0,0,1,4-42.2c5.42-27.35,15.8-53.4,28.11-78.33,6.21-12.6,12.9-25,19.75-37.22s14.44-24.22,20.26-37c10.52-23.11,14.11-50.74-4.58-70.79C252.19,12.67,231.16,7.56,211.91,9.92A78.67,78.67,0,0,0,184,18.81c-5.1,2.75-.56,10.53,4.54,7.77,17.37-9.4,40.13-11.66,58.1-2.52,9,4.55,16.75,12.06,20.57,21.48,5.41,13.3,3.08,27.85-1.75,40.93-5.06,13.68-13.1,26.12-20.22,38.77s-14.16,25.47-20.71,38.49c-12.63,25.1-23.63,51.28-29.79,78.78-6.45,28.81-7.55,58.18-.11,86.91,6.48,25.05,17,48.08,34.92,67.05C247,415,269,428,293.06,435.86c28.9,9.38,58.59,12.13,88.79,13.5a611.48,611.48,0,0,0,93.75-2.55c30-3.26,60.39-8.23,88.68-18.95a199.19,199.19,0,0,0,37.36-18.56c11.74-7.55,22.27-17,32-26.92,9.45-9.58,18.29-19.74,27.6-29.46S681,332.1,693.69,326.83c6.42-2.66,12.46-5.71,19.34-7.15a70.66,70.66,0,0,1,21.38-.85c15,1.43,29.55,6.35,44.05,10.3,13,3.54,26.51,3,38.61-3.26,11.56-6,20.47-16.88,27.37-27.68,7.59-11.89,13.38-25.06,18.87-38A410.55,410.55,0,0,0,894.46,134.6,423,423,0,0,0,896,90.71c-.12-7.14-.67-13.34-3.76-19.88-2.68-5.68-7-11.11-12.61-14.07-25-13.2-52.53,7.38-68.62,25.5-18.87,21.26-31.59,47.37-44,72.7a383.57,383.57,0,0,0-29.68,86.66,409.43,409.43,0,0,0-7.12,44.17c-.3,2.8,3.13,5.26,5.69,4.34,17.72-6.38,23.68-26,20.08-43.21-4.28-20.44-21.83-34.64-39.23-44.19-44.77-24.56-97.68-28-147.26-19.61-25.5,4.32-50.4,11.71-74.65,20.65-22.33,8.23-44,18.47-67,24.74-22.74,6.2-47.53,8-69.06-3.27-16.79-8.77-28.92-24.19-35.17-41.92a100.36,100.36,0,0,1-2.7-57c4.93-19.84,16.15-37.42,30.68-51.62,15.68-15.33,34.89-26.56,55.24-34.49,21.7-8.45,46.15-15,69.62-14.45,9.93.23,20.13,2.3,28.28,8.28,9.16,6.74,13.55,17.45,16.38,28.09,3.3,12.37,5.47,25,9.54,37.18a193.16,193.16,0,0,0,15,33.14c22.65,40.34,57.33,73.93,98,96,39.77,21.56,87.61,34.21,132.83,26.73,21.46-3.55,43.27-12.26,58.81-27.91A70.36,70.36,0,0,0,854.83,168c-5.88-44.51-45-74.53-82.45-93.38C729.12,52.85,682,37.54,634.56,27.94A583,583,0,0,0,475.18,18a591.38,591.38,0,0,0-218.62,61.1c-18.2,9.29-35.9,20.28-50.51,34.7A111.13,111.13,0,0,0,175,169.58c-4.93,23.13-2.67,47.17,3.41,69.86A266.81,266.81,0,0,0,207,306.2c5.73,9.64,12.2,19.59,21.48,26.17,8.66,6.14,19.41,7.63,29.63,5.11,20.47-5.06,35.51-24,43.26-42.66,8.78-21.1,9-44.4,5.16-66.64s-11.59-43.75-20.8-64.21c-8.78-19.49-21.42-38.43-42.16-46.41-21.82-8.4-46.37-2.13-67.41,5.59-22.75,8.34-44.15,19.93-64.23,33.43-19.3,13-37.43,27.6-55,42.82-4.38,3.8,2,10.14,6.37,6.36Z"/><path d="M290.12,475.27c-17.85,1-32.16,12-42.73,25.73-11.11,14.44-17.3,31.44-25.1,47.72-3.9,8.13-8.2,16.25-13.83,23.33-5,6.23-13.06,15.52-21.71,15.71s-13.14-10.47-16.12-16.93A133.5,133.5,0,0,1,161,541.5c-3.8-18.76-2.91-39.76,7-56.58a59.94,59.94,0,0,1,37.22-27.6c16.27-3.81,31.59,2,42.75,14.09,11.77,12.77,18.19,29.33,26.53,44.32s20.25,30.35,36.67,37.18a41,41,0,0,0,26.51,1.78c9.79-2.64,18.31-8.45,26.44-14.29q28.94-20.79,57.8-41.69c17.72-12.79,35.08-26.47,53.79-37.8,15.68-9.49,33.6-18.29,52.29-18.8,16-.44,29.59,6.87,39.14,19.5,8.31,11,13.89,23.75,20.52,35.75,6,10.8,13.21,22.37,24.51,28.24,14.87,7.72,30.6,2.83,44-5.51,7.71-4.79,15.08-10.52,23.5-14.05a52.34,52.34,0,0,1,22.77-3.79c15.28.75,30.89,8.31,38.61,21.93,7.09,12.49,6.53,28.92-.52,41.3a34.51,34.51,0,0,1-14.53,13.94l5.46.7c-15.11-16.46-21.58-38-25.44-59.6-4.08-22.74-5.55-45.91-10.84-68.43-4.86-20.71-13.48-39.83-27.75-55.77-13.38-14.95-30.51-26.23-49.09-33.63a130.68,130.68,0,0,0-59-9c-22.28,1.92-42.65,10.17-60.67,23.33-22.6,16.5-41.52,37.79-61.06,57.67L372.8,500.63,307.53,567l-32.42,33c-4.33,4.4-8.71,9-14.15,12-5.63,3.16-11.52,3.24-17.5,1-6.35-2.44-12.16-6.53-18-10l-20-12L166,567.21c-12.38-7.45-25.06-14.56-37.14-22.49-9.41-6.18-19.17-14.47-19.84-26.57-.73-13.22,7.2-25.62,13.87-36.43a301.06,301.06,0,0,1,19.9-28.47,325.68,325.68,0,0,1,49.27-50,330.36,330.36,0,0,1,123.16-63.14,306.58,306.58,0,0,1,69.25-10.38c13.33-.43,27.13,0,39.69,5A54.9,54.9,0,0,1,449,355.14c12.45,18.34,16.38,41.27,17.77,63A328.85,328.85,0,0,1,461,504.26a336.79,336.79,0,0,1-11.11,41.18l6.61-2.69c-25-17.4-49.8-37.86-62.92-66.05-14.23-30.58-10.32-66.1.69-97,11.68-32.76,31.95-61.63,50.64-90.64,17.27-26.81,38.68-58.66,32.47-92.26-5.4-29.25-33.48-46.54-61.48-48.85-17-1.39-34.18,2.73-49.88,8.9a228.13,228.13,0,0,0-43.58,22.49c-12.27,8.24-23.81,18.81-29.62,32.7-5,11.92-5.38,26-.14,37.89,6,13.6,19.14,20.54,33.62,21.15,8,.34,16-1,23.82-2.5q12.83-2.47,25.49-5.77a438.3,438.3,0,0,0,97.67-38.93c27.91-15,59.61-34.81,92.78-29.94,48.79,7.16,64.45,64.4,53.9,106.17-7.18,28.42-27.74,49.65-46.93,70.74-10.63,11.68-21.38,23.65-29.59,37.21a109.61,109.61,0,0,0-15.14,41.31c-2,14.12-.59,28.72,6.13,41.48s18.17,21.84,31.06,27.56c13.33,5.91,27.63,8.81,41.94,11.23,19,3.22,38,6.35,57,9.52l28.18,4.7c9.18,1.53,18.53,3.74,27.83,4.22,15.41.8,28-8.51,35.91-21.1,16.9-26.79,12.6-60.68,5-89.7-8.14-31-20.86-61.48-22-93.94-1.14-33.84,7.8-67.06,7.31-100.86-.23-15.95-2.89-31.57-9.13-46.3-1-2.25-4.24-2.7-6.16-1.61-2.33,1.33-2.55,3.93-1.61,6.16,12.85,30.3,7.25,64.36,3.53,95.93-1.92,16.23-3.62,32.58-2.85,48.93.75,15.75,4.08,31.22,8.26,46.39,8.2,29.74,20.79,59.76,20.35,91.09-.2,14.23-3.46,29.07-11.55,41-3.69,5.43-8.64,10.28-14.68,13-7.62,3.42-15.84,1.81-23.75.49-35.83-6-71.83-11.31-107.52-18-13.79-2.59-27.9-6-40-13.24-11.67-7-20.18-17.74-23.47-31-6.9-27.8,7.1-56.79,24-78.05,19.17-24.06,44-44.63,58.18-72.39,10.35-20.33,13.89-44,10.89-66.52-2.87-21.64-12-43.51-29-57.77-21.8-18.2-50.9-19.34-77.1-10.95-15.76,5-30.57,12.69-45.09,20.5-15,8.06-29.92,16.13-45.52,23a407.23,407.23,0,0,1-48.59,17.62c-15.83,4.65-32.32,9.17-48.75,11-13.6,1.51-28.34-.48-35.38-13.67-5.44-10.2-4.9-23.74.06-34,6.53-13.54,18.78-23.14,31.38-30.75,13.85-8.38,28.69-15.82,44.11-20.85,26.9-8.78,59.61-8.49,80.15,13.77,22.87,24.81,8.59,60.52-6,85.53-17,29.2-37.53,56.29-53,86.44-15,29.32-25.54,62.43-22.5,95.74a111.73,111.73,0,0,0,13.69,44.73c7.28,12.95,17.05,24.43,27.84,34.58s22.49,19,34.55,27.38c2.52,1.76,5.75-.14,6.61-2.69a340.22,340.22,0,0,0,17.19-87.06c1.68-26.13,1.27-53.59-5.48-79.06-5.65-21.32-17.12-42.53-37.47-52.9-12.27-6.24-26.13-8.05-39.74-8.17A275.56,275.56,0,0,0,356,323a334.56,334.56,0,0,0-134.14,48c-40.74,25.37-76.18,59.31-102.47,99.53-7,10.65-14.3,21.94-17.69,34.33-3.54,13-.91,25.68,8.1,35.72,8.64,9.62,20.77,15.79,31.7,22.36l40.58,24.4,40.57,24.39c11.18,6.72,23.68,15.26,37.29,10.58,12.74-4.39,22-16.42,31.15-25.7l33.33-33.9,133.3-135.59c19.27-19.61,38.47-40.49,63.16-53.37,17.82-9.28,38.15-12.66,58.09-11.14,39.93,3,79.18,26.25,97.48,62.44,10.36,20.49,13.44,44,16.42,66.52,3,22.72,5.63,45.94,14.67,67.22a96.54,96.54,0,0,0,17.65,27.69,4.61,4.61,0,0,0,5.46.7c14.43-7.33,22.68-22.48,24.26-38.21a48.68,48.68,0,0,0-17.24-42.59c-13.44-11-31.24-15-48.24-12.35-8.87,1.4-16.95,5.1-24.54,9.8-7.81,4.83-15.25,10.67-23.8,14.18-6.95,2.85-14.56,3.58-21.68,1-5.35-2-9.73-5.83-13.38-10.1-8.85-10.31-14.24-23.38-20.69-35.21-7-12.86-15.36-25.78-28.26-33.41-16.38-9.68-36.12-8.36-53.58-2.54-19.48,6.5-36.87,17.71-53.41,29.64l-59.52,42.94-30,21.65c-8.5,6.13-17.39,12.61-27.88,14.67-18.32,3.59-33.85-10.76-43.55-24.58-10.57-15-16.72-32.7-27.33-47.74-10.18-14.43-24.26-25.66-42.39-27.08-17-1.33-33.87,6.19-46.26,17.42-14.22,12.88-21.47,30.94-22.91,49.85-1.62,21.29,4.14,42.73,13.13,61.88,3.78,8,8.92,16.79,17.94,19.59,10,3.1,19.6-3.53,26.58-10,27.6-25.66,29.16-69.29,59.47-92.72a41.39,41.39,0,0,1,22.8-9c5.76-.33,5.8-9.34,0-9Z"/><path d="M123.52,85.34C83.4,123.26,62,179,69.69,234.08a145,145,0,0,0,11.52,39.64,139.14,139.14,0,0,0,10.32,18.82c3.39,5.21,7.26,10,10.08,15.58,4.43,8.77,7.37,19.7,4,29.3a22.41,22.41,0,0,1-10.77,12.15c-6.5,3.25-13.78,0-19.47-3.47-12.21-7.37-20.66-20-27.39-32.29A253.63,253.63,0,0,1,30,273c-5.15-15.26-7.57-31.26-8.68-47.29a193.08,193.08,0,0,1,2.19-47.54c4.33-24,16.91-64.87,49.23-57.71,14.91,3.31,25.51,14.51,33.91,26.64,8.52,12.3,14.85,26.39,20.21,40.33a286.78,286.78,0,0,1,12.68,42.86c1.59,7.39,2.84,14.83,4,22.3,1,6.33,1,12.53-1.21,18.62-4.77,13.12-16.5,19.76-28.84,24.37-11.34,4.24-23.76,8.54-33.18,16.39a30.91,30.91,0,0,0-9.47,14c-1.23,3.62,2.44,6,5.53,5.54,4.34-.61,10.55-.68,14.43-3.12,4.38-2.75,2.24-8.15-2.25-8.91-5-.85-14.64.36-17.26,5.42-1.93,3.73,1.24,7.2,5.08,6.61a239.94,239.94,0,0,0,86.12-31.14,490,490,0,0,0,70-50.32q16.53-14.28,31.68-30,7.79-8.1,15.18-16.55c4.61-5.26,9.48-10.29,11.89-17,5.17-14.32-1.79-29.59-5.64-43.39-4.27-15.31-8.38-30.71-11.1-46.39s-3.9-31.54-2.21-47.31A111,111,0,0,1,274.13,38c.79-3.73,1.46-8.1,3.18-11.53,2.23-4.45,6.39-8.43,10.52-11.13,17-11.14,40.54-6.55,56.45,4.41a60.41,60.41,0,0,1,22.47,30.74c3.89,12.7,4.23,26.87,2.63,40-3.27,26.63-15.6,51.21-27.74,74.74-12.9,25-27.51,50.2-31.57,78.47-4.14,28.8,2.37,57.37,20.83,80.09,16,19.63,39.72,33.63,64.94,36.72,29.07,3.55,60.75-8.36,80.26-30.22a120.23,120.23,0,0,0,21.57-33.93c6.26-15,7.73-31.6,5.57-47.65-4-29.78-20.51-57-34.8-82.82-11.65-21.08-24.52-43-26.85-67.53-.88-9.16-.5-19.12,4.19-27.29,4.87-8.48,14.93-13.87,24.64-14.11A20.27,20.27,0,0,1,485.87,63c4.63,4.86,4.19,12.88,1.19,18.44-6.22,11.5-15.57,21.58-18.73,34.57-6.86,28.11,19.21,52.05,43.57,59.77,12.64,4,26.67,4.45,39.32.23,12.89-4.29,24.46-11.58,34.83-20.27,10.61-8.89,19.79-19.32,28.26-30.24,4.26-5.49,8.36-11.11,12.39-16.78S634.22,97,639,92c4.1-4.27,9.06-8.12,14.65-10.21,4.38-1.64,12.26-2.75,15.6,1.76C671,86,671.45,91.06,671.82,94a63.13,63.13,0,0,1,.2,12.82c-.61,8.07-2.65,16-4.94,23.74s-5.28,15.46-7.38,23.33a150.14,150.14,0,0,1-6.78,20.23,174.29,174.29,0,0,1-20.44,34.91,349.58,349.58,0,0,1-27.72,32.35c-9.44,10-17.66,21.68-21.39,35.06-3.36,12.06-1.9,24.91,7.73,33.74,10.66,9.79,25.88,10,39.19,6.53,7.19-1.86,14.08-4.72,21-7.47,6.71-2.69,13.43-5.08,19.92-8.3a188.16,188.16,0,0,0,36.7-23.2c21.64-17.87,37.49-43.19,38-71.87.48-26.07-12.53-58.1-37.74-69.24-13.68-6-29.48-7.34-43.56-2a76,76,0,0,0-30.77,21.88c-9,10.48-15.48,22.55-21,35.11-6.54,14.74-12.13,29.87-17.48,45.07s-10.24,30.86-16.6,45.75c-5.29,12.38-9.61,25.19-15.69,37.21-5.74,11.35-13.55,24.91-26.34,29.15-9.81,3.25-22.21-1.68-30.13-7.44-17.16-12.49-26-34.69-32-54.28a354.66,354.66,0,0,1-15.22-95c-.43-17.3,1.69-34.23,3.59-51.39,1.81-16.26,6.63-31.87,11.46-47.44,7.81-25.17,22.05-50.66,44.42-65.61,18.67-12.47,45.07-17.51,66.31-8.83,25.47,10.42,34.49,39.63,35.67,64.9,1.28,27.29-2.78,54.38,3.63,81.31,5.49,23,18.84,47.09,44.12,51.82,14.73,2.76,29.54-.51,43.41-5.53,13.41-4.84,26.23-11.94,40.35-14.53,11.61-2.13,24.83-1.17,34.23,6.69,8.23,6.89,15,20.61,6.51,29.88l7.68,3.18a125.45,125.45,0,0,1-1.14-16.31c0-.34,0-.67.06-1s.24.45,0-.14c0-.06.17-.51.14-.53,1,.63-6.52,1.54-6.57,1.54-1,.11,0-1.08-.14,0,.09-.74,0-.16.14.64,1.06,4.39,1.71,10.08-.88,13.51l8.38,2.27a669.8,669.8,0,0,0-36.4-151c-2-5.39-10.69-3.06-8.68,2.39a659.24,659.24,0,0,1,36.08,148.61c.56,4.56,5.6,6,8.39,2.27,4.35-5.75,4.12-17.41.57-23.58-2.49-4.33-8.3-3.72-9.64,1.17-1.7,6.2,0,14,.68,20.14.42,3.54,4.79,6.35,7.68,3.18,8.85-9.71,7.83-23.24,1-33.86C793.47,195,782,188.78,769.31,187.26c-29.25-3.51-53.4,17.44-81.49,21.17-13.64,1.8-27.17-1.05-37.23-10.8-8.52-8.26-13.34-19.48-16.44-30.75-7.32-26.58-3.38-53.53-4.29-80.64C629,60,621.26,30.82,598,15.55c-19.62-12.88-45.76-12-67.08-4.12C506,20.68,487.85,41.89,476.1,65.09,469.4,78.31,465,92.31,461,106.52a229.16,229.16,0,0,0-5.75,24.12c-1.43,8.27-2,16.72-3,25.07a310.74,310.74,0,0,0,5.36,99.93c5.27,24.51,11.07,49.77,24.45,71.34,11.2,18.06,30.35,34.29,53.07,31.38,13.72-1.76,23.39-13.68,30.28-24.61,7.27-11.55,12.11-24.43,17.12-37.07,5.68-14.35,11.31-28.64,16.41-43.22,5.42-15.49,10.75-31,16.91-46.22,10-24.74,22.92-51.88,48.95-63.05,13.79-5.92,30.59-5.12,43.57,2.7,11.74,7.06,19.8,20,24.25,32.68,9.7,27.64,1.71,57.29-17.47,78.82-9.89,11.09-21.89,20-34.71,27.45s-26.49,13-40.39,18.23c-12.5,4.75-29.6,10.11-41.4.81-11-8.71-8.82-22.93-3.57-34.31,5.94-12.83,15.95-22.41,25.26-32.76a284,284,0,0,0,26.29-33.31A163.76,163.76,0,0,0,665,167.8c2.43-7,4.19-14.22,6.5-21.28,2.62-8,5.28-16,7.15-24.22a89.9,89.9,0,0,0,2.57-24c-.31-6.74-.92-17.28-6.46-21.83-9.87-8.12-23-5.21-32.8,1.41-11.42,7.7-18.08,19.56-26,30.51-8.17,11.36-16.8,22.44-26.74,32.32A134.49,134.49,0,0,1,573.81,154a100,100,0,0,1-18.68,10.62c-12.67,5.66-25.66,6.88-39.11,3-12.62-3.63-25.32-11.27-32.66-22.38-3.74-5.66-6.8-12.51-7.11-19.38-.3-6.66,2.19-12.93,5.38-18.64,6.2-11.13,17.36-22,16.64-35.55S486.6,49.13,473.52,48.05c-10.56-.88-22.35,3.7-29.87,11.11C436.69,66,433.5,75.45,432.53,85c-2.28,22.52,6.85,44.7,16.82,64.3,13.54,26.64,30.23,51.89,40.06,80.27,5.33,15.41,7.52,32.12,4.43,48.26-2.75,14.38-9.6,27.81-18.49,39.37-4.2,5.46-8.9,11.06-14.31,15.35a92.14,92.14,0,0,1-18.5,11c-14.38,6.7-29.34,9.85-45.25,8.11C372,348.9,348,333.23,333.59,312.52c-17.7-25.45-19.31-57.28-10.36-86.36,4.06-13.19,10.42-25.68,16.67-37.95s12.63-24.14,18.53-36.41c11.54-24,21.2-49.68,20.76-76.7-.23-14-2.69-28.15-9.76-40.35A69,69,0,0,0,344.54,9.31C326.88-.84,303-4.07,284.8,6.66A42.74,42.74,0,0,0,273,17c-4.53,5.77-6.21,12.2-7.68,19.32-3.17,15.35-3.4,31.15-1.73,46.7,1.71,15.91,5.14,31.54,9.18,47,2.07,7.95,4.3,15.85,6.52,23.76,2,7,5.1,14.51,4.89,21.91-.22,7.88-4,13.1-9,18.84q-7.14,8.27-14.64,16.2-15.24,16.13-32,30.77a476.9,476.9,0,0,1-70.65,51,226.46,226.46,0,0,1-39.26,18.8A240.17,240.17,0,0,1,74,322.78l5.08,6.61c.33-.62-.31.5-.57.49-.08,0,1.28-.57.36-.27.84-.28,1.67-.56,2.53-.76a23.51,23.51,0,0,1,4.87-.57,10.33,10.33,0,0,0,1.11,0c.81-.14-.6.18-.26-.05,1.66-1.13,1.08-7.22-1-7.58.79.14.26-.12-.34,0-3.87.94-7.81,1.53-11.75,2.08l5.54,5.54C83.58,316.3,98.24,311,109,306.8c13.43-5.27,26.32-9.47,35.43-21.36a41,41,0,0,0,8.16-18.24c1.14-6.94.14-13.57-.92-20.45a309.51,309.51,0,0,0-10.77-46.4,278.93,278.93,0,0,0-18.24-43.92c-7-13.52-16.34-27-28.74-36.21S64.69,107.74,50.44,114C36.87,119.89,30,132.31,23.72,145c-3.63,7.31-5.66,15.75-7.45,23.69a185.09,185.09,0,0,0-3.77,24.67,226.4,226.4,0,0,0,1.69,50.17c2.32,17,7,32.65,13.37,48.52,5.5,13.82,12.39,27.76,21,39.91,8.39,11.81,19.8,23.93,34.51,27.26,13.38,3,25.83-5.84,30.66-18.09,4.2-10.65,2-22.71-2.27-33a83.72,83.72,0,0,0-9.18-15.74,139.92,139.92,0,0,1-11.68-19.74C64.69,219.27,77.56,152.1,115,107.43A187.47,187.47,0,0,1,129.88,91.7c4.22-4-2.15-10.34-6.36-6.36Z"/><path d="M127.45,92.78c0-.16.32-.66.28-.8,0,0-.41.82-.17.44.07-.11.12-.25.18-.36s.26-.47.4-.7.16-.21.23-.32c.25-.47-.6.66-.23.28s.7-.75,1.08-1.1c.08-.08.24-.16.3-.25s-.79.54-.4.31.5-.34.76-.5.45-.26.69-.38a2.48,2.48,0,0,0,.47-.22s-.91.34-.46.19,1.1-.39,1.67-.54a7.82,7.82,0,0,0,1.64-.33s-1,.09-.49.07l.42,0c.34,0,.67,0,1-.06.58,0,1.17,0,1.75,0,.3,0,.59,0,.89.06l.44,0c.75.07-.3,0-.3,0s3.35.75,3.67.85c.58.18,1.13.41,1.7.61s-.4-.15-.38-.16.36.16.41.19c.36.17.71.34,1.06.53q.78.42,1.53.9l.72.5.35.25c-.34-.24-.34-.27,0,0,5,4.11,9,9.28,13.65,13.75a40.64,40.64,0,0,0,8.1,6.21,14,14,0,0,0,6.2,2.07,9.22,9.22,0,0,0,6.17-2.27c2.86-2.35,4-6.14,4.43-9.67a27.86,27.86,0,0,0-1-10.51c-1.95-6.89-6-13-10-18.76-1.94-2.76-4-5.48-5.73-8.36q-1.23-2-2.28-4.17c-.34-.69-.65-1.39-1-2.08-.21-.47.06.14.08.19l-.21-.53c-.16-.41-.32-.82-.47-1.24a39.17,39.17,0,0,1-1.33-4.49c-.16-.72-.28-1.44-.4-2.16s.07.79,0,.12c0-.17,0-.35,0-.53,0-.41-.07-.83-.09-1.24,0-.7,0-1.4,0-2.1,0-.35.06-.69.08-1,0-.53,0,.33-.06.34a3.9,3.9,0,0,0,.11-.67,19,19,0,0,1,.47-2c.1-.33.22-.65.33-1,0-.09.24-.64,0-.09s.07-.14.12-.25a16,16,0,0,1,1-1.8c.09-.14.69-1,.37-.55s0,0,.09-.11.34-.39.52-.58a21.7,21.7,0,0,1,1.79-1.67c-.55.47.2-.13.4-.27.4-.27.8-.53,1.21-.78a40.88,40.88,0,0,1,4.8-2.45c.6-.27,1.68-.73,2-.86l2.63-1.1q11.42-4.73,23-9,2.88-1,5.76-2.07c2.22-.78,3.93-3.1,3.15-5.53-.71-2.19-3.16-4-5.54-3.14q-11.77,4.15-23.36,8.81c-4,1.62-8.05,3.26-12,5a32.42,32.42,0,0,0-9.48,5.93c-10.91,10.38-6.06,27.09.88,38.2,3.68,5.88,8.16,11.22,11.5,17.33q.63,1.16,1.2,2.34c.18.37.33.74.51,1.1s0-.09-.06-.16c.11.24.2.49.3.74A29.71,29.71,0,0,1,176,95.89c.1.45.18.89.25,1.34.15.89,0-.55,0,.35s.11,1.69.1,2.54c0,.4,0,.79,0,1.19,0,.19-.16,1.32-.06.76s-.15.62-.18.75c-.1.39-.24.76-.35,1.15s.11-.25.13-.29c-.08.15-.15.31-.22.46s-.38.56-.51.86c-.22.49.21-.31.21-.26s-.26.29-.32.35-.29.33-.35.32c.11,0,.73-.53.16-.16s.68-.41-.05,0c-.11.06-1.11.26.26,0-.08,0-.73,0-.21,0s-1-.31-.44-.13-.16-.07-.21-.1c-.24-.11-.47-.23-.71-.36-.67-.35-1.32-.74-2-1.15-.32-.2-.63-.42-.94-.63s-1.34-1-.6-.42a45.91,45.91,0,0,1-3.55-3.13c-4.74-4.59-8.75-9.9-14-14-8.8-6.86-24.4-9.3-31.75,1a14.42,14.42,0,0,0-1.9,4,4.53,4.53,0,0,0,3.14,5.53,4.6,4.6,0,0,0,5.54-3.14Z"/><path d="M342.69,558.05a127.23,127.23,0,0,0,39.11,11.36,115,115,0,0,0,20.06.75c6.57-.35,13.31-1.48,19-5,9.52-5.86,14-16.31,18.42-26.11s9.62-18.43,17.22-25.91c14.93-14.67,35.63-23.33,56.46-24.56,22.59-1.34,44.79,6.13,63.43,18.62A129.08,129.08,0,0,1,601.9,529.9a85.77,85.77,0,0,1,10.44,14.27c2.65,4.76,4.83,10.67,2.68,16-3.49,8.69-15.82,10.71-24.3,12a219.77,219.77,0,0,1-35.14,2.38,234.82,234.82,0,0,1-133.43-43.38C403.09,517.6,387,500.54,370.69,483.9c-16.09-16.37-32.87-32.69-53-44A131.55,131.55,0,0,0,302,432.36a4.44,4.44,0,0,0-4.73,1.62,4.63,4.63,0,0,0-.36,5c12.89,27.52,39.26,45.28,67.14,55.23,33.81,12.06,70,12,105.46,13,34,1,68.77,3.36,99.6,19.15,12.91,6.61,24.8,15.22,34.2,26.33a80.08,80.08,0,0,1,11.15,17.37c2.87,6.07,4.47,12.58,6.64,18.9S626,602,630.89,606.82c6.08,5.87,14.13,6.82,22.07,4.54,9.7-2.78,19.21-6.53,28.75-9.81l28.58-9.84,14.29-4.92a4.6,4.6,0,0,0,3.14-5.53,4.53,4.53,0,0,0-5.53-3.14L665,597.79c-4.56,1.57-9.1,3.26-13.71,4.67-3.47,1-7.42,1.7-10.57.37a14.22,14.22,0,0,1-5.35-4.46,37.39,37.39,0,0,1-4.11-7.61c-2.54-6.29-4-12.93-6.52-19.24a85.72,85.72,0,0,0-10.42-19.19,110.2,110.2,0,0,0-32.17-29,156,156,0,0,0-41.4-17.23c-17.37-4.56-35.43-6.28-53.31-7.21-36-1.88-72.87.19-108-9.31-27-7.3-54.25-21.38-69.63-45.65a85.93,85.93,0,0,1-5.19-9.52L299.56,441c21.5,8.61,39.32,24,55.64,40.06,17,16.69,32.83,34.63,51.45,49.56a240.19,240.19,0,0,0,64.14,36.74,244.7,244.7,0,0,0,71.86,15.71,230.54,230.54,0,0,0,36.41-.49c11.24-1,23.8-2,33.82-7.67a23.69,23.69,0,0,0,10.7-12c2.49-6.49,1-13.55-1.68-19.71-2.61-5.92-6.61-11.13-10.67-16.14A135.28,135.28,0,0,0,599.11,514c-17.28-16.37-39-28.66-62.62-32.86a100.84,100.84,0,0,0-66.21,10.72,89.4,89.4,0,0,0-25.48,20.73,80.49,80.49,0,0,0-9.51,14c-2.54,4.77-4.53,9.81-6.84,14.7-2.19,4.65-4.62,9.36-8.27,13-4,4-9.16,5.94-14.7,6.58-13.17,1.51-27-.21-39.69-3.71a114,114,0,0,1-18.56-6.88,4.63,4.63,0,0,0-6.16,1.62c-1.14,2-.59,5.11,1.62,6.15Z"/></g></g></svg>